<?xml version="1.0" encoding="UTF-8"?>
<svg version="1.1" xmlns="http://www.w3.org/2000/svg" width="512" height="512">
<path d="M0 0 C1.56261338 0.61819696 3.12620579 1.23392388 4.69067383 1.84741211 C8.1478243 3.20544346 11.60001719 4.5752883 15.05029297 5.95068359 C21.51138708 8.51453466 28.00646445 10.98705357 34.50390625 13.45703125 C36.85469975 14.35242144 39.20544844 15.2479293 41.55615234 16.14355469 C45.03948229 17.47064689 48.52291676 18.79744999 52.00714111 20.12219238 C55.28152499 21.36921006 58.55316273 22.62318935 61.82421875 23.87890625 C62.79267227 24.24619339 63.76112579 24.61348053 64.75892639 24.99189758 C82.50273743 31.82839441 82.50273743 31.82839441 86.875 37.25 C87.679375 38.2090625 87.679375 38.2090625 88.5 39.1875 C91.62478829 43.87468243 92.13009623 47.85920725 92.16210938 53.44848633 C92.16894241 54.15503357 92.17577545 54.86158081 92.18281555 55.58953857 C92.19636705 57.11942702 92.20544374 58.64936029 92.21052551 60.17930031 C92.21886767 62.61640908 92.23942923 65.05315251 92.26306152 67.49015808 C92.31120845 72.68088363 92.34409491 77.87164705 92.375 83.0625 C92.41091791 89.04611551 92.45340224 95.02955647 92.51094055 101.01300621 C92.53065603 103.38555332 92.53926093 105.75795855 92.54724121 108.13056946 C92.7131091 132.11903087 96.53521553 151.59018595 113.875 169.25 C114.54015625 169.93964844 115.2053125 170.62929687 115.890625 171.33984375 C124.50943067 179.64613548 135.53354249 184.97416039 146.5 189.5 C154.39930665 192.79959688 158.9754219 195.99863849 162.8034668 203.84375 C164.94714398 210.65819156 164.60946995 217.78873152 164.52685547 224.87451172 C164.49984998 227.64036469 164.52679244 230.40223312 164.55859375 233.16796875 C164.55529302 234.93230059 164.54889376 236.69662996 164.5390625 238.4609375 C164.54918365 239.28387299 164.55930481 240.10680847 164.56973267 240.9546814 C164.48501909 245.08399436 164.41466593 246.66555781 161.52099609 249.79931641 C158.875 251.25 158.875 251.25 155.875 251.25 C155.875 257.52 155.875 263.79 155.875 270.25 C157.855 270.91 159.835 271.57 161.875 272.25 C163.53764099 273.08689652 165.1765818 273.97246374 166.7890625 274.90234375 C168.16421021 275.68907471 168.16421021 275.68907471 169.56713867 276.49169922 C170.53498291 277.05131348 171.50282715 277.61092773 172.5 278.1875 C174.55045533 279.35604083 176.60124334 280.52399807 178.65234375 281.69140625 C181.71576961 283.44159421 184.77778133 285.19410527 187.83642578 286.95263672 C190.57216765 288.5214656 193.31625536 290.07465118 196.0625 291.625 C196.89281738 292.10702881 197.72313477 292.58905762 198.57861328 293.08569336 C199.35060059 293.51889893 200.12258789 293.95210449 200.91796875 294.3984375 C201.58852295 294.78177246 202.25907715 295.16510742 202.94995117 295.56005859 C205.37192196 296.42809784 206.4844397 296.12746431 208.875 295.25 C211.1577801 294.10033901 213.39249251 292.92641899 215.625 291.6875 C216.22699219 291.35814453 216.82898438 291.02878906 217.44921875 290.68945312 C218.92670503 289.8803535 220.40116036 289.06572338 221.875 288.25 C220.27836582 284.08550715 218.32102459 280.24802636 216.19140625 276.3359375 C212.60567727 267.93022268 211.36537003 259.90614242 211.5 250.8125 C211.51740234 249.2965625 211.51740234 249.2965625 211.53515625 247.75 C211.92029423 230.19223917 218.60189122 215.23832075 231.01953125 202.83984375 C246.66630332 188.64858536 263.99590278 185.39095363 284.35839844 186.11083984 C300.6392736 187.01112107 315.16096894 196.43709396 325.875 208.25 C339.05001654 225.40421123 341.80713336 243.76514962 339.48046875 264.8203125 C336.03238063 281.14867816 325.39033952 295.51342397 311.6875 304.6875 C303.21662829 309.94410868 294.30473155 314.51345994 285.515625 319.20703125 C280.20096222 322.05341831 275.00080178 325.03915024 269.8515625 328.17578125 C267.875 329.25 267.875 329.25 265.875 329.25 C265.875 329.91 265.875 330.57 265.875 331.25 C266.58495117 331.52005859 267.29490234 331.79011719 268.02636719 332.06835938 C270.94355898 333.27843893 273.67062571 334.66310998 276.453125 336.15625 C277.52353027 336.73012451 278.59393555 337.30399902 279.69677734 337.89526367 C285.43153549 340.99788136 291.15741557 344.11580763 296.875 347.25 C297.7609082 347.73130371 298.64681641 348.21260742 299.55957031 348.70849609 C317.46746458 358.4907658 330.75884853 370.47402849 337.875 390.25 C342.93065077 407.66583776 340.91891086 426.84997305 332.33300781 442.66992188 C323.17925376 458.47133554 309.28837752 468.18468544 291.875 473.25 C273.80652575 477.36301359 255.31272007 474.09234441 239.69140625 464.45947266 C225.67419037 455.12596627 215.72055157 440.2579121 212.26977539 423.76611328 C209.66289694 407.15109204 211.90844363 392.02667782 219.82421875 377.2734375 C220.99773131 375.14276376 220.99773131 375.14276376 221.875 372.25 C219.65545349 370.87742523 217.42664591 369.52740849 215.1875 368.1875 C214.56166016 367.79755859 213.93582031 367.40761719 213.29101562 367.00585938 C209.66102521 364.81115294 209.66102521 364.81115294 205.54492188 364.44165039 C202.28409991 365.42890181 199.58044231 366.86768166 196.60546875 368.53125 C196.01138214 368.86108887 195.41729553 369.19092773 194.8052063 369.53076172 C192.88738987 370.59755941 190.9750124 371.67372772 189.0625 372.75 C187.74994341 373.48174851 186.43703546 374.21286711 185.1237793 374.94335938 C179.56089278 378.04205017 174.01268763 381.16623971 168.4765625 384.3125 C167.36051636 384.94575195 167.36051636 384.94575195 166.22192383 385.59179688 C164.90136023 386.34359739 163.58332125 387.09985647 162.26831055 387.86132812 C158.09229001 390.25 158.09229001 390.25 155.875 390.25 C155.875 396.85 155.875 403.45 155.875 410.25 C157.855 410.58 159.835 410.91 161.875 411.25 C163.91434331 414.30901496 164.12963976 414.95987288 164.16552734 418.41088867 C164.17828705 419.24573288 164.19104675 420.08057709 164.20419312 420.9407196 C164.20753159 422.29070793 164.20753159 422.29070793 164.2109375 423.66796875 C164.2175943 424.59918045 164.2242511 425.53039215 164.23110962 426.48982239 C164.24123904 428.46267726 164.24592655 430.43556642 164.24560547 432.40844727 C164.24995858 435.40895168 164.28621914 438.40796098 164.32421875 441.40820312 C164.33009107 443.32811999 164.33405768 445.24804382 164.3359375 447.16796875 C164.35030853 448.05783981 164.36467957 448.94771088 164.37948608 449.86454773 C164.32858667 456.90070417 162.58072154 462.16235752 157.91015625 467.4921875 C157.25917969 468.03101563 156.60820312 468.56984375 155.9375 469.125 C155.28910156 469.67929687 154.64070313 470.23359375 153.97265625 470.8046875 C150.15558227 473.43470123 146.68032979 474.49928115 142.06541729 474.50726891 C141.11987883 474.5137178 140.17434038 474.52016669 139.20014924 474.526811 C138.16961436 474.5237138 137.13907949 474.5206166 136.07731628 474.51742554 C134.42553618 474.52422221 134.42553618 474.52422221 132.74038678 474.53115618 C129.04327208 474.5438362 125.346304 474.54217747 121.64916992 474.54052734 C119.00134227 474.54651034 116.35352617 474.5532586 113.70570374 474.56088257 C107.25535788 474.57748943 100.80504857 474.58299198 94.35468312 474.58410732 C89.11077683 474.58505797 83.8668826 474.58916911 78.62298012 474.59550858 C63.75190738 474.61312034 48.88086349 474.62234758 34.00978025 474.62084763 C32.80744025 474.62072776 32.80744025 474.62072776 31.58081055 474.62060547 C30.77827055 474.62052371 29.97573055 474.62044195 29.14887116 474.62035771 C16.14389255 474.61954488 3.13902977 474.63868176 -9.86591534 474.6668822 C-23.22286709 474.69561714 -36.57976237 474.70942215 -49.93674582 474.70769465 C-57.43424254 474.70703094 -64.93161783 474.71251459 -72.42908669 474.73405075 C-78.81291123 474.75227063 -85.1965593 474.75660338 -91.5803986 474.7430319 C-94.83617024 474.73650608 -98.09153346 474.73854843 -101.34728622 474.7537384 C-104.88061528 474.76915563 -108.41305567 474.75990472 -111.94636536 474.74447632 C-112.97020807 474.75476344 -113.99405078 474.76505057 -115.04891902 474.77564943 C-122.40492722 474.70468207 -127.78044485 473.18085582 -133.3671875 468.28515625 C-133.90601563 467.63417969 -134.44484375 466.98320312 -135 466.3125 C-135.55429688 465.66410156 -136.10859375 465.01570313 -136.6796875 464.34765625 C-139.53555736 460.20278567 -140.37509692 456.57559591 -140.38226891 451.58146191 C-140.3887178 450.44433669 -140.39516669 449.30721148 -140.401811 448.13562793 C-140.3987138 446.89109089 -140.3956166 445.64655386 -140.39242554 444.36430359 C-140.39616269 443.02512713 -140.40076448 441.68595285 -140.40615618 440.34678203 C-140.41839361 436.66798716 -140.41812485 432.98928319 -140.41576743 429.31047261 C-140.41535945 425.34239431 -140.42639662 421.37434522 -140.43588257 417.40628052 C-140.45249766 409.63244489 -140.45799235 401.85863959 -140.45910732 394.08478769 C-140.46005757 387.76584398 -140.46416667 381.44691028 -140.47050858 375.12796974 C-140.48812245 357.21333398 -140.49734723 339.29872218 -140.49584763 321.38407769 C-140.49576772 320.41823293 -140.4956878 319.45238817 -140.49560547 318.45727539 C-140.49552371 317.49025158 -140.49544195 316.52322777 -140.49535771 315.52690021 C-140.49454479 299.85448791 -140.51368361 284.18217172 -140.5418822 268.50978722 C-140.57060661 252.41820686 -140.58442274 236.32667337 -140.58269465 220.23506671 C-140.58203059 211.20056622 -140.58752984 202.16616648 -140.60905075 193.13168907 C-140.62725673 185.43950228 -140.63161471 177.74746189 -140.6180319 170.05526289 C-140.61149924 166.1311932 -140.61139557 162.20740444 -140.6287384 158.28336143 C-140.6444614 154.68883215 -140.64161391 151.09480671 -140.62417014 147.50028978 C-140.61964684 145.58871225 -140.63476374 143.67711916 -140.65064943 141.76560229 C-140.5872392 133.87207411 -139.64279972 128.40739967 -134.40625 122.21875 C-130.57668325 119.06103707 -126.65201569 116.22372229 -122.5 113.5 C-103.44454561 100.96289081 -86.0822645 85.11425273 -73.125 66.25 C-72.74730469 65.70601563 -72.36960937 65.16203125 -71.98046875 64.6015625 C-61.37373631 49.20583716 -53.24914188 32.13224084 -48 14.1875 C-45.64112428 6.31174351 -41.90024455 0.92646817 -35.125 -3.75 C-23.28346242 -9.34635201 -11.25415524 -4.59805525 0 0 Z M262.5 241.875 C260.29592107 246.45270239 260.0778361 250.25552411 260.875 255.25 C263.20468931 260.08858548 266.03641452 262.92031069 270.875 265.25 C275.86947589 266.0471639 279.67229761 265.82907893 284.25 263.625 C287.83407713 260.38226355 290.47035241 257.78524104 291.2578125 252.8515625 C291.51383919 247.16777006 290.81126932 243.60061345 286.875 239.25 C282.52438655 235.31373068 278.95722994 234.61116081 273.2734375 234.8671875 C268.33975896 235.65464759 265.74273645 238.29092287 262.5 241.875 Z M262.5 401.875 C260.29592107 406.45270239 260.0778361 410.25552411 260.875 415.25 C263.20468931 420.08858548 266.03641452 422.92031069 270.875 425.25 C275.86947589 426.0471639 279.67229761 425.82907893 284.25 423.625 C287.83407713 420.38226355 290.47035241 417.78524104 291.2578125 412.8515625 C291.51383919 407.16777006 290.81126932 403.60061345 286.875 399.25 C282.52438655 395.31373068 278.95722994 394.61116081 273.2734375 394.8671875 C268.33975896 395.65464759 265.74273645 398.29092287 262.5 401.875 Z " fill="#FE8964" transform="translate(156.125,21.75)"/>
<path d="M0 0 C13.64350011 10.04313203 23.36068198 25.17042745 26 42 C27.59014963 62.11283414 24.39590499 80.06798639 11.22387695 95.86303711 C0.53978768 107.83888595 -14.42456466 114.5155438 -28.359375 121.95703125 C-33.67403778 124.80341831 -38.87419822 127.78915024 -44.0234375 130.92578125 C-46 132 -46 132 -48 132 C-48 132.66 -48 133.32 -48 134 C-47.29004883 134.27005859 -46.58009766 134.54011719 -45.84863281 134.81835938 C-42.93144102 136.02843893 -40.20437429 137.41310998 -37.421875 138.90625 C-36.35146973 139.48012451 -35.28106445 140.05399902 -34.17822266 140.64526367 C-28.44346451 143.74788136 -22.71758443 146.86580763 -17 150 C-16.1140918 150.48130371 -15.22818359 150.96260742 -14.31542969 151.45849609 C3.59246458 161.2407658 16.88384853 173.22402849 24 193 C29.05565077 210.41583776 27.04391086 229.59997305 18.45800781 245.41992188 C9.30425376 261.22133554 -4.58662248 270.93468544 -22 276 C-40.06847425 280.11301359 -58.56227993 276.84234441 -74.18359375 267.20947266 C-88.20080963 257.87596627 -98.15444843 243.0079121 -101.60522461 226.51611328 C-104.21210306 209.90109204 -101.96655637 194.77667782 -94.05078125 180.0234375 C-92.87726869 177.89276376 -92.87726869 177.89276376 -92 175 C-94.21954651 173.62742523 -96.44835409 172.27740849 -98.6875 170.9375 C-99.31333984 170.54755859 -99.93917969 170.15761719 -100.58398438 169.75585938 C-104.21397479 167.56115294 -104.21397479 167.56115294 -108.33007812 167.19165039 C-111.59090009 168.17890181 -114.29455769 169.61768166 -117.26953125 171.28125 C-117.8629834 171.61072632 -118.45643555 171.94020264 -119.06787109 172.27966309 C-120.98634279 173.34680201 -122.89935791 174.42334072 -124.8125 175.5 C-126.13531541 176.23759895 -127.45847769 176.97457615 -128.78198242 177.7109375 C-134.84901775 181.09104858 -140.8973307 184.50387138 -146.93603516 187.93432617 C-147.55526855 188.28599854 -148.17450195 188.6376709 -148.8125 189 C-149.42786621 189.34973877 -150.04323242 189.69947754 -150.67724609 190.05981445 C-155.48565935 192.76802353 -160.39801397 195.20776548 -165.35717773 197.62207031 C-173.0970988 201.44669982 -180.56705547 205.76703389 -188.04467773 210.0769043 C-201.57721245 217.78996521 -214.53507226 222.58455255 -230.296875 219.31640625 C-242.59468287 215.47732374 -253.58701608 208.37537275 -260.5625 197.3125 C-262.13993163 193.67754885 -262.90703107 191.87549639 -262 188 C-256.39123406 182.4304562 -249.97205361 179.0574367 -243 175.4375 C-240.65126134 174.19599333 -238.30351827 172.9527714 -235.95703125 171.70703125 C-235.36710892 171.39481628 -234.77718658 171.08260132 -234.16938782 170.76092529 C-228.61749711 167.81571819 -223.14594401 164.73904376 -217.6875 161.625 C-207.48471549 155.81560783 -197.21778552 150.12852215 -186.93237305 144.46728516 C-186.34439438 144.14361969 -185.75641571 143.81995422 -185.15061951 143.48648071 C-183.46200558 142.55762213 -181.77251917 141.63035023 -180.08300781 140.703125 C-178.12308922 139.62042052 -176.16861258 138.52776026 -174.22167969 137.421875 C-173.41375977 136.96296875 -172.60583984 136.5040625 -171.7734375 136.03125 C-170.73968994 135.43666992 -170.73968994 135.43666992 -169.68505859 134.83007812 C-168 134 -168 134 -166 134 C-166 133.34 -166 132.68 -166 132 C-167.3135144 131.59624146 -167.3135144 131.59624146 -168.65356445 131.18432617 C-171.85556753 130.05111563 -174.5881836 128.71456363 -177.54296875 127.05078125 C-178.60257812 126.4578125 -179.6621875 125.86484375 -180.75390625 125.25390625 C-181.88699219 124.61324219 -183.02007812 123.97257813 -184.1875 123.3125 C-185.39031903 122.63747533 -186.59345002 121.96300629 -187.796875 121.2890625 C-190.2946693 119.88967866 -192.79110956 118.487923 -195.28662109 117.08447266 C-199.90723882 114.48799669 -204.54104324 111.91540792 -209.17578125 109.34423828 C-211.39402792 108.11358057 -213.61147526 106.88148098 -215.828125 105.64794922 C-221.06052829 102.73639459 -226.29692285 99.83284487 -231.54916382 96.95724487 C-234.00632656 95.6113166 -236.46101034 94.26090205 -238.91552734 92.91015625 C-240.63140134 91.9682932 -242.35080184 91.03286355 -244.0703125 90.09765625 C-260.04597565 81.29833138 -260.04597565 81.29833138 -262.375 75.6875 C-261.55725075 67.64629909 -255.04686753 61.00098786 -249 56 C-238.64374163 48.50747221 -227.12095897 44.53274241 -214.23950195 45.62963867 C-204.40518549 47.25600497 -195.7812023 51.31939529 -187.1875 56.1875 C-186.14851563 56.76266357 -185.10953125 57.33782715 -184.0390625 57.93041992 C-181.01819078 59.60673233 -178.00716286 61.29924031 -175 63 C-174.21061035 63.44633789 -173.4212207 63.89267578 -172.60791016 64.35253906 C-167.08714775 67.47825562 -167.08714775 67.47825562 -164.57910156 68.90600586 C-160.26810717 71.34195187 -155.88665633 73.57848826 -151.4375 75.75 C-142.59364088 80.071013 -134.0846376 84.96719054 -125.54296875 89.8515625 C-124.63466309 90.3662207 -123.72635742 90.88087891 -122.79052734 91.41113281 C-120.85028621 92.51586503 -118.91888031 93.63620074 -116.99462891 94.76855469 C-116.02315918 95.32704102 -115.05168945 95.88552734 -114.05078125 96.4609375 C-113.17719971 96.97188965 -112.30361816 97.4828418 -111.40356445 98.00927734 C-108.64976482 99.14436307 -107.71652515 99.09511788 -105 98 C-102.7172199 96.85033901 -100.48250749 95.67641899 -98.25 94.4375 C-97.64800781 94.10814453 -97.04601562 93.77878906 -96.42578125 93.43945312 C-94.94829497 92.6303535 -93.47383964 91.81572338 -92 91 C-93.59663418 86.83550715 -95.55397541 82.99802636 -97.68359375 79.0859375 C-101.26932273 70.68022268 -102.50962997 62.65614242 -102.375 53.5625 C-102.35759766 52.0465625 -102.35759766 52.0465625 -102.33984375 50.5 C-101.95470577 32.94223917 -95.27310878 17.98832075 -82.85546875 5.58984375 C-59.83598064 -15.28829663 -25.59788342 -17.04461216 0 0 Z M-51.375 44.625 C-53.57907893 49.20270239 -53.7971639 53.00552411 -53 58 C-50.67031069 62.83858548 -47.83858548 65.67031069 -43 68 C-38.00552411 68.7971639 -34.20270239 68.57907893 -29.625 66.375 C-26.04092287 63.13226355 -23.40464759 60.53524104 -22.6171875 55.6015625 C-22.36116081 49.91777006 -23.06373068 46.35061345 -27 42 C-31.35061345 38.06373068 -34.91777006 37.36116081 -40.6015625 37.6171875 C-45.53524104 38.40464759 -48.13226355 41.04092287 -51.375 44.625 Z M-51.375 204.625 C-53.57907893 209.20270239 -53.7971639 213.00552411 -53 218 C-50.67031069 222.83858548 -47.83858548 225.67031069 -43 228 C-38.00552411 228.7971639 -34.20270239 228.57907893 -29.625 226.375 C-26.04092287 223.13226355 -23.40464759 220.53524104 -22.6171875 215.6015625 C-22.36116081 209.91777006 -23.06373068 206.35061345 -27 202 C-31.35061345 198.06373068 -34.91777006 197.36116081 -40.6015625 197.6171875 C-45.53524104 198.40464759 -48.13226355 201.04092287 -51.375 204.625 Z " fill="#020101" transform="translate(470,219)"/>
<path d="M0 0 C1.56261338 0.61819696 3.12620579 1.23392388 4.69067383 1.84741211 C8.1478243 3.20544346 11.60001719 4.5752883 15.05029297 5.95068359 C21.51138708 8.51453466 28.00646445 10.98705357 34.50390625 13.45703125 C36.85469975 14.35242144 39.20544844 15.2479293 41.55615234 16.14355469 C45.03948229 17.47064689 48.52291676 18.79744999 52.00714111 20.12219238 C55.28152499 21.36921006 58.55316273 22.62318935 61.82421875 23.87890625 C62.79267227 24.24619339 63.76112579 24.61348053 64.75892639 24.99189758 C82.50273743 31.82839441 82.50273743 31.82839441 86.875 37.25 C87.679375 38.2090625 87.679375 38.2090625 88.5 39.1875 C91.62478829 43.87468243 92.13009623 47.85920725 92.16210938 53.44848633 C92.16894241 54.15503357 92.17577545 54.86158081 92.18281555 55.58953857 C92.19636705 57.11942702 92.20544374 58.64936029 92.21052551 60.17930031 C92.21886767 62.61640908 92.23942923 65.05315251 92.26306152 67.49015808 C92.31120845 72.68088363 92.34409491 77.87164705 92.375 83.0625 C92.41091791 89.04611551 92.45340224 95.02955647 92.51094055 101.01300621 C92.53065603 103.38555332 92.53926093 105.75795855 92.54724121 108.13056946 C92.7131091 132.11903087 96.53521553 151.59018595 113.875 169.25 C114.54015625 169.93964844 115.2053125 170.62929687 115.890625 171.33984375 C124.50943067 179.64613548 135.53354249 184.97416039 146.5 189.5 C154.39930665 192.79959688 158.9754219 195.99863849 162.8034668 203.84375 C164.94714398 210.65819156 164.60946995 217.78873152 164.52685547 224.87451172 C164.49984998 227.64036469 164.52679244 230.40223312 164.55859375 233.16796875 C164.55529302 234.93230059 164.54889376 236.69662996 164.5390625 238.4609375 C164.54918365 239.28387299 164.55930481 240.10680847 164.56973267 240.9546814 C164.48554502 245.05835842 164.40764833 246.66530939 161.55615234 249.79541016 C158.875 251.25 158.875 251.25 155.3125 251.3125 C151.13002443 250.01973482 150.1645155 248.93472751 147.875 245.25 C147.51163935 242.51946238 147.36258888 240.18548719 147.40625 237.46484375 C147.39920044 236.72673965 147.39215088 235.98863556 147.3848877 235.22816467 C147.36291617 232.88092024 147.36584491 230.53481681 147.375 228.1875 C147.38704663 225.09183252 147.37335337 221.99786226 147.34375 218.90234375 C147.35506958 218.19496567 147.36638916 217.48758759 147.37805176 216.7587738 C147.34418799 213.45457697 147.12853311 211.58916513 145.12646484 208.91088867 C142.91769684 207.28149714 140.89683035 206.11545907 138.3828125 205.0234375 C137.51970459 204.63679932 136.65659668 204.25016113 135.76733398 203.85180664 C134.85411377 203.44696045 133.94089355 203.04211426 133 202.625 C123.80436386 198.38503934 115.68688294 193.68817803 107.875 187.25 C107.07328369 186.59064453 107.07328369 186.59064453 106.25537109 185.91796875 C89.69566194 172.05077339 78.11241879 152.54235871 75.59708786 130.85367584 C75.25089053 125.93661833 75.23576762 121.02503516 75.28341484 116.09785843 C75.30934788 113.39805288 75.3038786 110.69973478 75.29151917 107.99984741 C75.27104679 102.29139109 75.29036733 96.58342378 75.3125 90.875 C75.33366966 84.2030752 75.33822085 77.53163641 75.31199837 70.85972214 C75.30864526 68.20484545 75.32980548 65.5509132 75.35240173 62.89614868 C75.34989208 61.27662958 75.34633366 59.65711165 75.34155273 58.03759766 C75.35443832 57.30414627 75.36732391 56.57069489 75.38059998 55.8150177 C75.34772481 52.48247071 75.1300272 50.59378149 73.12042236 47.88479614 C70.91532938 46.2793621 69.03234024 45.25204784 66.48168945 44.30566406 C65.61185928 43.97666611 64.74202911 43.64766815 63.84584045 43.30870056 C62.90284592 42.96448563 61.95985138 42.62027069 60.98828125 42.265625 C59.99424789 41.89244644 59.00021454 41.51926788 57.97605896 41.13478088 C54.71682624 39.91324055 51.45229813 38.70657779 48.1875 37.5 C43.64546074 35.80524676 39.10597495 34.10370159 34.56640625 32.40234375 C33.4202182 31.97398727 32.27403015 31.5456308 31.09310913 31.10429382 C23.58268345 28.29057545 16.10639698 25.40106679 8.65234375 22.44140625 C7.70736526 22.0671048 6.76238678 21.69280334 5.78877258 21.30715942 C2.18905345 19.87992577 -1.41000583 18.45147112 -5.0015564 17.00378418 C-7.44037319 16.02115284 -9.88370819 15.0506289 -12.328125 14.08203125 C-13.03530167 13.79235977 -13.74247833 13.50268829 -14.47108459 13.20423889 C-18.49896694 11.62127889 -21.79790496 10.81800849 -26.125 11.25 C-30.91419016 14.33368719 -31.82326392 19.70764469 -33.375 24.875 C-48.10929319 71.08891147 -79.62675382 105.77789946 -119.1640625 132.83984375 C-121.22307065 134.24057361 -121.22307065 134.24057361 -123.125 136.25 C-123.33017351 138.72021199 -123.41013523 141.07970613 -123.4034729 143.55178833 C-123.4092653 144.31303792 -123.4150577 145.07428751 -123.42102563 145.85860527 C-123.43810228 148.42286894 -123.44090867 150.98695348 -123.44384766 153.55126953 C-123.45314056 155.38405808 -123.46330826 157.21684237 -123.47428894 159.04962158 C-123.50167499 164.03693834 -123.51676375 169.02422673 -123.52971697 174.01159906 C-123.54530999 179.21934434 -123.57211232 184.42703133 -123.5977478 189.63473511 C-123.6446036 199.50153514 -123.68131472 209.36834606 -123.71442068 219.23520076 C-123.75259411 230.46602467 -123.80201672 241.69679014 -123.85240483 252.92756486 C-123.9558258 276.03499997 -124.04505305 299.1424726 -124.125 322.25 C-123.43865479 322.23404785 -122.75230957 322.2180957 -122.04516602 322.20166016 C-121.14467529 322.18925293 -120.24418457 322.1768457 -119.31640625 322.1640625 C-118.42381104 322.14811035 -117.53121582 322.1321582 -116.61157227 322.11572266 C-113.41852994 322.28815008 -111.56267389 323.20549932 -109.125 325.25 C-107.72042263 328.05915474 -107.87604843 330.13810534 -108.125 333.25 C-109.90484405 336.3859157 -110.64808207 337.09102736 -114.125 338.25 C-115.85295352 338.31802967 -117.58335365 338.33495645 -119.3125 338.3125 C-120.21355469 338.30347656 -121.11460938 338.29445313 -122.04296875 338.28515625 C-123.07357422 338.26775391 -123.07357422 338.26775391 -124.125 338.25 C-124.0411192 353.04476054 -123.94599294 367.83941301 -123.83747292 382.63401413 C-123.78734765 389.50338259 -123.74090476 396.37273913 -123.703125 403.2421875 C-123.66667052 409.86878319 -123.61996178 416.49525498 -123.56693649 423.12174225 C-123.54837176 425.65271994 -123.53327154 428.18372544 -123.52165604 430.71474457 C-123.50482939 434.25365031 -123.47580245 437.79225779 -123.44384766 441.33105469 C-123.44168747 442.38265778 -123.43952728 443.43426086 -123.43730164 444.51773071 C-123.42613815 445.48244293 -123.41497467 446.44715515 -123.4034729 447.44110107 C-123.39794214 448.2780891 -123.39241138 449.11507713 -123.38671303 449.97742844 C-123.09666059 452.4960838 -122.47043949 454.10969796 -121.125 456.25 C-118.78508394 457.41995803 -117.42121781 457.3763094 -114.81394386 457.37863445 C-113.90326232 457.3818589 -112.99258077 457.38508335 -112.05430281 457.3884055 C-111.04731947 457.3868569 -110.04033612 457.3853083 -109.00283813 457.38371277 C-107.93814438 457.38597833 -106.87345063 457.38824388 -105.77649343 457.39057809 C-102.18513193 457.39694185 -98.59380794 457.39608721 -95.00244141 457.39526367 C-92.4372401 457.39825369 -89.87203925 457.40165584 -87.30683899 457.40544128 C-81.0479292 457.41338004 -74.78903331 457.41649664 -68.53011896 457.41705366 C-63.44390988 457.41752831 -58.35770391 457.41958049 -53.27149582 457.42275429 C-38.86047827 457.43156415 -24.44946819 457.43617317 -10.03844793 457.43542381 C-8.87231171 457.43536388 -8.87231171 457.43536388 -7.68261719 457.43530273 C-6.90424698 457.43526185 -6.12587677 457.43522097 -5.32391958 457.43517885 C7.29269021 457.43477234 19.90927016 457.44434225 32.52587132 457.4584411 C45.47137815 457.47279368 58.41687041 457.47971189 71.36238539 457.47884732 C78.63396121 457.47851495 85.90550576 457.48127945 93.17707443 457.49202538 C100.01419738 457.50206426 106.85125313 457.50180646 113.68837929 457.49450874 C116.2022912 457.49345911 118.71620716 457.49584809 121.23011208 457.5018692 C124.65311063 457.50953865 128.0758776 457.50497783 131.49887085 457.49723816 C133.0026537 457.5049535 133.0026537 457.5049535 134.536816 457.51282471 C135.91066156 457.50592652 135.91066156 457.50592652 137.31226158 457.49888897 C138.1025146 457.49910634 138.89276763 457.49932371 139.70696771 457.49954766 C142.20102544 457.2124734 143.780271 456.63123342 145.875 455.25 C147.13021406 451.48435783 147.01044759 447.96115283 147.015625 444.0390625 C147.03395096 442.38540287 147.05352108 440.73175665 147.07421875 439.078125 C147.10319298 436.47535527 147.12500029 433.87344936 147.12548828 431.27050781 C147.12882692 428.7550829 147.1633929 426.24164221 147.203125 423.7265625 C147.1960553 422.95245026 147.1889856 422.17833801 147.18170166 421.38076782 C147.2716814 417.37545492 147.71416434 415.45766423 150.19433594 412.25537109 C152.875 410.25 152.875 410.25 156.4375 409.6875 C159.875 410.25 159.875 410.25 162.05664062 411.69042969 C164.80533154 415.55955907 164.44822102 419.12720122 164.40625 423.765625 C164.4100769 424.69542175 164.41390381 425.62521851 164.41784668 426.58319092 C164.42056676 428.55010053 164.41319882 430.51704625 164.39648438 432.48388672 C164.3751726 435.47576986 164.39623236 438.46522514 164.421875 441.45703125 C164.41922985 443.37240109 164.414101 445.28776943 164.40625 447.203125 C164.41434692 448.08985901 164.42244385 448.97659302 164.43078613 449.89019775 C164.32653383 456.89658563 162.56240723 462.18325696 157.91015625 467.4921875 C157.25917969 468.03101563 156.60820312 468.56984375 155.9375 469.125 C155.28910156 469.67929687 154.64070313 470.23359375 153.97265625 470.8046875 C150.15558227 473.43470123 146.68032979 474.49928115 142.06541729 474.50726891 C141.11987883 474.5137178 140.17434038 474.52016669 139.20014924 474.526811 C138.16961436 474.5237138 137.13907949 474.5206166 136.07731628 474.51742554 C134.42553618 474.52422221 134.42553618 474.52422221 132.74038678 474.53115618 C129.04327208 474.5438362 125.346304 474.54217747 121.64916992 474.54052734 C119.00134227 474.54651034 116.35352617 474.5532586 113.70570374 474.56088257 C107.25535788 474.57748943 100.80504857 474.58299198 94.35468312 474.58410732 C89.11077683 474.58505797 83.8668826 474.58916911 78.62298012 474.59550858 C63.75190738 474.61312034 48.88086349 474.62234758 34.00978025 474.62084763 C32.80744025 474.62072776 32.80744025 474.62072776 31.58081055 474.62060547 C30.77827055 474.62052371 29.97573055 474.62044195 29.14887116 474.62035771 C16.14389255 474.61954488 3.13902977 474.63868176 -9.86591534 474.6668822 C-23.22286709 474.69561714 -36.57976237 474.70942215 -49.93674582 474.70769465 C-57.43424254 474.70703094 -64.93161783 474.71251459 -72.42908669 474.73405075 C-78.81291123 474.75227063 -85.1965593 474.75660338 -91.5803986 474.7430319 C-94.83617024 474.73650608 -98.09153346 474.73854843 -101.34728622 474.7537384 C-104.88061528 474.76915563 -108.41305567 474.75990472 -111.94636536 474.74447632 C-112.97020807 474.75476344 -113.99405078 474.76505057 -115.04891902 474.77564943 C-122.40492722 474.70468207 -127.78044485 473.18085582 -133.3671875 468.28515625 C-133.90601563 467.63417969 -134.44484375 466.98320312 -135 466.3125 C-135.55429688 465.66410156 -136.10859375 465.01570313 -136.6796875 464.34765625 C-139.53555736 460.20278567 -140.37509692 456.57559591 -140.38226891 451.58146191 C-140.3887178 450.44433669 -140.39516669 449.30721148 -140.401811 448.13562793 C-140.3987138 446.89109089 -140.3956166 445.64655386 -140.39242554 444.36430359 C-140.39616269 443.02512713 -140.40076448 441.68595285 -140.40615618 440.34678203 C-140.41839361 436.66798716 -140.41812485 432.98928319 -140.41576743 429.31047261 C-140.41535945 425.34239431 -140.42639662 421.37434522 -140.43588257 417.40628052 C-140.45249766 409.63244489 -140.45799235 401.85863959 -140.45910732 394.08478769 C-140.46005757 387.76584398 -140.46416667 381.44691028 -140.47050858 375.12796974 C-140.48812245 357.21333398 -140.49734723 339.29872218 -140.49584763 321.38407769 C-140.49576772 320.41823293 -140.4956878 319.45238817 -140.49560547 318.45727539 C-140.49552371 317.49025158 -140.49544195 316.52322777 -140.49535771 315.52690021 C-140.49454479 299.85448791 -140.51368361 284.18217172 -140.5418822 268.50978722 C-140.57060661 252.41820686 -140.58442274 236.32667337 -140.58269465 220.23506671 C-140.58203059 211.20056622 -140.58752984 202.16616648 -140.60905075 193.13168907 C-140.62725673 185.43950228 -140.63161471 177.74746189 -140.6180319 170.05526289 C-140.61149924 166.1311932 -140.61139557 162.20740444 -140.6287384 158.28336143 C-140.6444614 154.68883215 -140.64161391 151.09480671 -140.62417014 147.50028978 C-140.61964684 145.58871225 -140.63476374 143.67711916 -140.65064943 141.76560229 C-140.5872392 133.87207411 -139.64279972 128.40739967 -134.40625 122.21875 C-130.57668325 119.06103707 -126.65201569 116.22372229 -122.5 113.5 C-103.44454561 100.96289081 -86.0822645 85.11425273 -73.125 66.25 C-72.74730469 65.70601563 -72.36960937 65.16203125 -71.98046875 64.6015625 C-61.37373631 49.20583716 -53.24914188 32.13224084 -48 14.1875 C-45.64112428 6.31174351 -41.90024455 0.92646817 -35.125 -3.75 C-23.28346242 -9.34635201 -11.25415524 -4.59805525 0 0 Z " fill="#000000" transform="translate(156.125,21.75)"/>
<path d="M0 0 C1.27032817 0.7088659 2.54100625 1.41710507 3.81201172 2.12475586 C6.41800851 3.5768313 9.02206873 5.03228789 11.62451172 6.49072266 C16.32080071 9.12158913 21.02855161 11.73159198 25.73608398 14.34228516 C29.0778904 16.1960373 32.41810524 18.05262525 35.7578125 19.91015625 C42.48311803 23.65070151 49.21017713 27.38808441 55.9375 31.125 C58.18750768 32.37498618 60.43750768 33.62498618 62.6875 34.875 C63.80125 35.49375 64.915 36.1125 66.0625 36.75 C78.4375 43.625 90.8125 50.5 103.1875 57.375 C104.30141113 57.99383057 105.41532227 58.61266113 106.56298828 59.25024414 C108.81139139 60.49937505 111.05976382 61.74856119 113.30810547 62.99780273 C120.09369564 66.76795721 126.88028403 70.53630374 133.66821289 74.30224609 C135.91841232 75.55205117 138.16761148 76.80365899 140.41577148 78.05712891 C146.0398389 81.19225959 151.67551067 84.30141458 157.33984375 87.36328125 C159.01796143 88.27968384 159.01796143 88.27968384 160.72998047 89.21459961 C162.8285682 90.36040908 164.93264733 91.49624978 167.04345703 92.61938477 C181.10889611 100.34411917 190.7604014 110.9322535 196.6875 125.75 C199.28798618 139.18584529 197.30076868 153.19880053 190.27734375 164.99609375 C182.70283475 175.81911829 172.3441752 182.98442779 159.4375 186.0625 C144.22909053 188.28507544 131.91711912 185.62569774 119.4375 176.625 C110.6985809 169.66543388 103.79474715 158.93774354 101.6484375 147.80078125 C100.2619175 133.49908424 102.48377664 121.68387089 110.4375 109.625 C111.69894761 108.1609102 112.98949235 106.72120855 114.3125 105.3125 C116.6757875 102.7500885 117.38193939 101.88765017 118.125 98.375 C117.11474174 94.33396697 114.70441228 92.43388999 111.24951172 90.22802734 C110.07026123 89.60081787 110.07026123 89.60081787 108.8671875 88.9609375 C107.9805542 88.48414551 107.0939209 88.00735352 106.18041992 87.51611328 C105.23400635 87.0157959 104.28759277 86.51547852 103.3125 86 C101.30567366 84.92246317 99.29916709 83.8443306 97.29296875 82.765625 C96.29700684 82.23259766 95.30104492 81.69957031 94.27490234 81.15039062 C90.37179584 79.05207627 86.4952756 76.90812125 82.625 74.75 C81.91061768 74.35240479 81.19623535 73.95480957 80.46020508 73.54516602 C73.06722982 69.42646508 65.68730006 65.28439737 58.30493164 61.14672852 C47.16759257 54.90757392 36.00702448 48.71047002 24.84472656 42.51611328 C20.3313858 40.01107333 15.81908036 37.50417226 11.30688477 34.99707031 C9.06267346 33.75015978 6.81837023 32.50341468 4.57397461 31.25683594 C-1.11491172 28.09703104 -6.80263246 24.93515841 -12.48828125 21.76953125 C-26.47543919 13.98485023 -40.49345035 6.26075704 -54.5625 -1.375 C-52.89051861 -6.39094416 -48.07872668 -8.01900133 -43.5625 -10.375 C-27.50414244 -16.79834302 -13.77387785 -7.75503852 0 0 Z M136.0625 130.25 C133.85842107 134.82770239 133.6403361 138.63052411 134.4375 143.625 C136.76718931 148.46358548 139.59891452 151.29531069 144.4375 153.625 C149.43197589 154.4221639 153.23479761 154.20407893 157.8125 152 C161.39657713 148.75726355 164.03285241 146.16024104 164.8203125 141.2265625 C165.07633919 135.54277006 164.37376932 131.97561345 160.4375 127.625 C156.08688655 123.68873068 152.51972994 122.98616081 146.8359375 123.2421875 C141.90225896 124.02964759 139.30523645 126.66592287 136.0625 130.25 Z " fill="#EBEBEB" transform="translate(282.5625,293.375)"/>
<path d="M0 0 C4.08121938 1.47715065 8.15587458 2.97084424 12.2253418 4.47998047 C13.60973493 4.99072745 14.99580079 5.49696455 16.38354492 5.99853516 C18.38139442 6.72151187 20.37260897 7.46064965 22.36328125 8.203125 C23.56251221 8.64301758 24.76174316 9.08291016 25.99731445 9.53613281 C29.19608162 11.09559358 30.47215351 11.81118602 32 15 C32.27313887 17.66064122 32.37675777 20.08307382 32.3371582 22.73999023 C32.3377121 23.51638855 32.33826599 24.29278687 32.33883667 25.0927124 C32.33857688 26.77925833 32.33170028 28.46581324 32.31899452 30.15231133 C32.30054644 32.84283899 32.3033116 35.53259092 32.3120575 38.22315979 C32.33379087 45.87358406 32.32346281 53.52371773 32.28491211 61.17407227 C32.14529636 92.60918696 32.96783797 119.86768848 56 144 C67.33479689 154.96646345 80.27087689 162.53952283 94.64111328 168.85595703 C95.81262939 169.38358643 95.81262939 169.38358643 97.0078125 169.921875 C97.70535645 170.22706055 98.40290039 170.53224609 99.12158203 170.84667969 C101.55429628 172.34032956 102.63137715 173.47219985 104 176 C104.26543644 178.62848157 104.37041633 181.02849727 104.3359375 183.65234375 C104.34844867 185.16601992 104.36148574 186.67969182 104.375 188.19335938 C104.37892994 190.56778087 104.37497364 192.94178071 104.36035156 195.31616211 C104.35176252 197.61635672 104.37348874 199.91480301 104.3984375 202.21484375 C104.38509369 202.9201976 104.37174988 203.62555145 104.35800171 204.35227966 C104.41647375 208.27046791 104.88473489 209.8602985 107.41259766 212.92407227 C109.79617723 214.9859683 109.79617723 214.9859683 112 216 C112 222.27 112 228.54 112 235 C102.36714251 230.3211835 92.95344954 225.38643525 83.625 220.125 C82.10024048 219.26805542 82.10024048 219.26805542 80.54467773 218.39379883 C79.59407471 217.85392334 78.64347168 217.31404785 77.6640625 216.7578125 C76.81279785 216.2745752 75.9615332 215.79133789 75.08447266 215.29345703 C73 214 73 214 71 212 C70.86474609 210.12060547 70.86474609 210.12060547 71.0234375 207.8671875 C71.10078125 206.65869141 71.10078125 206.65869141 71.1796875 205.42578125 C71.24414062 204.58402344 71.30859375 203.74226562 71.375 202.875 C71.46007812 201.60076172 71.46007812 201.60076172 71.546875 200.30078125 C71.68850977 198.1998655 71.84304326 196.09982666 72 194 C71.30519531 193.73832031 70.61039062 193.47664062 69.89453125 193.20703125 C41.28880164 181.27832619 19.04767155 156.06038087 7.12792969 127.94287109 C0.38608872 110.82863423 -0.43063663 93.92752209 -0.29296875 75.78125 C-0.28736002 73.58451632 -0.28309597 71.38777884 -0.28010559 69.19104004 C-0.26875729 63.46349369 -0.23937849 57.73618265 -0.20599365 52.00872803 C-0.17507456 46.14256979 -0.16155399 40.27637282 -0.14648438 34.41015625 C-0.11449743 22.94000189 -0.06342511 11.47002066 0 0 Z " fill="#FE6F42" transform="translate(200,57)"/>
<path d="M0 0 C12.94346416 -0.55980907 24.52681221 4.0782909 34.4765625 12.17578125 C43.17183345 20.18188232 49.37085398 31.09699503 50.44140625 42.97265625 C50.59415663 58.2171442 46.76563619 70.97977042 36.54296875 82.62109375 C29.81801741 88.99034518 21.44333051 93.08371673 13.36425781 97.47314453 C9.74524252 99.44207539 6.13930806 101.43372839 2.53515625 103.4296875 C-1.31813932 105.56259025 -5.17207511 107.69422098 -9.03222656 109.81469727 C-9.92935364 110.30801292 -9.92935364 110.30801292 -10.84460449 110.81129456 C-12.5464589 111.74496964 -14.2512079 112.67336262 -15.95605469 113.6015625 C-18.34778938 114.94010727 -20.63242984 116.35618228 -22.93359375 117.83984375 C-25.89453125 119.24609375 -25.89453125 119.24609375 -28.27563477 118.49658203 C-30.8181416 117.28256879 -33.29420177 116.01143785 -35.7578125 114.64453125 C-36.64404297 114.1546875 -37.53027344 113.66484375 -38.44335938 113.16015625 C-39.81137695 112.39832031 -39.81137695 112.39832031 -41.20703125 111.62109375 C-42.13837891 111.10546875 -43.06972656 110.58984375 -44.02929688 110.05859375 C-46.31916594 108.79035858 -48.6075084 107.51945213 -50.89453125 106.24609375 C-50.89453125 105.58609375 -50.89453125 104.92609375 -50.89453125 104.24609375 C-50.32943848 103.95887451 -49.7643457 103.67165527 -49.18212891 103.37573242 C-46.6237461 102.06969932 -44.0716503 100.75182191 -41.51953125 99.43359375 C-40.63007813 98.98177734 -39.740625 98.52996094 -38.82421875 98.06445312 C-37.9734375 97.62294922 -37.12265625 97.18144531 -36.24609375 96.7265625 C-35.46057129 96.32332764 -34.67504883 95.92009277 -33.86572266 95.50463867 C-31.60425054 94.24703277 -31.60425054 94.24703277 -29.89453125 91.24609375 C-29.38453554 87.47006492 -29.50534847 85.81163823 -31.6875 82.640625 C-32.47769531 81.78855469 -33.26789063 80.93648438 -34.08203125 80.05859375 C-38.62866179 74.79708419 -41.51047348 69.75717591 -43.89453125 63.24609375 C-44.13945312 62.59382813 -44.384375 61.9415625 -44.63671875 61.26953125 C-48.43696015 49.03587744 -45.86815455 35.88130491 -40.33203125 24.68359375 C-33.73565707 13.35011753 -23.62570929 5.21876869 -11.04296875 1.375 C-7.36967983 0.60752609 -3.73368553 0.31743885 0 0 Z M-11.26953125 39.87109375 C-13.47361018 44.44879614 -13.69169515 48.25161786 -12.89453125 53.24609375 C-10.56484194 58.08467923 -7.73311673 60.91640444 -2.89453125 63.24609375 C2.09994464 64.04325765 5.90276636 63.82517268 10.48046875 61.62109375 C14.06454588 58.3783573 16.70082116 55.78133479 17.48828125 50.84765625 C17.74430794 45.16386381 17.04173807 41.5967072 13.10546875 37.24609375 C8.7548553 33.30982443 5.18769869 32.60725456 -0.49609375 32.86328125 C-5.42977229 33.65074134 -8.0267948 36.28701662 -11.26953125 39.87109375 Z " fill="#DDDDDD" transform="translate(429.89453125,223.75390625)"/>
<path d="M0 0 C0 6.6 0 13.2 0 20 C-1.98 20.99 -3.96 21.98 -6 23 C-7.58906464 26.17812927 -7.17838637 29.62103872 -7.2109375 33.11328125 C-7.23901144 34.77019208 -7.26767594 36.42709299 -7.296875 38.08398438 C-7.33809852 40.69750638 -7.37498329 43.31084424 -7.40136719 45.92456055 C-7.42903286 48.44619081 -7.47490896 50.96697759 -7.5234375 53.48828125 C-7.52669037 54.26553055 -7.52994324 55.04277985 -7.53329468 55.84358215 C-7.63538541 60.36644968 -8.10270128 63.4511291 -11 67 C-13.81530759 67.93843586 -15.52185813 68.12683006 -18.43410397 68.13142776 C-19.34677656 68.13526891 -20.25944916 68.13911005 -21.1997785 68.1430676 C-22.203849 68.14220112 -23.2079195 68.14133463 -24.24241638 68.14044189 C-25.84073865 68.14489858 -25.84073865 68.14489858 -27.47135025 68.1494453 C-31.05960268 68.15815146 -34.64782182 68.15964215 -38.23608398 68.16113281 C-40.80143302 68.16575955 -43.36678137 68.17078401 -45.93212891 68.17617798 C-52.91340241 68.18931603 -59.89466491 68.1957859 -66.87594867 68.20018864 C-71.23342749 68.20295034 -75.5909041 68.20718751 -79.94838142 68.21169281 C-92.00880894 68.22388457 -104.06923469 68.23418474 -116.12966824 68.2375679 C-116.90160316 68.23778747 -117.67353809 68.23800703 -118.46886498 68.23823325 C-119.62955791 68.23856067 -119.62955791 68.23856067 -120.81369919 68.2388947 C-122.38174021 68.23933817 -123.94978124 68.23978473 -125.51782227 68.24023438 C-126.68452933 68.24056652 -126.68452933 68.24056652 -127.87480623 68.24090537 C-140.48489977 68.24485546 -153.0949356 68.2623163 -165.70500683 68.2855939 C-178.64602544 68.30929002 -191.58701506 68.32176892 -204.52805573 68.32293582 C-211.79628236 68.32385345 -219.06443375 68.32962801 -226.33263969 68.34775543 C-233.16569414 68.36473739 -239.99860334 68.36642212 -246.83167267 68.35761642 C-249.34397577 68.35684274 -251.85628638 68.36123198 -254.36857033 68.37107468 C-257.78941993 68.38369444 -261.20975474 68.37797165 -264.63059998 68.36749268 C-265.63243976 68.37554908 -266.63427954 68.38360548 -267.6664781 68.39190602 C-268.58175844 68.38531618 -269.49703878 68.37872633 -270.44005489 68.3719368 C-271.22976584 68.37253389 -272.01947679 68.37313097 -272.83311838 68.37374616 C-275.59852965 67.89676494 -276.96417076 66.90612113 -279 65 C-280.00496852 61.98509443 -280.10335303 59.95818308 -280.0625 56.8125 C-280.05347656 55.91144531 -280.04445313 55.01039063 -280.03515625 54.08203125 C-280.02355469 53.39496094 -280.01195312 52.70789063 -280 52 C-278.91147295 51.99761165 -277.8229459 51.99522329 -276.70143318 51.99276257 C-250.20184774 51.93393956 -223.70235301 51.85803932 -197.20286751 51.76428509 C-184.38785754 51.71934043 -171.57287529 51.67992262 -158.7578125 51.65356445 C-147.58679066 51.6305737 -136.4158566 51.59716345 -125.2449044 51.55129844 C-119.33126711 51.52738094 -113.41771668 51.50864244 -107.50403214 51.50238609 C-101.93411467 51.49632869 -96.36441941 51.47630471 -90.79458427 51.44572449 C-88.75407773 51.43695486 -86.71354213 51.43321945 -84.6730175 51.43499184 C-66.04970543 51.59023454 -66.04970543 51.59023454 -49.9765625 43.01171875 C-46.32657387 39.29680937 -43.23768334 35.02949372 -42.8203125 29.7097168 C-42.41641052 25.58564459 -42.05814782 22.92592442 -38.85083008 20.11938477 C-35.9220274 18.38020382 -32.95746007 16.88690264 -29.875 15.4375 C-27.69339401 14.33976584 -25.5124062 13.24080228 -23.33203125 12.140625 C-22.25775879 11.61275391 -21.18348633 11.08488281 -20.07666016 10.54101562 C-15.8161516 8.40704244 -11.68780746 6.0696448 -7.5625 3.6875 C-1.13425877 0 -1.13425877 0 0 0 Z " fill="#FE6F42" transform="translate(312,412)"/>
<path d="M0 0 C1.21755981 0.67554932 1.21755981 0.67554932 2.4597168 1.36474609 C3.7890625 2.09951172 3.7890625 2.09951172 5.14526367 2.84912109 C6.05727539 3.35701172 6.96928711 3.86490234 7.90893555 4.38818359 C9.30595703 5.16162109 9.30595703 5.16162109 10.73120117 5.95068359 C13.02107023 7.21891877 15.30941269 8.48982521 17.59643555 9.76318359 C14.62664773 13.00733714 11.6703113 15.03528135 7.8112793 17.12646484 C6.65442627 17.75842773 5.49757324 18.39039063 4.30566406 19.04150391 C3.04844792 19.7196133 1.79120438 20.39767189 0.53393555 21.07568359 C-0.76995363 21.78552026 -2.07341439 22.49614439 -3.37646484 23.20751953 C-5.38776163 24.30532984 -7.3993606 25.40254837 -9.41239929 26.49716187 C-16.08095142 30.12352996 -22.71145808 33.81616232 -29.34106445 37.51318359 C-33.6939504 39.93216087 -38.04871731 42.34773937 -42.40356445 44.76318359 C-43.99442871 45.64707764 -43.99442871 45.64707764 -45.61743164 46.54882812 C-48.64734839 48.22987361 -51.68106229 49.90384089 -54.71606445 51.57568359 C-56.05882446 52.32253418 -56.05882446 52.32253418 -57.42871094 53.08447266 C-66.47395149 58.04733253 -74.81190272 60.75532178 -85.1574707 58.04052734 C-90.49538786 56.02760286 -95.00879164 53.39364809 -99.40356445 49.76318359 C-99.40356445 49.10318359 -99.40356445 48.44318359 -99.40356445 47.76318359 C-98.29883789 47.19212891 -97.19411133 46.62107422 -96.0559082 46.03271484 C-86.14637777 40.87993215 -76.36932606 35.5333663 -66.66357422 30.00683594 C-61.20494509 26.90265383 -55.73242264 23.82712015 -50.23168945 20.79833984 C-49.62030121 20.46168304 -49.00891296 20.12502625 -48.3789978 19.77816772 C-45.28011117 18.07328505 -42.17902451 16.37249943 -39.07592773 14.67529297 C-33.35359397 11.53904046 -27.66947009 8.35849461 -22.06762695 5.00927734 C-21.10421387 4.43765869 -20.14080078 3.86604004 -19.14819336 3.27709961 C-17.36758205 2.21383295 -15.59573761 1.13569104 -13.8347168 0.0402832 C-13.05306152 -0.42498779 -12.27140625 -0.89025879 -11.46606445 -1.36962891 C-10.4625293 -1.98668701 -10.4625293 -1.98668701 -9.4387207 -2.61621094 C-5.82303175 -3.71878787 -3.1931026 -1.64309373 0 0 Z " fill="#DDDDDD" transform="translate(327.403564453125,364.23681640625)"/>
<path d="M0 0 C6.99773144 4.55815534 12.26180792 11.78309197 14 20 C15.04069687 30.8712796 12.787557 40.62235975 5.8359375 49.21484375 C-0.73045499 55.59961262 -9.18716711 59.26357957 -18.3125 59.375 C-24.43154644 59.26374461 -28.79104306 58.16894719 -34 55 C-35.04800781 54.38125 -35.04800781 54.38125 -36.1171875 53.75 C-42.81084898 49.30439841 -47.10142834 42.75159304 -49.375 35.0625 C-51.31856096 25.02076838 -49.95385167 17.53767572 -44.71484375 8.875 C-34.15048869 -6.66254727 -15.81988222 -8.80431037 0 0 Z M-31.375 18.625 C-33.57907893 23.20270239 -33.7971639 27.00552411 -33 32 C-30.67031069 36.83858548 -27.83858548 39.67031069 -23 42 C-18.00552411 42.7971639 -14.20270239 42.57907893 -9.625 40.375 C-6.04092287 37.13226355 -3.40464759 34.53524104 -2.6171875 29.6015625 C-2.36116081 23.91777006 -3.06373068 20.35061345 -7 16 C-11.35061345 12.06373068 -14.91777006 11.36116081 -20.6015625 11.6171875 C-25.53524104 12.40464759 -28.13226355 15.04092287 -31.375 18.625 Z " fill="#020202" transform="translate(450,405)"/>
<path d="M0 0 C6.31402599 4.4892277 11.8946353 11.71801442 13.3125 19.4375 C14.20691986 29.85583504 12.23221708 38.83611761 6.10546875 47.3984375 C0.25599935 54.05077525 -7.88820503 57.80866079 -16.60546875 58.75390625 C-23.55304582 59.02687823 -28.72242894 58.00539297 -34.6875 54.4375 C-35.73744141 53.81875 -35.73744141 53.81875 -36.80859375 53.1875 C-44.18574415 48.27869671 -48.3361054 40.87045608 -50.6875 32.4375 C-51.56805277 24.27702844 -50.98966839 17.4871591 -46.6875 10.4375 C-46.26339844 9.73882812 -45.83929688 9.04015625 -45.40234375 8.3203125 C-34.72335 -7.44533287 -15.737631 -9.39997249 0 0 Z M-32.0625 18.0625 C-34.26657893 22.64020239 -34.4846639 26.44302411 -33.6875 31.4375 C-31.35781069 36.27608548 -28.52608548 39.10781069 -23.6875 41.4375 C-18.69302411 42.2346639 -14.89020239 42.01657893 -10.3125 39.8125 C-6.72842287 36.56976355 -4.09214759 33.97274104 -3.3046875 29.0390625 C-3.04866081 23.35527006 -3.75123068 19.78811345 -7.6875 15.4375 C-12.03811345 11.50123068 -15.60527006 10.79866081 -21.2890625 11.0546875 C-26.22274104 11.84214759 -28.81976355 14.47842287 -32.0625 18.0625 Z " fill="#020202" transform="translate(450.6875,245.5625)"/>
<path d="M0 0 C16.10472973 8.05236486 16.10472973 8.05236486 23.875 12.4375 C25.06802734 13.10555664 25.06802734 13.10555664 26.28515625 13.78710938 C28.19169835 14.85523236 30.09610307 15.92716919 32 17 C32 17.66 32 18.32 32 19 C28.40769674 20.94005809 24.81473843 22.87889705 21.22119141 24.81665039 C20.0009624 25.47485115 18.78090714 26.13337411 17.56103516 26.79223633 C15.7989698 27.74386688 14.03620939 28.69421009 12.2734375 29.64453125 C11.21560059 30.21534424 10.15776367 30.78615723 9.06787109 31.37426758 C6.06964302 32.96309463 3.034962 34.482519 0 36 C0 24.12 0 12.24 0 0 Z " fill="#FB6E41" transform="translate(272,334)"/>
<path d="M0 0 C0.93714844 -0.00257813 1.87429687 -0.00515625 2.83984375 -0.0078125 C7.80437377 0.06260637 11.52949427 0.18039685 15.5 3.5 C16.90457737 6.30915474 16.74895157 8.38810534 16.5 11.5 C14.72015595 14.6359157 13.97691793 15.34102736 10.5 16.5 C7.04690178 16.8042547 3.58992872 16.8234943 0.125 16.875 C-0.82117188 16.91238281 -1.76734375 16.94976562 -2.7421875 16.98828125 C-7.46883931 17.04802825 -9.74297641 17.06587514 -13.625 14.1640625 C-15.5 11.5 -15.5 11.5 -16.125 8.5 C-14.28929376 -0.31138993 -7.47902301 -0.22632532 0 0 Z " fill="#040201" transform="translate(223.5,343.5)"/>
<path d="M0 0 C0.93714844 -0.00257813 1.87429687 -0.00515625 2.83984375 -0.0078125 C7.80437377 0.06260637 11.52949427 0.18039685 15.5 3.5 C16.90457737 6.30915474 16.74895157 8.38810534 16.5 11.5 C14.72015595 14.6359157 13.97691793 15.34102736 10.5 16.5 C7.04690178 16.8042547 3.58992872 16.8234943 0.125 16.875 C-0.82117188 16.91238281 -1.76734375 16.94976562 -2.7421875 16.98828125 C-7.46883931 17.04802825 -9.74297641 17.06587514 -13.625 14.1640625 C-15.5 11.5 -15.5 11.5 -16.125 8.5 C-14.28929376 -0.31138993 -7.47902301 -0.22632532 0 0 Z " fill="#040201" transform="translate(175.5,343.5)"/>
<path d="M0 0 C0.93714844 -0.00257813 1.87429687 -0.00515625 2.83984375 -0.0078125 C7.80437377 0.06260637 11.52949427 0.18039685 15.5 3.5 C16.90457737 6.30915474 16.74895157 8.38810534 16.5 11.5 C14.72015595 14.6359157 13.97691793 15.34102736 10.5 16.5 C7.04690178 16.8042547 3.58992872 16.8234943 0.125 16.875 C-0.82117188 16.91238281 -1.76734375 16.94976562 -2.7421875 16.98828125 C-7.46883931 17.04802825 -9.74297641 17.06587514 -13.625 14.1640625 C-15.5 11.5 -15.5 11.5 -16.125 8.5 C-14.28929376 -0.31138993 -7.47902301 -0.22632532 0 0 Z " fill="#040201" transform="translate(127.5,343.5)"/>
<path d="M0 0 C0.93714844 -0.00257813 1.87429687 -0.00515625 2.83984375 -0.0078125 C7.80437377 0.06260637 11.52949427 0.18039685 15.5 3.5 C16.90457737 6.30915474 16.74895157 8.38810534 16.5 11.5 C14.72015595 14.6359157 13.97691793 15.34102736 10.5 16.5 C7.04690178 16.8042547 3.58992872 16.8234943 0.125 16.875 C-0.82117188 16.91238281 -1.76734375 16.94976562 -2.7421875 16.98828125 C-7.46883931 17.04802825 -9.74297641 17.06587514 -13.625 14.1640625 C-15.5 11.5 -15.5 11.5 -16.125 8.5 C-14.28929376 -0.31138993 -7.47902301 -0.22632532 0 0 Z " fill="#040201" transform="translate(79.5,343.5)"/>
<path d="M0 0 C1.175625 0.825 2.35125 1.65 3.5625 2.5 C10.07803827 6.86457531 17.0485424 10.39146997 24 14 C20.64594435 16.782894 17.27761687 19.19968691 13.5 21.375 C12.5821875 21.91898437 11.664375 22.46296875 10.71875 23.0234375 C7.22563141 24.27814964 6.3015051 23.53370503 3 22 C1.36526715 21.15880583 -0.25568339 20.29039502 -1.86328125 19.3984375 C-2.74951172 18.90859375 -3.63574219 18.41875 -4.54882812 17.9140625 C-5.46083984 17.40617187 -6.37285156 16.89828125 -7.3125 16.375 C-8.24384766 15.859375 -9.17519531 15.34375 -10.13476562 14.8125 C-12.42463469 13.54426483 -14.71297715 12.27335838 -17 11 C-17 10.34 -17 9.68 -17 9 C-11.39 6.03 -5.78 3.06 0 0 Z " fill="#B9B9B9" transform="translate(396,319)"/>
<path d="M0 0 C1.21755981 0.67554932 1.21755981 0.67554932 2.4597168 1.36474609 C3.7890625 2.09951172 3.7890625 2.09951172 5.14526367 2.84912109 C6.05727539 3.35701172 6.96928711 3.86490234 7.90893555 4.38818359 C8.8402832 4.90380859 9.77163086 5.41943359 10.73120117 5.95068359 C13.02107023 7.21891877 15.30941269 8.48982521 17.59643555 9.76318359 C14.41719776 13.3201526 11.06351283 15.32030341 6.84643555 17.51318359 C6.24444336 17.82900391 5.64245117 18.14482422 5.0222168 18.47021484 C3.55040755 19.24116254 2.07388813 20.00310683 0.59643555 20.76318359 C0.18651367 20.31789307 -0.2234082 19.87260254 -0.64575195 19.41381836 C-2.50779523 17.665308 -4.28701697 16.56996066 -6.52856445 15.35302734 C-7.71192383 14.70430664 -7.71192383 14.70430664 -8.91918945 14.04248047 C-9.7390332 13.5996875 -10.55887695 13.15689453 -11.40356445 12.70068359 C-13.02915312 11.81504449 -14.65417651 10.92836683 -16.27856445 10.04052734 C-16.99786133 9.6511499 -17.7171582 9.26177246 -18.45825195 8.8605957 C-20.15235504 7.90489874 -21.78515884 6.84212067 -23.40356445 5.76318359 C-20.8527753 4.19853972 -18.29102483 2.662094 -15.71606445 1.13818359 C-14.99483398 0.69216797 -14.27360352 0.24615234 -13.53051758 -0.21337891 C-12.471875 -0.83212891 -12.471875 -0.83212891 -11.3918457 -1.46337891 C-10.74771729 -1.85090332 -10.10358887 -2.23842773 -9.43994141 -2.63769531 C-5.82793658 -3.70038082 -3.18610682 -1.63949387 0 0 Z " fill="#B9B9B9" transform="translate(327.403564453125,364.23681640625)"/>
</svg>
