<?xml version="1.0" encoding="UTF-8"?>
<svg version="1.1" xmlns="http://www.w3.org/2000/svg" width="512" height="512">
<path d="M0 0 C2.2676653 1.49326532 4.43949967 2.71281652 6.87109375 3.890625 C7.49564453 3.23989014 8.12019531 2.58915527 8.76367188 1.91870117 C11.10921551 -0.51256506 13.4659936 -2.93176767 15.83105469 -5.34399414 C16.84808512 -6.38601502 17.86056497 -7.43249917 18.86816406 -8.48364258 C30.6951508 -20.80829955 30.6951508 -20.80829955 38.99951172 -21.21313477 C43.91967731 -21.10817289 46.97600338 -19.05688763 50.4609375 -15.71484375 C54.15286273 -11.51157154 54.15659992 -7.5339922 53.87109375 -2.109375 C53.62141846 -1.14443115 53.37174316 -0.1794873 53.11450195 0.81469727 C52.55513839 3.93984307 52.55513839 3.93984307 54.43823242 6.33178711 C55.21400635 7.10272705 55.98978027 7.87366699 56.7890625 8.66796875 C57.63146484 9.51037109 58.47386719 10.35277344 59.34179688 11.22070312 C60.68661133 12.51137695 60.68661133 12.51137695 62.05859375 13.828125 C62.93580078 14.71564453 63.81300781 15.60316406 64.71679688 16.51757812 C68.11673225 19.91723281 68.11673225 19.91723281 71.87109375 22.890625 C74.00977728 22.74282128 74.00977728 22.74282128 75.87109375 21.890625 C80.82304397 21.39216136 84.70965693 21.33141468 89.24609375 23.515625 C92.69539438 26.63642081 95.54534323 29.2937969 96.1484375 34.1015625 C96.1976518 37.39345218 96.07136643 40.23462979 95.10546875 43.3984375 C94.57989788 46.01662706 94.57989788 46.01662706 96.5234375 48.12890625 C97.27753906 48.81339844 98.03164063 49.49789062 98.80859375 50.203125 C99.56011719 50.90050781 100.31164062 51.59789063 101.0859375 52.31640625 C101.67503906 52.83589844 102.26414062 53.35539062 102.87109375 53.890625 C103.43957031 53.44589844 104.00804687 53.00117187 104.59375 52.54296875 C110.92079509 47.9059524 110.92079509 47.9059524 115.74609375 47.828125 C118.8523376 48.88424791 119.86910144 49.42597234 121.87109375 51.890625 C123.12611363 55.10968631 122.90338077 57.61873948 121.87109375 60.890625 C118.37233178 65.54338073 114.23398393 69.41932142 109.99609375 73.390625 C108.85477422 74.49533678 107.71542824 75.60209137 106.578125 76.7109375 C97.29119876 85.70127766 97.29119876 85.70127766 93.05859375 86.265625 C89.87109375 85.890625 89.87109375 85.890625 86.99609375 83.828125 C84.87109375 80.890625 84.87109375 80.890625 84.24609375 77.453125 C85.05638726 72.83445202 86.63582227 71.20677827 89.87109375 67.890625 C88.31608394 64.07378274 85.8351388 61.69866768 82.87109375 58.890625 C79.6558507 60.29907218 77.54925507 61.99407286 75.12109375 64.515625 C74.20070313 65.46308594 74.20070313 65.46308594 73.26171875 66.4296875 C72.8028125 66.91179687 72.34390625 67.39390625 71.87109375 67.890625 C73.38227719 72.09360395 75.52296039 75.7424176 77.87109375 79.515625 C95.71949742 108.91299575 107.72442061 140.81162192 112.87109375 174.890625 C113.04769531 176.02467773 113.22429687 177.15873047 113.40625 178.32714844 C115.00362358 189.60289446 115.27031617 200.76293768 115.24609375 212.140625 C115.24527802 213.5876178 115.24527802 213.5876178 115.2444458 215.06384277 C115.10588471 268.72578043 98.17430446 320.89170238 65.87109375 363.890625 C65.41766602 364.50099609 64.96423828 365.11136719 64.49707031 365.74023438 C54.13585042 379.62078753 42.17341287 393.4154554 28.62109375 404.265625 C25.8073816 406.52500527 23.00012756 408.78136869 20.24609375 411.11328125 C8.16990907 421.30256207 -5.16004681 429.56309002 -19.12890625 436.890625 C-20.3494873 437.53451172 -20.3494873 437.53451172 -21.59472656 438.19140625 C-81.28809507 469.25792124 -151.86310013 474.20005031 -215.84790039 454.04443359 C-225.52616321 450.88048532 -234.90004592 447.1875485 -244.12890625 442.890625 C-244.81597656 442.57125977 -245.50304687 442.25189453 -246.2109375 441.92285156 C-268.1270831 431.60382507 -288.48454082 418.55662218 -306.12890625 401.890625 C-307.41618543 400.78134635 -308.70778909 399.67706409 -310.00390625 398.578125 C-319.28658516 390.45812506 -327.54264728 381.60588738 -335.12890625 371.890625 C-335.90621094 370.93027344 -336.68351562 369.96992188 -337.484375 368.98046875 C-362.34962391 337.71113348 -378.35611496 300.63998789 -386.37890625 261.640625 C-386.53012939 260.91004883 -386.68135254 260.17947266 -386.8371582 259.42675781 C-389.80259423 244.06877968 -390.50235707 228.8693686 -390.44140625 213.265625 C-390.43867203 211.81129059 -390.43867203 211.81129059 -390.43588257 210.32757568 C-390.39049573 195.98385744 -389.92533291 181.9988497 -387.12890625 167.890625 C-386.8954248 166.61759521 -386.8954248 166.61759521 -386.65722656 165.31884766 C-380.30780642 131.22081395 -366.93362851 95.98256067 -345.86767578 68.22900391 C-343.57593137 65.1723159 -343.57593137 65.1723159 -343.37597656 61.47119141 C-344.14079801 58.84986759 -345.06320656 57.06055492 -346.578125 54.80078125 C-347.08980225 54.02718262 -347.60147949 53.25358398 -348.12866211 52.45654297 C-348.68561768 51.63041504 -349.24257324 50.80428711 -349.81640625 49.953125 C-350.99975658 48.16606515 -352.18200821 46.3782774 -353.36328125 44.58984375 C-353.98009766 43.65962402 -354.59691406 42.7294043 -355.23242188 41.77099609 C-358.39460986 36.96828062 -361.48166052 32.11830964 -364.56640625 27.265625 C-365.13254639 26.37883057 -365.69868652 25.49203613 -366.28198242 24.57836914 C-367.90836316 22.02235388 -369.5220656 19.45896408 -371.12890625 16.890625 C-371.69673828 15.98771729 -372.26457031 15.08480957 -372.84960938 14.15454102 C-373.39423828 13.27209717 -373.93886719 12.38965332 -374.5 11.48046875 C-374.99040771 10.69019287 -375.48081543 9.89991699 -375.98608398 9.08569336 C-377.69077611 5.81141715 -377.83380172 3.48559189 -377.12890625 -0.109375 C-375.3332822 -2.86266521 -374.07635703 -4.63564961 -371.12890625 -6.109375 C-364.56001009 -6.87877971 -361.03258518 -4.7638506 -355.75390625 -1.296875 C-354.97152588 -0.80058594 -354.18914551 -0.30429687 -353.38305664 0.20703125 C-350.95474548 1.75287467 -348.5412942 3.32007794 -346.12890625 4.890625 C-344.6777143 5.8225978 -343.22591401 6.7536242 -341.7734375 7.68359375 C-335.94835917 11.42756653 -330.14219473 15.18908794 -324.42578125 19.09765625 C-323.65435791 19.61714844 -322.88293457 20.13664062 -322.08813477 20.671875 C-320.60301834 21.6729121 -319.12645395 22.68678679 -317.65991211 23.71484375 C-315.45190623 25.24657779 -315.45190623 25.24657779 -312.12890625 26.890625 C-308.70188224 25.60790213 -306.21847797 23.42795492 -303.44140625 21.078125 C-285.03689299 5.88709818 -265.86481788 -7.11033378 -244.12890625 -17.109375 C-243.08162354 -17.59567383 -243.08162354 -17.59567383 -242.01318359 -18.09179688 C-165.38261446 -53.2305517 -70.39772378 -46.97244946 0 0 Z M36.00366211 17.64453125 C34.73685262 18.91150007 33.47281495 20.18124389 32.2109375 21.453125 C31.5464711 22.11900635 30.8820047 22.7848877 30.19740295 23.47094727 C28.06545363 25.608516 25.93699826 27.74952718 23.80859375 29.890625 C22.36806652 31.33616473 20.92731431 32.78148028 19.48632812 34.2265625 C15.94529602 37.77864935 12.40739474 41.33382828 8.87109375 44.890625 C11.53332854 47.5553899 14.19681046 50.2185024 16.87890625 52.86328125 C17.91799171 53.893206 18.95705398 54.92315415 19.99609375 55.953125 C20.52074219 56.46939453 21.04539062 56.98566406 21.5859375 57.51757812 C24.25271334 60.16747563 26.72236765 62.80090506 28.87109375 65.890625 C33.16176921 64.23825849 36.01404905 61.0001043 39.16796875 57.7890625 C39.76160217 57.19259918 40.3552356 56.59613586 40.96685791 55.9815979 C42.85636002 54.0809269 44.73877767 52.17341026 46.62109375 50.265625 C47.9031844 48.97350032 49.18573136 47.68182824 50.46875 46.390625 C53.60817807 43.22918021 56.74127176 40.0615789 59.87109375 36.890625 C58.38666235 33.43945598 56.42776308 31.20203259 53.7734375 28.5625 C52.97228516 27.76328125 52.17113281 26.9640625 51.34570312 26.140625 C50.50845703 25.315625 49.67121094 24.490625 48.80859375 23.640625 C47.96748047 22.80015625 47.12636719 21.9596875 46.25976562 21.09375 C41.47703774 14.89025276 41.47703774 14.89025276 36.00366211 17.64453125 Z " fill="#F5F8F8" transform="translate(390.12890625,43.109375)"/>
<path d="M0 0 C2.2676653 1.49326532 4.43949967 2.71281652 6.87109375 3.890625 C7.49564453 3.23989014 8.12019531 2.58915527 8.76367188 1.91870117 C11.10921551 -0.51256506 13.4659936 -2.93176767 15.83105469 -5.34399414 C16.84808512 -6.38601502 17.86056497 -7.43249917 18.86816406 -8.48364258 C30.6951508 -20.80829955 30.6951508 -20.80829955 38.99951172 -21.21313477 C43.91967731 -21.10817289 46.97600338 -19.05688763 50.4609375 -15.71484375 C54.15286273 -11.51157154 54.15659992 -7.5339922 53.87109375 -2.109375 C53.62141846 -1.14443115 53.37174316 -0.1794873 53.11450195 0.81469727 C52.55513839 3.93984307 52.55513839 3.93984307 54.43823242 6.33178711 C55.21400635 7.10272705 55.98978027 7.87366699 56.7890625 8.66796875 C57.63146484 9.51037109 58.47386719 10.35277344 59.34179688 11.22070312 C60.68661133 12.51137695 60.68661133 12.51137695 62.05859375 13.828125 C62.93580078 14.71564453 63.81300781 15.60316406 64.71679688 16.51757812 C68.11673225 19.91723281 68.11673225 19.91723281 71.87109375 22.890625 C74.00977728 22.74282128 74.00977728 22.74282128 75.87109375 21.890625 C80.82304397 21.39216136 84.70965693 21.33141468 89.24609375 23.515625 C92.69539438 26.63642081 95.54534323 29.2937969 96.1484375 34.1015625 C96.1976518 37.39345218 96.07136643 40.23462979 95.10546875 43.3984375 C94.57989788 46.01662706 94.57989788 46.01662706 96.5234375 48.12890625 C97.27753906 48.81339844 98.03164063 49.49789062 98.80859375 50.203125 C99.56011719 50.90050781 100.31164062 51.59789063 101.0859375 52.31640625 C101.67503906 52.83589844 102.26414062 53.35539062 102.87109375 53.890625 C103.43957031 53.44589844 104.00804687 53.00117187 104.59375 52.54296875 C110.92079509 47.9059524 110.92079509 47.9059524 115.74609375 47.828125 C118.8523376 48.88424791 119.86910144 49.42597234 121.87109375 51.890625 C123.12611363 55.10968631 122.90338077 57.61873948 121.87109375 60.890625 C118.37233178 65.54338073 114.23398393 69.41932142 109.99609375 73.390625 C108.85477422 74.49533678 107.71542824 75.60209137 106.578125 76.7109375 C97.29119876 85.70127766 97.29119876 85.70127766 93.05859375 86.265625 C89.87109375 85.890625 89.87109375 85.890625 86.99609375 83.828125 C84.87109375 80.890625 84.87109375 80.890625 84.24609375 77.453125 C85.05638726 72.83445202 86.63582227 71.20677827 89.87109375 67.890625 C88.31608394 64.07378274 85.8351388 61.69866768 82.87109375 58.890625 C79.6558507 60.29907218 77.54925507 61.99407286 75.12109375 64.515625 C74.20070313 65.46308594 74.20070313 65.46308594 73.26171875 66.4296875 C72.8028125 66.91179687 72.34390625 67.39390625 71.87109375 67.890625 C73.38227719 72.09360395 75.52296039 75.7424176 77.87109375 79.515625 C95.71949742 108.91299575 107.72442061 140.81162192 112.87109375 174.890625 C113.04769531 176.02467773 113.22429687 177.15873047 113.40625 178.32714844 C115.00362358 189.60289446 115.27031617 200.76293768 115.24609375 212.140625 C115.24527802 213.5876178 115.24527802 213.5876178 115.2444458 215.06384277 C115.10588471 268.72578043 98.17430446 320.89170238 65.87109375 363.890625 C65.41766602 364.50099609 64.96423828 365.11136719 64.49707031 365.74023438 C54.13585042 379.62078753 42.17341287 393.4154554 28.62109375 404.265625 C25.8073816 406.52500527 23.00012756 408.78136869 20.24609375 411.11328125 C8.16990907 421.30256207 -5.16004681 429.56309002 -19.12890625 436.890625 C-20.3494873 437.53451172 -20.3494873 437.53451172 -21.59472656 438.19140625 C-81.28809507 469.25792124 -151.86310013 474.20005031 -215.84790039 454.04443359 C-225.52616321 450.88048532 -234.90004592 447.1875485 -244.12890625 442.890625 C-244.81597656 442.57125977 -245.50304687 442.25189453 -246.2109375 441.92285156 C-268.1270831 431.60382507 -288.48454082 418.55662218 -306.12890625 401.890625 C-307.41618543 400.78134635 -308.70778909 399.67706409 -310.00390625 398.578125 C-319.28658516 390.45812506 -327.54264728 381.60588738 -335.12890625 371.890625 C-335.90621094 370.93027344 -336.68351562 369.96992188 -337.484375 368.98046875 C-362.34962391 337.71113348 -378.35611496 300.63998789 -386.37890625 261.640625 C-386.53012939 260.91004883 -386.68135254 260.17947266 -386.8371582 259.42675781 C-389.80259423 244.06877968 -390.50235707 228.8693686 -390.44140625 213.265625 C-390.43867203 211.81129059 -390.43867203 211.81129059 -390.43588257 210.32757568 C-390.39049573 195.98385744 -389.92533291 181.9988497 -387.12890625 167.890625 C-386.8954248 166.61759521 -386.8954248 166.61759521 -386.65722656 165.31884766 C-380.29889881 131.17297777 -366.76664962 98.50479248 -347.12890625 69.890625 C-346.67257812 69.20935547 -346.21625 68.52808594 -345.74609375 67.82617188 C-344.59376011 66.14315827 -343.36761198 64.5111236 -342.12890625 62.890625 C-341.46890625 62.890625 -340.80890625 62.890625 -340.12890625 62.890625 C-338.87963867 64.5078125 -338.87963867 64.5078125 -337.484375 66.765625 C-336.97197266 67.58675781 -336.45957031 68.40789062 -335.93164062 69.25390625 C-335.39861328 70.12402344 -334.86558594 70.99414062 -334.31640625 71.890625 C-333.79498047 72.72980469 -333.27355469 73.56898437 -332.73632812 74.43359375 C-331.69714739 76.1071807 -330.66565556 77.78556756 -329.64208984 79.46875 C-328.65555165 81.04772046 -327.62834338 82.60220491 -326.55712891 84.125 C-323.02301158 89.22544196 -323.02301158 89.22544196 -323.53125 92.41796875 C-324.05847656 93.23394531 -324.58570313 94.04992187 -325.12890625 94.890625 C-325.81891505 96.05788126 -326.50758976 97.22592663 -327.1953125 98.39453125 C-327.59403564 99.04252686 -327.99275879 99.69052246 -328.40356445 100.3581543 C-349.57454825 134.79762576 -358.34587042 172.82361363 -358.44140625 212.890625 C-358.44517273 213.76853699 -358.44893921 214.64644897 -358.45281982 215.55096436 C-358.47668068 226.52516071 -357.87420381 237.03835629 -356.12890625 247.890625 C-355.93620987 249.31345342 -355.74556813 250.7365646 -355.55859375 252.16015625 C-348.43749278 297.644935 -325.22880311 336.84104042 -294.12890625 369.890625 C-293.51273437 370.54933594 -292.8965625 371.20804687 -292.26171875 371.88671875 C-287.29165938 377.03512953 -281.7409405 381.46517778 -276.12890625 385.890625 C-275.20078125 386.62410156 -274.27265625 387.35757812 -273.31640625 388.11328125 C-243.19748558 411.31630845 -208.5479839 425.84287729 -171.12890625 431.890625 C-170.39124023 432.01066895 -169.65357422 432.13071289 -168.89355469 432.25439453 C-115.21292418 440.56535509 -55.13560131 426.91771973 -11.12890625 394.890625 C5.97345321 382.32039079 21.70122311 368.6193075 34.87109375 351.890625 C35.65097656 350.93929688 36.43085938 349.98796875 37.234375 349.0078125 C68.68390807 309.78367397 83.3207336 260.83937131 83.30859375 211.078125 C83.31019501 209.67188873 83.31019501 209.67188873 83.31182861 208.23724365 C83.2852426 191.97661354 81.80176818 176.72360218 77.87109375 160.890625 C77.65179199 159.96282227 77.43249023 159.03501953 77.20654297 158.07910156 C69.18320498 124.69961155 52.20573491 93.82762764 29.87109375 67.890625 C31.52346026 63.59994954 34.76161445 60.7476697 37.97265625 57.59375 C38.56911957 57.00011658 39.16558289 56.40648315 39.78012085 55.79486084 C41.68079185 53.90535873 43.58830849 52.02294108 45.49609375 50.140625 C46.78821843 48.85853435 48.07989051 47.57598739 49.37109375 46.29296875 C52.53253854 43.15354068 55.70013985 40.02044699 58.87109375 36.890625 C57.41363951 33.52726906 55.55991521 31.34528495 52.95703125 28.78125 C51.81621094 27.65009766 51.81621094 27.65009766 50.65234375 26.49609375 C49.85828125 25.71878906 49.06421875 24.94148438 48.24609375 24.140625 C47.44429688 23.34785156 46.6425 22.55507812 45.81640625 21.73828125 C43.83906529 19.78448007 41.85720466 17.83550397 39.87109375 15.890625 C32.94298651 21.55636549 26.72905233 27.92096139 20.43359375 34.265625 C19.30947908 35.39476455 18.18513201 36.52367278 17.06054688 37.65234375 C14.3280414 40.39577688 11.59870366 43.14232485 8.87109375 45.890625 C4.12263506 42.35813381 -0.55717083 38.75986934 -5.19140625 35.078125 C-12.13484075 29.68277841 -19.47822231 25.20410644 -27.12890625 20.890625 C-27.77279297 20.5208252 -28.41667969 20.15102539 -29.08007812 19.77001953 C-44.2045995 11.13225398 -60.39268876 4.67446143 -77.12890625 -0.109375 C-78.31355469 -0.46 -79.49820312 -0.810625 -80.71875 -1.171875 C-98.28776865 -6.09202024 -116.27250023 -8.31065848 -134.50390625 -8.296875 C-135.63078857 -8.29606934 -136.7576709 -8.29526367 -137.91870117 -8.29443359 C-148.40787813 -8.21903039 -158.72558656 -7.40187312 -169.12890625 -6.109375 C-170.83626953 -5.91021484 -170.83626953 -5.91021484 -172.578125 -5.70703125 C-211.16010754 -0.51995293 -255.59070149 17.52276999 -283.12890625 45.890625 C-288.10758224 44.21463506 -292.21682881 41.38763096 -296.56640625 38.515625 C-297.30439453 38.03351563 -298.04238281 37.55140625 -298.80273438 37.0546875 C-302.92694977 34.35653414 -307.03224401 31.6303896 -311.12890625 28.890625 C-295.29705505 12.97471088 -277.85571759 0.5586374 -258.12890625 -10.109375 C-257.44618652 -10.47901367 -256.7634668 -10.84865234 -256.06005859 -11.22949219 C-176.93037089 -53.53336563 -74.95505631 -50.01330164 0 0 Z " fill="#FED064" transform="translate(390.12890625,43.109375)"/>
<path d="M0 0 C1.10722412 0.17619873 1.10722412 0.17619873 2.23681641 0.35595703 C36.50239857 6.01064234 69.56478872 22.13989527 96.7109375 43.4375 C98.87985239 45.13860971 101.06992446 46.80248445 103.2890625 48.4375 C115.15556166 57.22782658 124.92348287 67.18020984 133.63574219 79.13525391 C135.13906294 81.19007923 136.6670438 83.22538925 138.1953125 85.26171875 C145.28500487 94.79178614 151.50793274 104.47244441 157 115 C157.34369629 115.64646484 157.68739258 116.29292969 158.04150391 116.95898438 C166.48315502 132.88363829 172.87247444 149.45063995 177 167 C177.22993652 167.93344238 177.45987305 168.86688477 177.69677734 169.82861328 C184.66420707 198.99558551 184.6633255 231.59427146 179 261 C178.87141602 261.74717285 178.74283203 262.4943457 178.61035156 263.26416016 C173.54418056 292.62345906 160.19537657 321.81522282 143 346 C142.53658203 346.66257812 142.07316406 347.32515625 141.59570312 348.0078125 C133.95926967 358.86013768 125.35535438 368.60166156 116 378 C115.46826172 378.5357666 114.93652344 379.0715332 114.38867188 379.62353516 C93.72114664 400.17888034 68.77837529 414.88745865 42 426 C41.30600098 426.29100586 40.61200195 426.58201172 39.89697266 426.88183594 C18.93191635 435.56232011 -4.32295364 440.37466033 -27 441 C-27.96518555 441.02723145 -28.93037109 441.05446289 -29.92480469 441.08251953 C-82.57366801 442.32637826 -131.93906179 428.20290581 -174 396 C-175.2065625 395.08347656 -175.2065625 395.08347656 -176.4375 394.1484375 C-183.67212515 388.51377753 -190.35296471 382.30553213 -197 376 C-197.75539063 375.28714844 -198.51078125 374.57429688 -199.2890625 373.83984375 C-235.95384119 338.27062618 -260.23786738 283.1744531 -261.17027283 232.25686646 C-261.76770052 186.95281192 -256.27651527 136.7230837 -226.80078125 99.859375 C-225.73667721 97.95221033 -225.73667721 97.95221033 -226.74633789 95.71069336 C-228.05395963 92.8833274 -229.55577649 90.37781216 -231.2578125 87.76953125 C-231.88300781 86.80208984 -232.50820312 85.83464844 -233.15234375 84.83789062 C-234.47514009 82.80916633 -235.79805816 80.7805214 -237.12109375 78.75195312 C-237.74371094 77.78837891 -238.36632812 76.82480469 -239.0078125 75.83203125 C-239.58160645 74.95264893 -240.15540039 74.0732666 -240.74658203 73.16723633 C-242 71 -242 71 -242 69 C-242.66 69 -243.32 69 -244 69 C-245.06225586 67.61743164 -245.06225586 67.61743164 -246.21484375 65.66015625 C-246.64788818 64.93578369 -247.08093262 64.21141113 -247.52709961 63.46508789 C-247.99253174 62.67223389 -248.45796387 61.87937988 -248.9375 61.0625 C-249.93560916 59.39470029 -250.93565633 57.72805908 -251.9375 56.0625 C-252.44796875 55.21300781 -252.9584375 54.36351562 -253.484375 53.48828125 C-255.73118443 49.79957608 -258.07540712 46.17809748 -260.4375 42.5625 C-264.54654225 36.25813414 -268.60526169 29.92423031 -272.625 23.5625 C-273.14634521 22.73886963 -273.66769043 21.91523926 -274.20483398 21.06665039 C-274.68637939 20.30344482 -275.1679248 19.54023926 -275.6640625 18.75390625 C-276.09154785 18.07658447 -276.5190332 17.3992627 -276.95947266 16.70141602 C-279.23668912 12.97783048 -279.37229408 10.39307017 -279 6 C-277.20437595 3.24670979 -275.94745078 1.47372539 -273 0 C-266.43110384 -0.76940471 -262.90367893 1.3455244 -257.625 4.8125 C-256.84261963 5.30878906 -256.06023926 5.80507813 -255.25415039 6.31640625 C-252.82583923 7.86224967 -250.41238795 9.42945294 -248 11 C-246.54880805 11.9319728 -245.09700776 12.8629992 -243.64453125 13.79296875 C-240.13227063 16.04832936 -236.6344672 18.32515751 -233.13964844 20.60742188 C-230.9339835 22.04296647 -228.72192849 23.46815359 -226.5078125 24.890625 C-214.22481547 32.78693317 -214.22481547 32.78693317 -209 36.5 C-204.40631799 39.73465152 -199.78755131 42.92801173 -195.125 46.0625 C-194.38636719 46.57683594 -193.64773437 47.09117188 -192.88671875 47.62109375 C-192.18417969 48.08773437 -191.48164063 48.554375 -190.7578125 49.03515625 C-190.1302002 49.4619165 -189.50258789 49.88867676 -188.85595703 50.32836914 C-186.96713937 51.23514367 -186.96713937 51.23514367 -184.94360352 50.26123047 C-182.07042813 48.39678831 -179.45995632 46.22754427 -176.8125 44.0625 C-152.72721509 24.85271454 -124.00158668 10.23285484 -94 3 C-92.87980469 2.72671875 -91.75960937 2.4534375 -90.60546875 2.171875 C-81.80244065 0.15636688 -72.96951707 -1.06530083 -64 -2 C-62.94039062 -2.1134375 -61.88078125 -2.226875 -60.7890625 -2.34375 C-40.41016463 -4.15520759 -20.17366434 -3.24567766 0 0 Z M-162 67 C-160.6029978 69.85868042 -159.08664287 72.61772427 -157.5 75.375 C-151.90127648 85.54849171 -152.52239459 94.73325879 -154 106 C-152.39805929 106.98280415 -150.79336258 107.96111717 -149.1875 108.9375 C-148.29417969 109.48277344 -147.40085937 110.02804688 -146.48046875 110.58984375 C-139.86216948 114.35237294 -131.50859429 113.93324749 -124.20703125 112.421875 C-114.78533908 109.12652957 -108.04941966 101.166358 -101.265625 94.15234375 C-100.77439148 93.64631119 -100.28315796 93.14027863 -99.77703857 92.61891174 C-97.76280821 90.54178523 -95.74901748 88.46506783 -93.76074219 86.36303711 C-82.73401054 74.73718396 -69.83589241 65.33275617 -53.26342773 64.60229492 C-38.31928731 64.31582016 -25.05697445 69.51879349 -14.13671875 79.71484375 C-3.64639361 90.93393005 -0.33723606 104.00159644 -0.6640625 118.95703125 C-1.54753018 134.157441 -9.87636412 145.94337598 -20.29833984 156.29980469 C-22.11645321 158.11635297 -23.89691009 159.96535737 -25.67578125 161.8203125 C-26.90764786 163.08971342 -28.14069667 164.3579683 -29.375 165.625 C-29.94549072 166.21732422 -30.51598145 166.80964844 -31.10375977 167.41992188 C-35.39463867 171.74154402 -39.27657398 174.65957175 -45.5 175.4375 C-50.64442984 174.79444627 -53.53772194 172.70599107 -56.875 168.8125 C-58.44626232 164.88434421 -58.86756813 161.16022829 -58 157 C-55.41173632 152.72639817 -52.54886347 149.35481401 -48.9375 145.91796875 C-47.96571776 144.97635304 -46.99437718 144.03428136 -46.0234375 143.09179688 C-44.5146026 141.63852744 -43.00219559 140.18958016 -41.48144531 138.7487793 C-34.73350048 132.33472856 -29.18464941 126.65082698 -27.50390625 117.21484375 C-27.69965705 109.60666267 -28.94784177 103.90566583 -34.1875 98.1875 C-38.96208959 93.79407513 -43.50042789 92.28220975 -49.875 91.5625 C-62.77622917 92.32513424 -70.00987604 101.40884026 -78.3125 110.1875 C-92.21572212 124.81471563 -107.05627503 139.27222686 -128.48046875 140.3359375 C-143.21044936 140.61667105 -158.60477075 138.24082934 -169.6875 127.625 C-172.35661779 125.16277935 -172.35661779 125.16277935 -176.0625 125.125 C-176.63355469 125.26679688 -177.20460937 125.40859375 -177.79296875 125.5546875 C-180.83397847 126.16827176 -183.77462941 126.20337789 -186.875 126.25 C-188.00679687 126.27578125 -189.13859375 126.3015625 -190.3046875 126.328125 C-194.852472 125.92430481 -198.74864202 124.60196098 -203 123 C-210.91073264 139.92570942 -217.37321499 156.60828012 -221 175 C-221.18481934 175.92167969 -221.36963867 176.84335938 -221.56005859 177.79296875 C-227.02389218 206.10682271 -227.27795065 235.80760869 -221 264 C-220.76772705 265.06686035 -220.76772705 265.06686035 -220.53076172 266.15527344 C-219.55313769 270.50532142 -218.32591931 274.74472407 -217 279 C-216.65461182 280.15000488 -216.65461182 280.15000488 -216.30224609 281.32324219 C-208.60255293 306.8040274 -196.56448085 330.14326316 -180 351 C-179.37609375 351.82757813 -178.7521875 352.65515625 -178.109375 353.5078125 C-166.80619793 368.05954046 -153.04135854 381.35775674 -138 392 C-137.00613281 392.7118042 -137.00613281 392.7118042 -135.9921875 393.43798828 C-96.49011099 421.48847112 -53.18123211 431.49760066 -5.125 423.5 C14.28067345 419.82939775 33.33099948 413.82404028 51 405 C51.70237793 404.65888184 52.40475586 404.31776367 53.12841797 403.96630859 C100.87727987 380.67232848 137.92767542 337.56818281 155.40625 287.64453125 C155.9380437 286.09654084 156.4693199 284.54837253 157 283 C157.35771484 281.98752197 157.35771484 281.98752197 157.72265625 280.95458984 C160.62744652 272.69876092 162.65494154 264.41878833 164.25 255.8125 C164.41330811 254.93424561 164.57661621 254.05599121 164.74487305 253.15112305 C173.99002336 200.05923427 160.78757015 145.29526681 130.63574219 100.99560547 C127.92369929 97.18851522 125.00484995 93.58163229 122 90 C121.53239258 89.4337793 121.06478516 88.86755859 120.58300781 88.28417969 C110.3541522 75.91110781 99.49403408 64.90329598 86.64306641 55.23730469 C85.17373874 54.13083327 83.71684799 53.00789103 82.26171875 51.8828125 C59.73107152 34.85661778 33.80771143 24.19457553 6.625 17.1875 C5.87806885 16.9925293 5.1311377 16.79755859 4.36157227 16.59667969 C-9.42631696 13.2185947 -23.13730358 12.62703402 -37.2590332 12.62939453 C-40.16612878 12.62503207 -43.07168769 12.58860563 -45.97851562 12.55078125 C-90.82960822 12.28209955 -131.11483268 35.52088715 -162 67 Z " fill="#D5DFF3" transform="translate(292,37)"/>
<path d="M0 0 C11.12189955 8.5090267 18.48182612 19.08218867 21 33 C22.33668821 47.75143125 19.88542902 61.58805261 10.74121094 73.66210938 C7.91996907 77.03118512 4.86437578 80.15645626 1.74902344 83.25244141 C-0.15901494 85.15888176 -2.02905151 87.09864181 -3.8984375 89.04296875 C-5.22270542 90.40486525 -6.54820763 91.76556276 -7.875 93.125 C-8.8021582 94.08490845 -8.8021582 94.08490845 -9.74804688 95.06420898 C-14.1760445 99.52152713 -18.06598053 102.63324757 -24.5 103.4375 C-29.7073741 102.78657824 -33.67029537 100.03069507 -37 96 C-37.8951052 93.3146844 -38.22112649 91.47198737 -38.3125 88.6875 C-38.36857422 87.57955078 -38.36857422 87.57955078 -38.42578125 86.44921875 C-37.44308315 80.79645078 -32.94457707 76.73140485 -28.9375 72.91796875 C-27.96571776 71.97635304 -26.99437718 71.03428136 -26.0234375 70.09179688 C-24.5146026 68.63852744 -23.00219559 67.18958016 -21.48144531 65.7487793 C-14.73350048 59.33472856 -9.18464941 53.65082698 -7.50390625 44.21484375 C-7.67264638 37.65647754 -8.2655932 32.06036258 -12.76953125 27.01953125 C-17.7992838 22.35522918 -21.87200308 20.31279969 -28.75 19.625 C-41.72404357 20.20347988 -48.98983116 29.3876461 -57.3125 38.1875 C-71.21572212 52.81471563 -86.05627503 67.27222686 -107.48046875 68.3359375 C-117.31432303 68.52335749 -125.79458265 67.81873082 -135 64 C-135.8559375 63.67257813 -136.711875 63.34515625 -137.59375 63.0078125 C-145.38438637 59.63022648 -151.05670166 53.88115883 -157 48 C-157.91265625 47.10104004 -158.8253125 46.20208008 -159.765625 45.27587891 C-162.91438203 42.17124451 -166.05314738 39.0566714 -169.1875 35.9375 C-169.71298431 35.41496643 -170.23846863 34.89243286 -170.77987671 34.35406494 C-172.28731849 32.85236383 -173.79083222 31.34684972 -175.29296875 29.83984375 C-176.61590942 28.51521118 -176.61590942 28.51521118 -177.96557617 27.16381836 C-181.61985082 23.27712255 -181.38934787 19.93948522 -181.35546875 14.76953125 C-180.80112796 10.45054644 -179.18875479 8.89212643 -176 6 C-172.94017407 3.96011605 -172.16909868 3.70553937 -168.6875 3.6875 C-167.57955078 3.66236328 -167.57955078 3.66236328 -166.44921875 3.63671875 C-160.3624679 4.53953825 -156.37479802 8.23692186 -152.296875 12.55078125 C-151.22276903 13.6531047 -150.14854652 14.7553146 -149.07421875 15.85742188 C-147.41471952 17.57871877 -145.7587924 19.30330937 -144.10595703 21.03100586 C-131.11598086 34.62880778 -131.11598086 34.62880778 -113.4375 39.3125 C-99.65338295 39.14250061 -92.51069384 32.65052541 -83.16894531 23.14624023 C-82.19982751 22.14958019 -81.23207454 21.15159139 -80.265625 20.15234375 C-79.77439148 19.64631119 -79.28315796 19.14027863 -78.77703857 18.61891174 C-76.76280821 16.54178523 -74.74901748 14.46506783 -72.76074219 12.36303711 C-53.19831806 -8.26228301 -25.25957997 -17.66814986 0 0 Z " fill="#95D6A4" transform="translate(271,110)"/>
<path d="M0 0 C0.66 0 1.32 0 2 0 C3.51114512 2.0357241 4.85866493 4.03770923 6.1875 6.1875 C6.56841797 6.76564453 6.94933594 7.34378906 7.34179688 7.93945312 C10.07054893 12.32229445 10.07054893 12.32229445 9.74707031 15.4296875 C8.98273753 18.05939194 8.00805359 20.09596174 6.62890625 22.45703125 C6.14196289 23.30942383 5.65501953 24.16181641 5.15332031 25.04003906 C4.36586426 26.41240723 4.36586426 26.41240723 3.5625 27.8125 C-14.65453251 60.51169224 -26.92012239 98.54478137 -27.23828125 136.2109375 C-27.24798447 137.16899796 -27.25768768 138.12705841 -27.26768494 139.114151 C-27.29252835 142.20114365 -27.30520115 145.28791747 -27.3125 148.375 C-27.31511841 149.42712677 -27.31773682 150.47925354 -27.32043457 151.56326294 C-27.32483147 168.04267763 -26.50398167 183.84104061 -23 200 C-22.83983398 200.76570312 -22.67966797 201.53140625 -22.51464844 202.3203125 C-21.67025858 206.26438404 -20.68951234 210.14647179 -19.56835938 214.02294922 C-18.94311395 216.1978794 -18.35549226 218.38162866 -17.765625 220.56640625 C-10.52940604 246.6602537 1.09423438 272.02407484 17 294 C17.69351563 294.96550781 18.38703125 295.93101562 19.1015625 296.92578125 C24.72350664 304.5839419 30.77225141 311.83407492 37 319 C37.79792969 319.92296875 38.59585938 320.8459375 39.41796875 321.796875 C43.33774649 326.24963457 47.33214842 330.36440199 51.875 334.1796875 C53.39003445 335.47749274 54.86571025 336.8218398 56.3125 338.1953125 C68.20195892 349.46854946 81.84734296 358.79770515 96 367 C96.63244629 367.37688965 97.26489258 367.7537793 97.91650391 368.14208984 C133.68031373 389.40867692 172.95598809 398.47278023 214 402 C214 402.33 214 402.66 214 403 C173.62470718 403.68530984 134.83839524 397.15182164 98 380 C97.31292969 379.68063477 96.62585938 379.36126953 95.91796875 379.03222656 C74.00182315 368.71320007 53.64436543 355.66599718 36 339 C34.71272082 337.89072135 33.42111716 336.78643909 32.125 335.6875 C22.84232109 327.56750006 14.58625897 318.71526238 7 309 C6.22269531 308.03964844 5.44539063 307.07929688 4.64453125 306.08984375 C-20.22071766 274.82050848 -36.22720871 237.74936289 -44.25 198.75 C-44.40122314 198.01942383 -44.55244629 197.28884766 -44.70825195 196.53613281 C-47.67368798 181.17815468 -48.37345082 165.9787436 -48.3125 150.375 C-48.30976578 148.92066559 -48.30976578 148.92066559 -48.30697632 147.43695068 C-48.26158948 133.09323244 -47.79642666 119.1082247 -45 105 C-44.8443457 104.15131348 -44.68869141 103.30262695 -44.52832031 102.42822266 C-38.16999256 68.28235277 -24.63774337 35.61416748 -5 7 C-4.54367188 6.31873047 -4.08734375 5.63746094 -3.6171875 4.93554688 C-2.46485386 3.25253327 -1.23870573 1.6204986 0 0 Z " fill="#FEC250" transform="translate(48,106)"/>
<path d="M0 0 C2.99603125 1.29591997 5.65119125 3.02353374 8.375 4.8125 C9.15738037 5.30878906 9.93976074 5.80507813 10.74584961 6.31640625 C13.17416077 7.86224967 15.58761205 9.42945294 18 11 C19.45119195 11.9319728 20.90299224 12.8629992 22.35546875 13.79296875 C25.86772937 16.04832936 29.3655328 18.32515751 32.86035156 20.60742188 C35.0660165 22.04296647 37.27807151 23.46815359 39.4921875 24.890625 C51.77679872 32.7883542 51.77679872 32.7883542 56.875 36.4375 C61.43260004 39.67863111 66.14111374 42.65102015 70.875 45.625 C71.68283936 46.13450195 72.49067871 46.64400391 73.32299805 47.16894531 C76.7731449 49.34444055 80.22377705 51.51854169 83.68994141 53.66845703 C107.34110343 68.35275856 107.34110343 68.35275856 112 80 C112.5878125 81.3303125 112.5878125 81.3303125 113.1875 82.6875 C115.0539553 90.2968947 114.2401046 97.5796535 112 105 C105.13739516 99.33973833 99.02576729 93.03074817 92.8515625 86.63671875 C92.04203125 85.81300781 91.2325 84.98929687 90.3984375 84.140625 C89.67317871 83.39329102 88.94791992 82.64595703 88.20068359 81.87597656 C83.89006204 78.20137971 79.64545315 77.55696191 74.15234375 77.67578125 C70.89503519 78.16644661 69.21983146 79.6456333 67 82 C64.86880358 85.19679463 64.60090879 86.45018281 64.4375 90.1875 C64.37433594 91.08855469 64.31117187 91.98960937 64.24609375 92.91796875 C65.42861535 97.75221508 68.57307963 100.50674476 72 104 C73.21296753 105.24366333 73.21296753 105.24366333 74.45043945 106.51245117 C77.09512972 109.19328529 79.76219583 111.84973467 82.4375 114.5 C83.35982422 115.4178125 84.28214844 116.335625 85.23242188 117.28125 C87.48599899 119.52315055 89.74189075 121.762666 92 124 C85.81042238 128.12638508 79.20799255 127.52646992 72 127 C60.88263005 124.69878216 53.30424159 116.44921405 47.25 107.3125 C45.97222258 105.33243666 44.71438164 103.34139301 43.46582031 101.34277344 C41.79268851 98.66866072 40.09667955 96.00979665 38.3984375 93.3515625 C35.41397008 88.67802827 32.44434113 83.99533879 29.48144531 79.30810547 C28.21618574 77.33681938 26.91507023 75.40100729 25.5859375 73.47265625 C24 71 24 71 24 69 C23.34 69 22.68 69 22 69 C20.93774414 67.61743164 20.93774414 67.61743164 19.78515625 65.66015625 C19.35211182 64.93578369 18.91906738 64.21141113 18.47290039 63.46508789 C18.00746826 62.67223389 17.54203613 61.87937988 17.0625 61.0625 C16.06439084 59.39470029 15.06434367 57.72805908 14.0625 56.0625 C13.55203125 55.21300781 13.0415625 54.36351562 12.515625 53.48828125 C10.26881557 49.79957608 7.92459288 46.17809748 5.5625 42.5625 C1.45345775 36.25813414 -2.60526169 29.92423031 -6.625 23.5625 C-7.14634521 22.73886963 -7.66769043 21.91523926 -8.20483398 21.06665039 C-8.68637939 20.30344482 -9.1679248 19.54023926 -9.6640625 18.75390625 C-10.09154785 18.07658447 -10.5190332 17.3992627 -10.95947266 16.70141602 C-13.23668912 12.97783048 -13.37229408 10.39307017 -13 6 C-9.31181015 0.34477556 -6.69340765 -0.62373438 0 0 Z " fill="#C2D5EE" transform="translate(26,37)"/>
<path d="M0 0 C2.55835579 1.70557053 4.57576361 3.46431325 6.625 5.75 C10.06664469 4.22038014 12.71651758 2.12270934 15.625 -0.25 C19.7892133 -2.33210665 25.32282306 -1.96970127 29.69921875 -0.6015625 C34.32425535 1.74606996 36.96244339 4.94814533 38.625 9.75 C39.75985626 17.69399383 36.56101275 21.81698058 31.95703125 27.984375 C31.51746094 28.56703125 31.07789063 29.1496875 30.625 29.75 C31.11871094 30.29269531 31.61242187 30.83539063 32.12109375 31.39453125 C32.76175781 32.10996094 33.40242188 32.82539063 34.0625 33.5625 C34.70058594 34.27019531 35.33867187 34.97789062 35.99609375 35.70703125 C39.02875419 39.5105838 38.94436793 43.03932309 38.625 47.75 C36.73172504 53.0090971 34.02716785 55.54008594 29.625 58.75 C25.5234887 60.11717043 21.90416869 60.51858855 17.625 59.75 C15.32993819 58.36893649 13.43257053 56.85874312 11.44921875 55.0625 C9.45839797 53.3606467 9.45839797 53.3606467 5.625 53.75 C3.77310629 55.05808144 3.77310629 55.05808144 2 56.75 C-2.01955456 59.9146493 -4.98125534 60.54111353 -10.046875 60.20703125 C-15.75488189 59.0864997 -19.17649098 55.37006858 -22.375 50.75 C-23.71727234 46.72318299 -24.28180005 42.95826955 -22.62109375 38.9140625 C-20.57217776 35.23404869 -18.10091901 31.96269026 -15.375 28.75 C-15.78492188 28.29109375 -16.19484375 27.8321875 -16.6171875 27.359375 C-17.15601563 26.74578125 -17.69484375 26.1321875 -18.25 25.5 C-18.78367187 24.89671875 -19.31734375 24.2934375 -19.8671875 23.671875 C-22.82945659 19.89613306 -23.88568486 16.79670697 -23.7578125 11.91015625 C-22.87137379 6.90810924 -19.86097237 3.10860331 -16.1875 -0.25 C-10.72373544 -2.19267184 -5.40939484 -2.00347957 0 0 Z " fill="#DF76A5" transform="translate(344.375,319.25)"/>
<path d="M0 0 C4.70439189 2.82263514 4.70439189 2.82263514 6.8125 4.6875 C6.8125 5.3475 6.8125 6.0075 6.8125 6.6875 C11.42047824 5.19668351 14.20781422 2.81156101 17.8125 -0.3125 C21.01639553 -1.91444777 24.32830157 -1.6641761 27.8125 -1.3125 C33.07844344 0.54606827 35.60645768 3.29064196 38.8125 7.6875 C40.38645026 12.40935079 40.38663051 16.22346719 38.5625 20.875 C36.8125 23.6875 36.8125 23.6875 34.5625 25.75 C32.55853352 27.54636378 32.55853352 27.54636378 32.75 30.0625 C34.18708709 33.61295045 36.26612737 35.82283079 38.8125 38.6875 C40.44210338 41.94670677 40.34997598 45.16610566 39.8125 48.6875 C38.0190929 53.14287011 35.49904041 56.58371337 31.4375 59.1875 C26.31218346 61.30832064 22.87835511 61.47252494 17.6875 59.5 C14.5954978 57.55069427 12.27997197 55.37269009 9.8125 52.6875 C6.98712936 53.88284912 5.14174926 55.24874041 2.75 57.25 C-1.55419689 60.82156763 -4.69120603 61.1455245 -10.1875 60.6875 C-15.54203992 58.47182831 -18.46288969 55.89847798 -21.3046875 50.8359375 C-22.83682608 47.10728166 -22.77145739 44.71031756 -22.1875 40.6875 C-20.05936609 36.73525131 -17.46691485 33.73267093 -14.1875 30.6875 C-15.38284912 27.86212936 -16.74874041 26.01674926 -18.75 23.625 C-22.334317 19.30543848 -22.56083072 16.19412808 -22.1875 10.6875 C-20.29422504 5.4284029 -17.58966785 2.89741406 -13.1875 -0.3125 C-8.44826979 -1.8922434 -4.64155484 -1.91122847 0 0 Z " fill="#95D6A4" transform="translate(343.1875,157.3125)"/>
<path d="M0 0 C4.26597716 1.57999154 6.9751133 3.62608792 10 7 C12.0211954 6.11067402 13.7828351 5.18375492 15.47265625 3.75390625 C19.74335271 0.18994443 23.00522341 -0.73545062 28.5703125 -0.4140625 C33.09062504 0.35628015 36.26185341 1.96270652 39.31640625 5.54296875 C42.27637127 10.04995382 42.58980178 13.69178395 42 19 C40.1812483 23.78618868 37.3435502 27.20461869 34 31 C34.49371094 31.55429687 34.98742187 32.10859375 35.49609375 32.6796875 C36.13675781 33.40414062 36.77742188 34.12859375 37.4375 34.875 C38.07558594 35.59429687 38.71367187 36.31359375 39.37109375 37.0546875 C42.03406702 40.23492896 42.3381046 42.61686789 42.28515625 46.76953125 C41.67225567 51.5635892 39.44470433 55.60044268 36 58.9375 C31.71977383 61.21137015 27.82730176 61.3272747 23 61 C18.34440093 59.42183083 15.21756755 57.73237836 12 54 C9.48103951 55.119538 7.60265345 56.31981552 5.4375 58.0625 C1.5359897 61.1637005 -1.91417467 61.34754047 -6.71875 61.27734375 C-11.54383827 60.69073199 -14.20069827 57.8624045 -17.375 54.4375 C-19.67209254 49.57826578 -19.79578135 45.2868246 -19 40 C-17.1875 36.5625 -17.1875 36.5625 -15 34 C-14.4225 33.21625 -13.845 32.4325 -13.25 31.625 C-12.8375 31.08875 -12.425 30.5525 -12 30 C-12.42152344 29.52949219 -12.84304687 29.05898438 -13.27734375 28.57421875 C-13.82519531 27.95160156 -14.37304688 27.32898438 -14.9375 26.6875 C-15.48277344 26.07261719 -16.02804688 25.45773437 -16.58984375 24.82421875 C-19.57566079 20.96167981 -19.50466835 16.57013379 -19.4921875 11.87109375 C-18.66052818 7.01974774 -15.66594502 4.10195348 -12 1 C-8.30769694 -0.84615153 -4.03842104 -0.34792551 0 0 Z " fill="#DF75A5" transform="translate(180,318)"/>
<path d="M0 0 C2.4375 2.1875 2.4375 2.1875 4 4 C7.44164469 2.47038014 10.09151758 0.37270934 13 -2 C16.46090891 -3.73045446 20.20910888 -3.34579074 24 -3 C28.11431714 -1.5758133 31.37911044 0.50591446 34.08203125 3.99609375 C36.11167205 8.42675644 35.71314452 13.28027992 35 18 C33.1875 21.5 33.1875 21.5 31 24 C30.4225 24.78375 29.845 25.5675 29.25 26.375 C28.8375 26.91125 28.425 27.4475 28 28 C28.63228516 28.72316406 28.63228516 28.72316406 29.27734375 29.4609375 C29.82519531 30.09257812 30.37304688 30.72421875 30.9375 31.375 C31.48277344 32.00148438 32.02804687 32.62796875 32.58984375 33.2734375 C36.1141885 37.58856321 35.41735669 42.67483778 35 48 C33.31257138 52.31231759 30.20134249 55.93321055 26 58 C20.60685425 58.93095968 16.37980212 58.71454038 11.5 56.1875 C7.58823529 52.76470588 7.58823529 52.76470588 6 51 C3.48103951 52.119538 1.60265345 53.31981552 -0.5625 55.0625 C-4.62978826 58.29547272 -8.40583243 58.40579928 -13.42578125 58.33984375 C-17.58190996 57.79115908 -20.20936311 56.07745235 -23 53 C-25.71996479 48.26199682 -26.67888737 44.43109894 -26 39 C-24.10953023 34.482262 -21.15378107 30.71695626 -18 27 C-18.49371094 26.45730469 -18.98742187 25.91460937 -19.49609375 25.35546875 C-20.13675781 24.64003906 -20.77742188 23.92460937 -21.4375 23.1875 C-22.07558594 22.47980469 -22.71367187 21.77210938 -23.37109375 21.04296875 C-26.03473892 17.70223392 -26.40984832 14.41114337 -26.33984375 10.1953125 C-25.70658993 6.10463843 -23.76322806 3.0277184 -21 0 C-13.6554691 -4.35231461 -7.4272919 -3.92385232 0 0 Z " fill="#DF75A5" transform="translate(348,240)"/>
<path d="M0 0 C3.52624071 1.33065687 5.54262793 2.51572369 8.125 5.25 C9.80135468 7.19910198 9.80135468 7.19910198 11.875 7.0625 C15.00938629 5.49530685 17.35477998 3.30019132 20 1 C23.45844824 -0.72922412 27.21165265 -0.35136443 31 0 C36.35755096 1.92063148 39.45837216 4.91674432 42 10 C42.76942302 16.89958017 42.03526305 21.35063174 38 27 C36.25 28.9375 36.25 28.9375 35 30 C36.21006355 32.86015021 37.37961022 34.37961022 39.625 36.625 C42.58168179 40.07154623 42.60085304 43.18464532 42.35546875 47.6015625 C41.65331223 52.33919002 39.97975704 55.09372474 36.5 58.3125 C31.72845991 61.53328956 26.59464515 62.05466065 21 61 C17.92206679 59.0237989 15.46101521 56.69474291 13 54 C10.49677775 55.18517741 8.62114507 56.30493201 6.4375 58.0625 C1.80682016 61.7432968 -3.31376687 61.64656545 -9 61 C-14.13308791 58.38679161 -17.1797908 55.46062759 -19 50 C-19.55268181 45.2433123 -19.48351869 41.90034514 -17.1875 37.625 C-15 35 -15 35 -13.1875 33.375 C-11.80255233 32.07417726 -11.80255233 32.07417726 -12 30.1875 C-13.45351701 27.00793155 -15.74390048 24.65091694 -18 22 C-19.78983568 16.63049295 -19.88431724 11.80264667 -17.375 6.6875 C-12.16103007 0.78748139 -7.71903634 -1.15023342 0 0 Z " fill="#DF75A5" transform="translate(260,237)"/>
<path d="M0 0 C3.91814396 1.49854387 7.27008172 3.78833143 10 7 C12.86015021 5.78993645 14.37961022 4.62038978 16.625 2.375 C20.07154623 -0.58168179 23.18464532 -0.60085304 27.6015625 -0.35546875 C32.33919002 0.34668777 35.09372474 2.02024296 38.3125 5.5 C41.41213525 10.09205223 41.68121222 14.61474126 41 20 C39.10885568 23.52144115 36.9683154 26.32851614 34 29 C34.88932598 31.0211954 35.81624508 32.7828351 37.24609375 34.47265625 C40.84727643 38.78795448 41.67053315 42.02516627 41.35546875 47.63671875 C40.64541057 52.35743523 38.96779711 55.10478767 35.5 58.3125 C30.90794777 61.41213525 26.38525874 61.68121222 21 61 C17.90418627 59.33743337 15.71133643 57.79341372 13.375 55.1875 C12.07417726 53.80255233 12.07417726 53.80255233 10.1875 54 C7.00793155 55.45351701 4.65091694 57.74390048 2 60 C-2.63666727 61.54555576 -7.48129637 62.16284976 -12.0390625 60.05859375 C-15.63723499 57.61642987 -18.4393551 55.13111886 -20 51 C-20.68551267 45.89293062 -20.61610883 42.16848226 -18.1875 37.5625 C-16 35 -16 35 -14.1875 33.375 C-12.80255233 32.07417726 -12.80255233 32.07417726 -13 30.1875 C-14.45351701 27.00793155 -16.74390048 24.65091694 -19 22 C-20.78983568 16.63049295 -20.88431724 11.80264667 -18.375 6.6875 C-12.90951977 0.50287763 -8.08869736 -1.29265575 0 0 Z " fill="#DF75A5" transform="translate(261,318)"/>
<path d="M0 0 C0.66 0.99 1.32 1.98 2 3 C6.01508283 8.53438648 10.26533699 13.85994422 14.625 19.125 C15.23472656 19.86363281 15.84445313 20.60226563 16.47265625 21.36328125 C20.74407014 26.52272297 25.08162068 31.62077256 29.45947266 36.68994141 C33.98587036 41.9460656 38.38243228 47.30486379 42.77807617 52.67041016 C47.05400876 57.87913369 51.40998613 63.01140971 55.8125 68.11328125 C58.7602639 71.53521629 61.65275023 74.99333331 64.5 78.5 C65.99942186 80.3338062 67.49944325 82.16712233 69 84 C70.21236328 85.49466797 70.21236328 85.49466797 71.44921875 87.01953125 C81.15547658 98.77425681 92.1389811 109.32743978 103 120 C96.81042238 124.12638508 90.20799255 123.52646992 83 123 C71.88263005 120.69878216 64.30424159 112.44921405 58.25 103.3125 C56.97222258 101.33243666 55.71438164 99.34139301 54.46582031 97.34277344 C52.79268851 94.66866072 51.09667955 92.00979665 49.3984375 89.3515625 C46.41397008 84.67802827 43.44434113 79.99533879 40.48144531 75.30810547 C39.21618574 73.33681938 37.91507023 71.40100729 36.5859375 69.47265625 C35 67 35 67 35 65 C34.34 65 33.68 65 33 65 C31.93774414 63.61743164 31.93774414 63.61743164 30.78515625 61.66015625 C30.35211182 60.93578369 29.91906738 60.21141113 29.47290039 59.46508789 C29.00746826 58.67223389 28.54203613 57.87937988 28.0625 57.0625 C27.06439084 55.39470029 26.06434367 53.72805908 25.0625 52.0625 C24.55203125 51.21300781 24.0415625 50.36351562 23.515625 49.48828125 C21.26881557 45.79957608 18.92459288 42.17809748 16.5625 38.5625 C12.45345775 32.25813414 8.39473831 25.92423031 4.375 19.5625 C3.85365479 18.73886963 3.33230957 17.91523926 2.79516602 17.06665039 C2.31362061 16.30344482 1.8320752 15.54023926 1.3359375 14.75390625 C0.90845215 14.07658447 0.4809668 13.3992627 0.04052734 12.70141602 C-2.21718847 9.00971693 -2.2324666 6.33937654 -2 2 C-1.34 1.34 -0.68 0.68 0 0 Z " fill="#B7C8E9" transform="translate(15,41)"/>
<path d="M0 0 C0 0.33 0 0.66 0 1 C-1.34070557 1.13462646 -1.34070557 1.13462646 -2.70849609 1.27197266 C-61.59779894 7.3244634 -114.33569879 26.47604826 -158.59375 66.8125 C-162.01834911 69.92577192 -165.50619015 72.96487468 -169 76 C-173.77609498 74.35821735 -177.79382904 71.73453298 -182 69 C-166.1681488 53.08408588 -148.72681134 40.6680124 -129 30 C-128.31728027 29.63036133 -127.63456055 29.26072266 -126.93115234 28.87988281 C-87.53150378 7.81626188 -44.38270936 -0.74699019 0 0 Z " fill="#FEC351" transform="translate(261,3)"/>
<path d="M0 0 C-0.00902344 0.556875 -0.01804687 1.11375 -0.02734375 1.6875 C0.14810393 6.20337067 0.70444668 9.18854605 3.81640625 12.5546875 C4.44893311 13.24143555 5.08145996 13.92818359 5.7331543 14.63574219 C9.88574538 18.96678064 14.05273338 23.27726854 18.28759766 27.52783203 C19.87220991 29.12219275 21.44580287 30.72693613 23.01953125 32.33203125 C29.86901621 39.25383659 36.79637002 45.75334718 46.0625 49.25 C46.81660156 49.54390625 47.57070312 49.8378125 48.34765625 50.140625 C63.83122456 55.15739235 79.02362209 54.25484018 94 48 C95.67297124 47.01058349 97.34151823 46.01351664 99 45 C99.66 45 100.32 45 101 45 C99.70051428 48.89845715 97.32552506 50.22587882 94.0625 52.4375 C93.47637939 52.83783447 92.89025879 53.23816895 92.28637695 53.65063477 C78.57246644 62.77022664 62.33119108 65.36156351 46.2265625 62.27734375 C43.05602327 61.3472687 40.05083086 60.26559192 37 59 C36.1440625 58.67257813 35.288125 58.34515625 34.40625 58.0078125 C26.61561363 54.63022648 20.94329834 48.88115883 15 43 C14.08734375 42.10104004 13.1746875 41.20208008 12.234375 40.27587891 C9.08561797 37.17124451 5.94685262 34.0566714 2.8125 30.9375 C2.28701569 30.41496643 1.76153137 29.89243286 1.22012329 29.35406494 C-0.28731849 27.85236383 -1.79083222 26.34684972 -3.29296875 24.83984375 C-4.1749292 23.95675537 -5.05688965 23.07366699 -5.96557617 22.16381836 C-9.6193137 18.27769382 -9.38650685 14.94205468 -9.359375 9.7734375 C-8.80289254 5.47884463 -7.16828113 3.86654007 -4 1 C-2 0 -2 0 0 0 Z " fill="#79C2A4" transform="translate(99,115)"/>
<path d="M0 0 C0.45890625 0.39832031 0.9178125 0.79664062 1.390625 1.20703125 C4.52271585 3.91142062 7.63877459 6.57991771 11 9 C11.86625 8.195625 12.7325 7.39125 13.625 6.5625 C16.68096887 4.03862924 18.93519289 3 23 3 C25.32731556 4.13779872 27.16840714 5.16840714 29 7 C29.79434918 10.73266991 30.01540838 12.39817404 29 16 C25.51571015 20.66205639 21.36178093 24.5297359 17.125 28.5 C15.98368047 29.60471178 14.84433449 30.71146637 13.70703125 31.8203125 C4.42010501 40.81065266 4.42010501 40.81065266 0.1875 41.375 C-3 41 -3 41 -5.875 38.9375 C-8 36 -8 36 -8.625 32.5625 C-7.81470649 27.94382702 -6.23527148 26.31615327 -3 23 C-4.65091778 18.70761377 -7.73754566 16.1206085 -11 13 C-9.46356148 9.31930113 -7.21849055 7.01224796 -4.375 4.25 C-3.55773437 3.45078125 -2.74046875 2.6515625 -1.8984375 1.828125 C-0.95871094 0.92320313 -0.95871094 0.92320313 0 0 Z " fill="#D5DEF4" transform="translate(483,88)"/>
<path d="M0 0 C3.13417917 1.97589556 5.47572057 3.98981832 7.875 6.8125 C7.875 9.8125 7.875 9.8125 6.0390625 11.98901367 C5.20117188 12.81119385 4.36328125 13.63337402 3.5 14.48046875 C2.59765625 15.37314453 1.6953125 16.26582031 0.765625 17.18554688 C-0.1977573 18.12386157 -1.16130108 19.0620105 -2.125 20 C-3.08922346 20.94917769 -4.05277392 21.89903956 -5.015625 22.84960938 C-7.37886746 25.17740319 -9.74881482 27.49793133 -12.125 29.8125 C-13.25521767 28.87841555 -14.38058951 27.93846588 -15.50390625 26.99609375 C-16.13111572 26.47329834 -16.7583252 25.95050293 -17.40454102 25.41186523 C-20.90659344 22.15630323 -21.99964614 18.98246935 -22.5 14.3125 C-21.92491904 8.94507767 -20.1712092 5.51275376 -16.125 2 C-10.94091063 -1.78006516 -6.02658551 -2.29010249 0 0 Z " fill="#7AC3A5" transform="translate(343.125,157.1875)"/>
<path d="M0 0 C9.64116095 8.26385224 9.64116095 8.26385224 10.5 14.8125 C10.2851131 19.75489864 8.22304058 23.33044247 5 27 C1.74928791 29.74882068 -1.30301149 30.91440492 -5.5625 31.4375 C-13.53613205 30.4226741 -15.56132605 27.34511961 -21 21 C-14.07 14.07 -7.14 7.14 0 0 Z " fill="#7AC3A5" transform="translate(373,187)"/>
<path d="M0 0 C5.50144998 3.16955966 10.42784858 8.55705323 12.75 14.5 C13.49546601 21.27696373 13.55072315 28.60232614 9.75 34.5 C7.57973444 36.74743056 5.27941768 38.67050338 2.75 40.5 C2.78480469 39.51 2.81960938 38.52 2.85546875 37.5 C3.37652333 25.64453549 3.37652333 25.64453549 -2.01953125 15.5390625 C-8.09663759 9.84540646 -13.26187547 8.2172052 -21.625 8.375 C-23.49285156 8.40207031 -23.49285156 8.40207031 -25.3984375 8.4296875 C-26.33945313 8.45289063 -27.28046875 8.47609375 -28.25 8.5 C-21.30309659 -0.78798442 -11.21818143 -4.90114723 0 0 Z " fill="#79C3A4" transform="translate(260.25,121.5)"/>
<path d="M0 0 C3.85864484 1.72917249 5.9796712 5.14553627 7.84033203 8.82470703 C8.76535141 13.64220793 8.27225577 17.59713429 6.65283203 22.19970703 C3.9748136 26.07821648 1.31658436 28.33262292 -3.15966797 29.82470703 C-7.85893574 30.37071719 -11.23628211 30.31253352 -15.47216797 28.07470703 C-17.84268503 26.09008809 -20.05661243 24.08953608 -22.15966797 21.82470703 C-19.79644692 16.38560848 -15.40419492 12.66074473 -11.28466797 8.51220703 C-10.46869141 7.66335938 -9.65271484 6.81451172 -8.81201172 5.93994141 C-8.02181641 5.14265625 -7.23162109 4.34537109 -6.41748047 3.52392578 C-5.69705566 2.79004639 -4.97663086 2.05616699 -4.234375 1.30004883 C-2.15966797 -0.17529297 -2.15966797 -0.17529297 0 0 Z " fill="#DD5991" transform="translate(294.15966796875,349.17529296875)"/>
<path d="M0 0 C3.73695565 1.4292461 7.75010276 3.62515413 10 7 C9.62375101 10.96693816 7.51097972 12.83692054 4.74609375 15.546875 C3.89208984 16.39121094 3.03808594 17.23554688 2.15820312 18.10546875 C1.26037109 18.97816406 0.36253906 19.85085938 -0.5625 20.75 C-1.91504883 22.08224609 -1.91504883 22.08224609 -3.29492188 23.44140625 C-5.52337098 25.63448315 -7.75851593 27.82026044 -10 30 C-14.14843485 28.15133714 -16.26089141 25.62746813 -19 22 C-20.78983568 16.63049295 -20.88431724 11.80264667 -18.375 6.6875 C-12.90951977 0.50287763 -8.08869736 -1.29265575 0 0 Z " fill="#DD5991" transform="translate(261,318)"/>
<path d="M0 0 C2.627822 1.75188133 4.71345677 3.22676294 6.625 5.75 C6.33232599 9.70607297 4.10980179 11.61257838 1.37109375 14.296875 C0.51708984 15.14121094 -0.33691406 15.98554688 -1.21679688 16.85546875 C-2.11462891 17.72816406 -3.01246094 18.60085938 -3.9375 19.5 C-5.29004883 20.83224609 -5.29004883 20.83224609 -6.66992188 22.19140625 C-8.89837098 24.38448315 -11.13351593 26.57026044 -13.375 28.75 C-17.80804243 26.72823588 -19.88754821 23.90680509 -22.625 19.9375 C-24.10710802 15.61468494 -24.22892229 11.72954713 -22.4296875 7.55859375 C-17.20347622 -1.36540854 -9.74572352 -3.60952723 0 0 Z " fill="#DD5991" transform="translate(344.375,319.25)"/>
<path d="M0 0 C4.69734949 2.23906392 7.62509475 5.25018949 10 10 C10.54857164 16.36343108 9.58646577 20.66943101 6 26 C2.48214034 29.40792654 -0.53672269 29.88956398 -5.3125 30.25 C-10.5826606 29.89270098 -14.33726633 28.28861859 -18.5 25.0625 C-20 23 -20 23 -19.85961914 21.15527344 C-18.69896837 18.24524078 -16.98079911 16.64343224 -14.74609375 14.453125 C-13.89208984 13.60878906 -13.03808594 12.76445312 -12.15820312 11.89453125 C-11.26037109 11.02183594 -10.36253906 10.14914062 -9.4375 9.25 C-8.53580078 8.36183594 -7.63410156 7.47367187 -6.70507812 6.55859375 C-4.47662902 4.36551685 -2.24148407 2.17973956 0 0 Z " fill="#DD5991" transform="translate(212,349)"/>
<path d="M0 0 C2.5 1.9375 2.5 1.9375 4 4 C3.69884666 7.95741672 1.48780083 9.85963892 -1.25390625 12.546875 C-2.10791016 13.39121094 -2.96191406 14.23554688 -3.84179688 15.10546875 C-4.73962891 15.97816406 -5.63746094 16.85085938 -6.5625 17.75 C-7.91504883 19.08224609 -7.91504883 19.08224609 -9.29492188 20.44140625 C-11.52337098 22.63448315 -13.75851593 24.82026044 -16 27 C-20.14843485 25.15133714 -22.26089141 22.62746813 -25 19 C-26.52698479 14.41904563 -26.91692324 10.31081103 -25.12890625 5.8046875 C-23.02643435 2.06849154 -21.36738991 0.21771254 -17.625 -2 C-10.83410511 -3.87335031 -6.23868664 -3.29590992 0 0 Z " fill="#DD5991" transform="translate(348,240)"/>
<path d="M0 0 C4.72733653 1.72729604 7.61549761 4.31686505 11 8 C9.51346494 11.46629835 7.54277649 13.69022036 4.8671875 16.328125 C4.06152344 17.12734375 3.25585938 17.9265625 2.42578125 18.75 C1.58402344 19.575 0.74226563 20.4 -0.125 21.25 C-0.97449219 22.09046875 -1.82398438 22.9309375 -2.69921875 23.796875 C-4.79504923 25.86915683 -6.89540713 27.93662393 -9 30 C-13.14843485 28.15133714 -15.26089141 25.62746813 -18 22 C-19.78983568 16.63049295 -19.88431724 11.80264667 -17.375 6.6875 C-12.15497586 0.78063058 -7.72371155 -1.13910854 0 0 Z " fill="#DD5891" transform="translate(260,237)"/>
<path d="M0 0 C4.14843485 1.84866286 6.26089141 4.37253187 9 8 C10.55417619 12.66252858 10.54448802 16.48753327 8.875 21.125 C6.07984174 25.41090933 2.95224283 28.34925239 -2 30 C-7.33080848 30.8306388 -11.0516208 30.43199377 -15.5 27.25 C-17.51668603 25.66546098 -18.75806989 24.50699244 -19.86303711 22.19140625 C-20 20 -20 20 -18.27758789 17.70996094 C-17.01289673 16.4845459 -17.01289673 16.4845459 -15.72265625 15.234375 C-14.81708984 14.34492188 -13.91152344 13.45546875 -12.97851562 12.5390625 C-12.00677357 11.60909995 -11.03476484 10.67941598 -10.0625 9.75 C-9.09327057 8.80584661 -8.12515643 7.86054685 -7.15820312 6.9140625 C-4.78289161 4.59783834 -2.39672271 2.2940286 0 0 Z " fill="#DD5991" transform="translate(373,349)"/>
<path d="M0 0 C5.73417089 1.94745426 6.79234897 3.95081876 11 9 C4.07 15.93 -2.86 22.86 -10 30 C-14.83622483 27.58188759 -17.28214897 25.1535531 -19 20 C-19.6861309 15.17369287 -20.09895088 10.81528274 -17.5078125 6.53515625 C-12.00389125 0.22049141 -8.2760387 -0.68860723 0 0 Z " fill="#DD5891" transform="translate(180,318)"/>
<path d="M0 0 C4.62193898 2.31096949 6.89210348 4.2906915 9 9 C9.75251517 13.87044543 9.67819025 18.26684715 7.875 22.875 C1.87360595 29.67657993 1.87360595 29.67657993 -2.625 30.453125 C-8.56448601 30.67908371 -12.44315089 30.11227846 -17 26 C-18.32 24.35 -19.64 22.7 -21 21 C-14.07 14.07 -7.14 7.14 0 0 Z " fill="#DD5891" transform="translate(374,268)"/>
<path d="M0 0 C1.12894876 0.93274109 2.25300876 1.87140122 3.375 2.8125 C4.00148438 3.33457031 4.62796875 3.85664063 5.2734375 4.39453125 C7.52159259 6.4850103 8.89146094 8.18102346 9.30078125 11.26953125 C9.32531776 16.59395422 9.12415375 20.47536353 6 25 C1.18355548 29.45521118 -2.92224072 30.51658705 -9.34765625 30.48828125 C-13.97053468 29.63723588 -17.18663838 26.66994379 -20 23 C-20 20 -20 20 -18.1640625 17.82348633 C-17.32617188 17.00130615 -16.48828125 16.17912598 -15.625 15.33203125 C-14.72265625 14.43935547 -13.8203125 13.54667969 -12.890625 12.62695312 C-11.9272427 11.68863843 -10.96369892 10.7504895 -10 9.8125 C-9.03577654 8.86332231 -8.07222608 7.91346044 -7.109375 6.96289062 C-4.74613254 4.63509681 -2.37618518 2.31456867 0 0 Z " fill="#DD5890" transform="translate(293,268)"/>
<path d="M0 0 C5.43909855 2.36322105 9.1639623 6.75547305 13.3125 10.875 C14.16134766 11.69097656 15.01019531 12.50695313 15.88476562 13.34765625 C16.68205078 14.13785156 17.47933594 14.92804687 18.30078125 15.7421875 C19.03466064 16.4626123 19.76854004 17.18303711 20.5246582 17.92529297 C22 20 22 20 21.86035156 22.11865234 C20.58567047 24.90602252 18.64005796 26.64050787 16.4375 28.75 C15.61121094 29.54921875 14.78492188 30.3484375 13.93359375 31.171875 C13.29550781 31.77515625 12.65742188 32.3784375 12 33 C6.56090145 30.63677895 2.8360377 26.24452695 -1.3125 22.125 C-2.16134766 21.30902344 -3.01019531 20.49304688 -3.88476562 19.65234375 C-4.68205078 18.86214844 -5.47933594 18.07195312 -6.30078125 17.2578125 C-7.03466064 16.5373877 -7.76854004 15.81696289 -8.5246582 15.07470703 C-10 13 -10 13 -9.86035156 10.88134766 C-8.58567047 8.09397748 -6.64005796 6.35949213 -4.4375 4.25 C-3.61121094 3.45078125 -2.78492188 2.6515625 -1.93359375 1.828125 C-1.29550781 1.22484375 -0.65742188 0.6215625 0 0 Z " fill="#F5F8F7" transform="translate(440,46)"/>
<path d="M0 0 C1 3 1 3 0.8125 6.8125 C0.74767904 11.21222247 2.16427905 13.59713486 5 17 C8.28491373 19.18994248 9.83095639 19.35277339 13.6875 19.625 C14.68136719 19.69976562 15.67523438 19.77453125 16.69921875 19.8515625 C17.45847656 19.90054688 18.21773438 19.94953125 19 20 C17.15133714 24.14843485 14.62746813 26.26089141 11 29 C7.38069302 30.20643566 4.80768995 30.32268559 1 30 C-3.61862787 27.42422676 -7.30640263 25.0807921 -9 20 C-9.53938125 15.35778436 -9.49178986 11.94715084 -7.3125 7.75 C-5.00334841 5.00398189 -2.60807385 2.46318086 0 0 Z " fill="#7BC3A5" transform="translate(242,183)"/>
<path d="M0 0 C1.08839774 0.88967344 2.17044608 1.78711574 3.25 2.6875 C4.15492188 3.43580078 4.15492188 3.43580078 5.078125 4.19921875 C7 6 7 6 11 11 C7.37 14.63 3.74 18.26 0 22 C-3.49353838 20.25323081 -5.13945763 19.08594785 -7.75 16.375 C-8.36359375 15.74335937 -8.9771875 15.11171875 -9.609375 14.4609375 C-10.06828125 13.97882813 -10.5271875 13.49671875 -11 13 C-9.46356148 9.31930113 -7.21849055 7.01224796 -4.375 4.25 C-3.55773437 3.45078125 -2.74046875 2.6515625 -1.8984375 1.828125 C-0.95871094 0.92320313 -0.95871094 0.92320313 0 0 Z " fill="#F5F8F8" transform="translate(483,88)"/>
</svg>
