<?xml version="1.0" encoding="UTF-8"?>
<svg version="1.1" xmlns="http://www.w3.org/2000/svg" width="48" height="48">
<path d="M0 0 C0.33 0.66 0.66 1.32 1 2 C2.98 2 4.96 2 7 2 C7.33 1.34 7.66 0.68 8 0 C10.97 0.33 13.94 0.66 17 1 C16.98839844 1.78246094 16.97679688 2.56492187 16.96484375 3.37109375 C16.95582031 4.38300781 16.94679688 5.39492187 16.9375 6.4375 C16.92589844 7.44683594 16.91429688 8.45617187 16.90234375 9.49609375 C16.71387324 11.94021067 16.71387324 11.94021067 18 13 C18.08737645 14.85369611 18.10698153 16.71067541 18.09765625 18.56640625 C18.09515869 19.57904541 18.09266113 20.59168457 18.09008789 21.63500977 C18.08098389 22.93108154 18.07187988 24.22715332 18.0625 25.5625 C18.041875 29.666875 18.02125 33.77125 18 38 C8.76 38 -0.48 38 -10 38 C-10.020625 33.895625 -10.04125 29.79125 -10.0625 25.5625 C-10.071604 24.26642822 -10.08070801 22.97035645 -10.09008789 21.63500977 C-10.09258545 20.62237061 -10.09508301 19.60973145 -10.09765625 18.56640625 C-10.10289307 17.52427979 -10.10812988 16.48215332 -10.11352539 15.40844727 C-10 13 -10 13 -9 12 C-8.92773498 10.14712498 -8.9161878 8.29166122 -8.9375 6.4375 C-8.94652344 5.42558594 -8.95554687 4.41367188 -8.96484375 3.37109375 C-8.97644531 2.58863281 -8.98804688 1.80617188 -9 1 C-5.90226756 0.15937603 -3.21667249 -0.08935201 0 0 Z " fill="#7BC37F" transform="translate(20,5)"/>
<path d="M0 0 C-0.03480469 0.90492187 -0.03480469 0.90492187 -0.0703125 1.828125 C-0.08835937 2.62734375 -0.10640625 3.4265625 -0.125 4.25 C-0.15980469 5.43335938 -0.15980469 5.43335938 -0.1953125 6.640625 C-0.15874652 9.00215087 -0.15874652 9.00215087 1 10.84960938 C2.16079589 13.34577398 2.23044852 15.02501545 2.1953125 17.765625 C2.18564453 19.09980469 2.18564453 19.09980469 2.17578125 20.4609375 C2.15902344 21.38132812 2.14226563 22.30171875 2.125 23.25 C2.11597656 24.18585937 2.10695313 25.12171875 2.09765625 26.0859375 C2.07413791 28.39073489 2.03826826 30.69540033 2 33 C-1.63 33 -5.26 33 -9 33 C-9.12365029 28.78257407 -9.21435665 24.56610889 -9.2746582 20.34741211 C-9.29979524 18.91265486 -9.33391108 17.47802559 -9.37719727 16.04370117 C-9.43789665 13.9806363 -9.46621353 11.91926385 -9.48828125 9.85546875 C-9.51446533 8.61434326 -9.54064941 7.37321777 -9.56762695 6.09448242 C-9 3 -9 3 -6.71948242 1.0715332 C-4 0 -4 0 0 0 Z " fill="#C2E3C4" transform="translate(34,8)"/>
<path d="M0 0 C3.73487777 0.4979837 5.81237635 0.87491756 9 3 C9.34057617 5.98095703 9.34057617 5.98095703 9.29296875 9.7578125 C9.28872391 10.42086395 9.28447906 11.08391541 9.28010559 11.76705933 C9.26329971 13.88678441 9.22564701 16.00556188 9.1875 18.125 C9.17245549 19.56118419 9.15876668 20.99738328 9.14648438 22.43359375 C9.1133909 25.95603764 9.0615968 29.47792636 9 33 C5.37 33 1.74 33 -2 33 C-2.05397048 29.74977768 -2.09365955 26.50045247 -2.125 23.25 C-2.14175781 22.32960938 -2.15851562 21.40921875 -2.17578125 20.4609375 C-2.18222656 19.57148438 -2.18867188 18.68203125 -2.1953125 17.765625 C-2.20578613 16.94868164 -2.21625977 16.13173828 -2.22705078 15.29003906 C-1.97689842 12.76699695 -1.19557031 11.21133805 0 9 C0.23979762 6.63777768 0.23979762 6.63777768 0.125 4.25 C0.10695313 3.45078125 0.08890625 2.6515625 0.0703125 1.828125 C0.04710937 1.22484375 0.02390625 0.6215625 0 0 Z " fill="#C2E3C4" transform="translate(14,8)"/>
<path d="M0 0 C1.32 0 2.64 0 4 0 C3.67 10.56 3.34 21.12 3 32 C6.63 32 10.26 32 14 32 C14 28.7 14 25.4 14 22 C14.33 22 14.66 22 15 22 C15.33 25.96 15.66 29.92 16 34 C6.76 34 -2.48 34 -12 34 C-11.67 30.37 -11.34 26.74 -11 23 C-10.67 23 -10.34 23 -10 23 C-10 25.97 -10 28.94 -10 32 C-6.37 32 -2.74 32 1 32 C0.67 21.44 0.34 10.88 0 0 Z " fill="#66BB6A" transform="translate(22,9)"/>
<path d="M0 0 C0.99 0.33 1.98 0.66 3 1 C2.67 4.63 2.34 8.26 2 12 C1.67 12 1.34 12 1 12 C0.67 8.04 0.34 4.08 0 0 Z " fill="#6ABC6E" transform="translate(35,18)"/>
</svg>
