<?xml version="1.0" encoding="UTF-8"?>
<svg version="1.1" xmlns="http://www.w3.org/2000/svg" width="512" height="512">
<path d="M0 0 C1.13767822 -0.00997513 2.27535645 -0.01995026 3.44750977 -0.03022766 C4.68694336 -0.03089233 5.92637695 -0.03155701 7.20336914 -0.03224182 C8.51635986 -0.04056534 9.82935059 -0.04888885 11.18212891 -0.0574646 C14.78231017 -0.07938934 18.38240645 -0.0882083 21.98264694 -0.09329104 C24.24138124 -0.09694371 26.50009366 -0.10318913 28.75881958 -0.11029243 C36.66742925 -0.13480116 44.57597345 -0.14783732 52.48461914 -0.15138245 C59.80592217 -0.15499625 67.12680043 -0.18473153 74.44797421 -0.22678703 C80.76598722 -0.26178025 87.08386187 -0.27693601 93.40197086 -0.27762848 C97.16031913 -0.27841295 100.91823672 -0.28675651 104.67648315 -0.31562614 C147.89140595 -0.62671864 180.32537841 13.60948487 211.30102539 43.27415466 C211.79989258 43.74579041 212.29875977 44.21742615 212.81274414 44.70335388 C220.81390445 52.29571454 227.72891946 60.42465848 234.30102539 69.27415466 C234.73157227 69.84923767 235.16211914 70.42432068 235.60571289 71.01683044 C242.11665995 79.75481736 247.89282094 88.81850374 253.30102539 98.27415466 C253.6384375 98.8518158 253.97584961 99.42947693 254.32348633 100.02464294 C262.12691268 113.45034281 268.3373005 128.25372349 272.30102539 143.27415466 C273.06286133 143.43270935 273.82469727 143.59126404 274.60961914 143.75462341 C284.1123762 145.90193806 291.75919036 148.79777177 298.30102539 156.27415466 C298.98165039 157.03727966 299.66227539 157.80040466 300.36352539 158.58665466 C303.36150499 162.74514249 306.30102539 167.05115365 306.30102539 172.27415466 C307.23943771 172.26416191 307.23943771 172.26416191 308.19680786 172.25396729 C314.71814832 172.18750904 321.23939229 172.1423104 327.76098633 172.10935974 C330.19364328 172.09428932 332.62627313 172.07382944 335.05883789 172.0478363 C338.558906 172.01137726 342.05861429 171.99441047 345.55883789 171.98118591 C347.18573044 171.95796013 347.18573044 171.95796013 348.8454895 171.93426514 C358.73061496 171.93207046 358.73061496 171.93207046 363.30102539 175.27415466 C366.7673602 179.33884488 366.76842519 183.51904232 366.76977539 188.64524841 C366.77738892 189.4451973 366.78500244 190.24514618 366.79284668 191.06933594 C366.80362063 192.75614816 366.80651179 194.44302695 366.80200195 196.12986755 C366.80102958 198.7005868 366.84267726 201.26831905 366.88696289 203.83860779 C366.89217057 205.48248181 366.89485807 207.12636614 366.89477539 208.77024841 C366.91117065 209.53292526 366.92756592 210.29560211 366.94445801 211.08139038 C366.87110734 216.78976292 365.38377418 219.28114932 361.30102539 223.27415466 C358.2981995 224.77556761 355.21222978 224.41508894 351.91893387 224.40837574 C351.14514861 224.41072797 350.37136335 224.4130802 349.57413006 224.41550371 C346.95388621 224.42221654 344.33369169 224.4217348 341.71343994 224.42132568 C339.82683065 224.42462289 337.94022206 224.42834815 336.05361438 224.43246716 C330.84779489 224.44251158 325.64198694 224.44620787 320.43615913 224.44885647 C314.83002352 224.45275229 309.2238971 224.46233109 303.61776733 224.47106934 C290.06858581 224.49085391 276.51940351 224.50090234 262.97021115 224.50979713 C256.59532124 224.51417664 250.22043216 224.51954431 243.84554291 224.524786 C222.66379076 224.54180003 201.48203927 224.5563203 180.30028152 224.56353474 C178.92999229 224.5640095 177.55970306 224.56448539 176.18941383 224.5649624 C175.50986196 224.56519877 174.83031008 224.56543515 174.13016573 224.56567869 C170.68711894 224.56687991 167.24407217 224.56809535 163.80102539 224.56932068 C163.11773776 224.56956083 162.43445014 224.56980098 161.73045683 224.57004841 C139.57190726 224.577943 117.41341119 224.60137756 95.25488499 224.63387662 C71.83702269 224.66816011 48.41920078 224.68788335 25.00130916 224.69117898 C12.23217474 224.69334734 -0.53688105 224.70214356 -13.30599213 224.72764015 C-24.17827332 224.74929866 -35.0504568 224.75742151 -45.92275712 224.74767337 C-51.47282101 224.74311462 -57.02268309 224.74510611 -62.57271957 224.76443481 C-67.65062995 224.78196702 -72.7281898 224.78115003 -77.80610338 224.76553752 C-79.64598089 224.76314627 -81.48588205 224.76756294 -83.32572326 224.77936617 C-85.82208463 224.79439293 -88.31718914 224.78487737 -90.81351852 224.76913929 C-91.53197496 224.7793615 -92.25043139 224.7895837 -92.99065924 224.80011567 C-97.99843499 224.73095882 -100.82225953 223.38286733 -104.69897461 220.27415466 C-107.4286209 216.74735503 -107.03935621 212.50319142 -107.07006836 208.21946716 C-107.08361107 207.05071548 -107.08361107 207.05071548 -107.09742737 205.85835266 C-107.11190959 204.21264984 -107.12081157 202.5668897 -107.12451172 200.92112732 C-107.13640367 198.41410975 -107.1855994 195.909559 -107.23608398 193.40306091 C-107.24554977 191.80020828 -107.25278406 190.1973406 -107.25756836 188.59446716 C-107.27710068 187.85052704 -107.296633 187.10658691 -107.3167572 186.34010315 C-107.28353725 182.47365334 -106.78479887 179.88312357 -104.4140625 176.87913513 C-100.57228489 173.19315662 -98.05637195 172.01973509 -92.74682617 172.04710388 C-91.76611145 172.04725494 -90.78539673 172.04740601 -89.77496338 172.04756165 C-88.19820831 172.0630455 -88.19820831 172.0630455 -86.58959961 172.07884216 C-84.96667999 172.08308701 -84.96667999 172.08308701 -83.31097412 172.0874176 C-79.85686157 172.09860857 -76.40300873 172.12371147 -72.94897461 172.14915466 C-70.60653044 172.15918585 -68.2640822 172.16831146 -65.92163086 172.17649841 C-60.1806569 172.19854437 -54.43983431 172.23201132 -48.69897461 172.27415466 C-48.74538086 171.04438904 -48.79178711 169.81462341 -48.83959961 168.54759216 C-48.87713497 166.91480407 -48.91353323 165.28198955 -48.94897461 163.64915466 C-48.98249023 162.84091248 -49.01600586 162.03267029 -49.05053711 161.19993591 C-49.14012945 155.6900069 -48.35571246 152.65420329 -44.69897461 148.27415466 C-41.927325 145.64838135 -40.34144496 144.40264873 -36.57397461 143.64915466 C-33.52964173 142.57453716 -33.52964173 142.57453716 -32.65209961 139.93040466 C-31.89589327 137.39069281 -31.24428676 134.86677911 -30.69897461 132.27415466 C-31.71217773 132.32056091 -32.72538086 132.36696716 -33.76928711 132.41477966 C-35.12081993 132.45232224 -36.47238489 132.48871973 -37.82397461 132.52415466 C-38.48913086 132.55767029 -39.15428711 132.59118591 -39.83959961 132.62571716 C-44.98468687 132.72660123 -47.72927571 131.46292919 -51.69897461 128.27415466 C-54.40712013 125.37924048 -55.00831614 123.12029863 -55.69897461 119.27415466 C-59.07492266 119.35556242 -62.44913374 119.46835667 -65.82397461 119.58665466 C-66.77530273 119.60921326 -67.72663086 119.63177185 -68.70678711 119.65501404 C-75.86316163 119.92834779 -80.35412755 120.74347678 -85.40991211 126.19993591 C-86.30547689 127.32286692 -87.19329162 128.45201472 -88.07397461 129.58665466 C-94.66941268 137.708773 -101.82734581 144.63007119 -112.75366211 145.83274841 C-117.96476935 146.36081153 -123.15146963 146.49413313 -128.38647461 146.52415466 C-129.75255859 146.55509216 -129.75255859 146.55509216 -131.14624023 146.58665466 C-136.41506445 146.61726512 -140.16793661 146.28996671 -144.69897461 143.27415466 C-146.26368694 140.14473001 -146.39599419 136.66333243 -145.69897461 133.27415466 C-143.63568508 130.71804594 -142.43067947 129.42283958 -139.16870117 128.75999451 C-137.7682959 128.74766785 -137.7682959 128.74766785 -136.33959961 128.73509216 C-135.30577148 128.71188904 -134.27194336 128.68868591 -133.20678711 128.66477966 C-132.13170898 128.65962341 -131.05663086 128.65446716 -129.94897461 128.64915466 C-117.71690652 128.98982723 -117.71690652 128.98982723 -107.03100586 124.02415466 C-105.87665039 122.66290466 -105.87665039 122.66290466 -104.69897461 121.27415466 C-103.40540039 119.82009216 -103.40540039 119.82009216 -102.08569336 118.33665466 C-101.42682129 117.58617859 -101.42682129 117.58617859 -100.75463867 116.82054138 C-94.41333946 109.65319855 -88.40816663 104.00599394 -78.69897461 102.27415466 C-74.71544272 102.04311124 -70.7499131 102.08478508 -66.76147461 102.14915466 C-65.69606445 102.1581781 -64.6306543 102.16720154 -63.53295898 102.17649841 C-60.92139427 102.19992052 -58.31030524 102.23272015 -55.69897461 102.27415466 C-55.43084961 101.17845154 -55.16272461 100.08274841 -54.88647461 98.95384216 C-53.31675634 94.08978094 -51.76017995 93.15084178 -47.69897461 90.27415466 C-44.88073269 88.8650337 -42.52646179 89.16231914 -39.37866211 89.17649841 C-38.12182617 89.17972107 -36.86499023 89.18294373 -35.57006836 89.18626404 C-34.25135742 89.19464294 -32.93264648 89.20302185 -31.57397461 89.21165466 C-30.23413249 89.21666977 -28.89428861 89.22123266 -27.55444336 89.22532654 C-24.26924255 89.23714381 -20.98413064 89.25361849 -17.69897461 89.27415466 C-17.40474609 88.48484558 -17.11051758 87.6955365 -16.80737305 86.88230896 C-15.56775147 83.96537563 -14.48874722 82.92257556 -11.94897461 81.08665466 C-11.29413086 80.59809998 -10.63928711 80.10954529 -9.96459961 79.60618591 C-3.99631498 76.09724616 1.45217717 76.01751306 8.17602539 76.14915466 C9.49473633 76.16268982 9.49473633 76.16268982 10.84008789 76.17649841 C12.99385249 76.1999089 15.14747553 76.23577457 17.30102539 76.27415466 C17.25461914 75.47751404 17.20821289 74.68087341 17.16040039 73.86009216 C16.86633365 65.22713272 16.86633365 65.22713272 18.92602539 60.71165466 C23.26635214 56.25710879 27.09074455 55.09613151 33.21118164 54.88597107 C35.59521685 54.8662191 37.97943795 54.86383927 40.36352539 54.87571716 C41.62817627 54.87284698 42.89282715 54.86997681 44.19580078 54.86701965 C46.86563143 54.86498108 49.53463384 54.86897865 52.2043457 54.88304138 C55.61391774 54.90013299 59.02278118 54.89028381 62.43232727 54.87232399 C65.70108483 54.85883244 68.96975856 54.86829856 72.23852539 54.87571716 C73.45741455 54.86964447 74.67630371 54.86357178 75.93212891 54.85731506 C86.53880154 54.9451924 86.53880154 54.9451924 91.30102539 58.27415466 C96.81435697 64.08550417 96.30102539 68.00874616 96.30102539 76.27415466 C103.89102539 76.27415466 111.48102539 76.27415466 119.30102539 76.27415466 C114.82485783 61.52546818 114.82485783 61.52546818 103.73548889 51.59754944 C98.38399642 49.032119 93.90584895 48.57480727 88.03710938 48.66233826 C87.06499512 48.65667343 86.09288086 48.65100861 85.09130859 48.64517212 C81.90950771 48.63177596 78.72886851 48.65254089 75.54711914 48.67259216 C73.31851935 48.66708578 71.08992465 48.65895558 68.86134338 48.64833069 C63.01384866 48.62551357 57.16672878 48.62963879 51.31921387 48.64213562 C41.95802502 48.66048589 32.5970549 48.65039497 23.23591805 48.61627579 C19.97818801 48.61019679 16.72093415 48.62339875 13.46324158 48.63825989 C11.45400878 48.63531043 9.44477686 48.63165489 7.43554688 48.62718201 C6.53919022 48.63647232 5.64283356 48.64576263 4.71931458 48.65533447 C-2.84629378 48.60792528 -10.62637679 47.28069228 -16.34741211 41.89524841 C-21.82395854 35.32655832 -23.49704902 28.79554937 -23.10913086 20.32102966 C-22.0885444 12.73953024 -18.49834594 8.59369676 -12.79663086 3.71946716 C-8.64501399 0.85894902 -5.00153789 0.02359532 0 0 Z M34.30102539 72.27415466 C34.30102539 73.59415466 34.30102539 74.91415466 34.30102539 76.27415466 C49.15102539 76.27415466 64.00102539 76.27415466 79.30102539 76.27415466 C79.30102539 74.95415466 79.30102539 73.63415466 79.30102539 72.27415466 C64.45102539 72.27415466 49.60102539 72.27415466 34.30102539 72.27415466 Z M173.30102539 97.27415466 C172.13435872 99.107488 172.13435872 99.107488 172.30102539 101.27415466 C173.63562536 104.4623657 174.52736329 105.90768314 177.67602539 107.39915466 C180.54397314 107.50615383 180.54397314 107.50615383 183.17602539 105.14915466 C185.53302456 102.51710241 185.53302456 102.51710241 185.42602539 99.64915466 C183.96839815 96.5719416 182.33223447 95.71397898 179.30102539 94.27415466 C176.9804276 94.27415466 175.10934682 96.00832966 173.30102539 97.27415466 Z M-38.69897461 106.27415466 C-38.69897461 109.24415466 -38.69897461 112.21415466 -38.69897461 115.27415466 C-34.40897461 115.27415466 -30.11897461 115.27415466 -25.69897461 115.27415466 C-25.03897461 112.30415466 -24.37897461 109.33415466 -23.69897461 106.27415466 C-28.64897461 106.27415466 -33.59897461 106.27415466 -38.69897461 106.27415466 Z M-31.69897461 160.27415466 C-31.69897461 164.23415466 -31.69897461 168.19415466 -31.69897461 172.27415466 C73.90102539 172.27415466 179.50102539 172.27415466 288.30102539 172.27415466 C285.19908057 167.10424663 283.04716125 164.45998606 277.55102539 162.08665466 C269.44216242 160.05943892 261.24806136 160.13248165 252.94346619 160.15390015 C251.72296131 160.15304572 250.50245644 160.1521913 249.24496657 160.15131098 C245.87901133 160.14995445 242.51311494 160.15305761 239.14716685 160.15808904 C235.50925428 160.16242447 231.87134339 160.16094493 228.23342896 160.16018677 C221.93770356 160.15966349 215.64198857 160.1627898 209.34626579 160.16842461 C200.24380949 160.17656618 191.1413582 160.17915755 182.03889865 160.1804126 C167.26925641 160.18259894 152.49961971 160.18924771 137.72998047 160.19871521 C123.38623075 160.20790013 109.04248254 160.21497568 94.69873047 160.21922302 C93.81395729 160.21948575 92.92918412 160.21974847 92.01759963 160.22001915 C87.57876619 160.22132423 83.13993274 160.22258793 78.70109928 160.22383106 C41.9010707 160.23419067 5.10104857 160.25187219 -31.69897461 160.27415466 Z " fill="#5407A5" transform="translate(145.698974609375,143.72584533691406)"/>
<path d="M0 0 C1.03981018 -0.00571014 2.07962036 -0.01142029 3.15093994 -0.01730347 C4.86973862 -0.01898026 4.86973862 -0.01898026 6.6232605 -0.02069092 C8.42857239 -0.02813828 8.42857239 -0.02813828 10.27035522 -0.03573608 C13.5811391 -0.04786504 16.89185959 -0.0553104 20.20265818 -0.05974674 C22.27690178 -0.06268011 24.35113988 -0.06678583 26.42538071 -0.07125092 C32.93088255 -0.08494177 39.43637177 -0.09459571 45.94188702 -0.09845281 C53.41959413 -0.10291145 60.89711643 -0.12034952 68.37476742 -0.1494534 C74.17034266 -0.1712152 79.96586654 -0.18116505 85.76148212 -0.18249393 C89.2138847 -0.1835334 92.66611398 -0.1892529 96.11847305 -0.20731354 C113.14016791 -0.28312328 129.41045366 -0.19669707 145.58370972 5.76544189 C146.27819214 6.01777588 146.97267456 6.27010986 147.6882019 6.53009033 C165.1061763 13.14939285 179.68522032 24.39741817 193.08370972 37.14044189 C193.63784546 37.66202881 194.1919812 38.18361572 194.76290894 38.7210083 C204.66642361 48.09754208 213.15232945 58.05626456 221.08370972 69.14044189 C221.7379895 70.0356958 221.7379895 70.0356958 222.40548706 70.94903564 C233.05108917 85.59140767 250.08370972 109.48095979 250.08370972 128.14044189 C160.65370972 128.14044189 71.22370972 128.14044189 -20.91629028 128.14044189 C-19.59629028 122.86044189 -18.27629028 117.58044189 -16.91629028 112.14044189 C-15.94369263 108.20557861 -15.94369263 108.20557861 -14.95144653 104.19122314 C-14.29513887 101.61147915 -13.63759136 99.03205026 -12.97879028 96.45294189 C-12.8180603 95.79398926 -12.65733032 95.13503662 -12.49172974 94.45611572 C-12.01563561 92.50954161 -11.51507825 90.56900235 -11.01394653 88.62872314 C-10.73043335 87.49990723 -10.44692017 86.37109131 -10.15481567 85.20806885 C-8.47640389 81.05091448 -5.95648962 78.16054156 -1.91629028 76.14044189 C-0.17456605 76.04386266 1.57086345 76.01140647 3.31526184 76.00914001 C4.42434402 76.00513184 5.53342621 76.00112366 6.67611694 75.99699402 C8.50970764 75.99778709 8.50970764 75.99778709 10.38034058 75.99859619 C12.34965127 75.99326297 14.31896196 75.98792378 16.28827202 75.98235953 C18.40862709 75.97715752 20.52897596 75.97424738 22.64933586 75.97177696 C27.06520891 75.96587338 31.48100109 75.94933984 35.89683533 75.93043518 C37.40769477 75.92409773 38.91855426 75.9177721 40.4294138 75.91145802 C41.18607653 75.9082922 41.94273926 75.90512639 42.72233117 75.90186465 C53.00512991 75.85975777 63.28789103 75.82680173 73.57077026 75.81451416 C80.50409181 75.80614395 87.43721334 75.78369293 94.37043482 75.74515849 C98.04096678 75.72536365 101.71119949 75.71300447 105.38178825 75.71799278 C109.47403322 75.72348643 113.56553023 75.69828333 117.65768433 75.67047119 C119.48823868 75.68037331 119.48823868 75.68037331 121.35577393 75.69047546 C122.46767593 75.67800781 123.57957794 75.66554016 124.72517395 75.6526947 C125.69322433 75.65030635 126.6612747 75.647918 127.65865993 75.64545727 C130.20773069 75.34430089 130.20773069 75.34430089 131.89884281 73.34011555 C135.00594729 67.57185936 132.71872304 60.39520854 131.02120972 54.45294189 C130.68947754 53.28154663 130.68947754 53.28154663 130.3510437 52.08648682 C126.39177515 38.84416449 120.0367194 27.81794008 108.13449097 20.49981689 C97.1104039 15.58767566 86.41491866 15.7363758 74.55391312 15.79088211 C71.25817656 15.80472318 67.96303505 15.79812456 64.66729736 15.78604126 C55.30524591 15.75520812 45.94333899 15.76003104 36.58126831 15.78009033 C30.83666474 15.79099565 25.09251353 15.77785353 19.34797287 15.75019455 C17.16389625 15.74475369 14.97977437 15.74881859 12.79573441 15.76259232 C9.74880547 15.78160299 6.7033662 15.77026732 3.65646362 15.7522583 C2.75664764 15.76559708 1.85683167 15.77893585 0.92974854 15.79267883 C-3.51487964 15.73419971 -5.36319338 15.55869265 -9.0145874 12.79751587 C-10.91629028 10.14044189 -10.91629028 10.14044189 -10.91629028 7.01544189 C-8.91481425 1.26119831 -5.80348397 0.01904313 0 0 Z M169.08370972 81.14044189 C167.91704305 82.97377523 167.91704305 82.97377523 168.08370972 85.14044189 C169.41830969 88.32865293 170.31004762 89.77397037 173.45870972 91.26544189 C176.32665747 91.37244106 176.32665747 91.37244106 178.95870972 89.01544189 C181.31570888 86.38338965 181.31570888 86.38338965 181.20870972 83.51544189 C179.75108248 80.43822884 178.1149188 79.58026621 175.08370972 78.14044189 C172.76311192 78.14044189 170.89203115 79.87461689 169.08370972 81.14044189 Z " fill="#8A85FE" transform="translate(149.91629028320313,159.85955810546875)"/>
<path d="M0 0 C145.53 0 291.06 0 441 0 C441 6.27 441 12.54 441 19 C295.47 19 149.94 19 0 19 C0 12.73 0 6.46 0 0 Z " fill="#7B8CFE" transform="translate(55,333)"/>
<path d="M0 0 C5.87529418 3.25573627 8.7563121 8.2001242 11.6875 14.0625 C12.39812663 23.06832593 11.62463155 28.78267974 6.5 36.25 C1.19154611 41.55845389 -3.27212274 43.30068135 -10.8125 43.5625 C-17.56740234 43.31260766 -22.37076991 42.21482374 -27.05859375 37.19140625 C-32.60582332 30.15427329 -34.29167324 23.98804073 -33.3125 15.0625 C-31.48854112 8.42467496 -26.87733184 3.89674168 -21.3125 0.0625 C-14.36371712 -3.27783132 -7.02553122 -3.07764963 0 0 Z M-16.3125 17.0625 C-17.47916667 18.89583333 -17.47916667 18.89583333 -17.3125 21.0625 C-15.97790003 24.25071104 -15.0861621 25.69602848 -11.9375 27.1875 C-9.06955225 27.29449916 -9.06955225 27.29449916 -6.4375 24.9375 C-4.08050084 22.30544775 -4.08050084 22.30544775 -4.1875 19.4375 C-5.64512724 16.36028694 -7.28129092 15.50232431 -10.3125 14.0625 C-12.6330978 14.0625 -14.50417857 15.796675 -16.3125 17.0625 Z " fill="#5408A5" transform="translate(335.3125,223.9375)"/>
<path d="M0 0 C1.9375 0.34765625 1.9375 0.34765625 4.375 1.97265625 C6.44480633 5.11876188 7.00701298 6.52444239 6.9375 10.34765625 C6.20087994 12.10098005 5.40130985 13.82836056 4.5625 15.53515625 C-0.14630557 25.36165527 0.82801812 32.87193716 3.44726562 43.07739258 C6.69738296 55.94435444 4.85971415 67.91125692 -1.68359375 79.5078125 C-3.28090147 81.63906445 -4.78594019 82.96530494 -7.0625 84.34765625 C-10.92149147 84.27874569 -13.27626738 83.87181133 -16.5 81.72265625 C-18.67072889 78.42314834 -18.32480054 76.2619874 -18.0625 72.34765625 C-16.94030068 68.75661843 -15.55840543 65.33746531 -14.15625 61.84765625 C-12.06096698 55.14275058 -13.31237386 49.59609078 -15.0625 43.03515625 C-18.43101178 29.4339679 -17.53549425 17.56559827 -10.34375 5.1875 C-7.33194525 0.86262184 -5.52961783 -0.23378899 0 0 Z " fill="#5306A5" transform="translate(493.0625,160.65234375)"/>
<path d="M0 0 C2.5 1.5 2.5 1.5 4 4 C4.88712414 9.51988354 3.76770525 12.8658515 1.5 17.9375 C-2.63085282 27.3996244 -0.8309635 34.08842561 1.56054688 43.76904297 C4.59484507 56.26207617 2.45987633 67.61222299 -3.6875 78.9921875 C-5.48806208 81.74661878 -6.83540983 83.02048399 -10 84 C-13.70537805 83.93611417 -16.01717965 83.79259706 -18.9375 81.4375 C-20.47946937 77.90004085 -20.62589016 74.74868254 -20 71 C-19.40765378 69.51913445 -18.75845514 68.06008998 -18.0625 66.625 C-14.23915779 58.53979603 -14.76828628 52.14275849 -16.9375 43.6875 C-20.85988538 28.38247313 -18.89524316 15.75300421 -11 2 C-7.30669268 -0.46220488 -4.2863512 -0.67270703 0 0 Z " fill="#5306A5" transform="translate(447,161)"/>
</svg>
