<?xml version="1.0" encoding="UTF-8"?>
<svg version="1.1" xmlns="http://www.w3.org/2000/svg" width="512" height="512">
<path d="M0 0 C2.9608485 -0.32500289 5.7171838 -0.45217187 8.68385315 -0.45497131 C9.59392764 -0.46741251 10.50400212 -0.47985371 11.44165462 -0.49267191 C14.51004161 -0.5305799 17.57815469 -0.54670505 20.64672852 -0.56274414 C22.83930067 -0.58480385 25.03186176 -0.60798806 27.22441101 -0.63221741 C34.44247774 -0.70579561 41.66058049 -0.74668981 48.87890625 -0.78515625 C51.36196391 -0.7999204 53.84502094 -0.81479231 56.32807732 -0.82977104 C66.65730319 -0.88991679 76.98651182 -0.9418647 87.31587315 -0.97176456 C89.9971221 -0.97953378 92.67837081 -0.98737743 95.35961914 -0.99536133 C96.02602505 -0.99733717 96.69243096 -0.99931301 97.379031 -1.00134873 C108.16609509 -1.03493139 118.95184531 -1.12667022 129.73830725 -1.24254567 C140.8158938 -1.36057258 151.89293447 -1.42446877 162.97116226 -1.43924993 C169.19025932 -1.44891061 175.40717589 -1.48192983 181.62567329 -1.57191658 C187.47970381 -1.65536783 193.33020315 -1.67222343 199.18469429 -1.63838768 C201.33058432 -1.63745062 203.47664088 -1.66039813 205.62197495 -1.7092514 C221.42273143 -2.04925561 221.42273143 -2.04925561 225.70741534 1.35761189 C228.1408292 4.12998271 229.81183346 7.08316012 231.34950161 10.42131901 C236.95610302 22.57779126 248.14728368 31.537305 259.32421875 38.359375 C260.20722656 38.90078125 261.09023438 39.4421875 262 40 C263.02440186 40.50660156 264.04880371 41.01320312 265.10424805 41.53515625 C268.16151588 44.13748118 268.4299323 44.39577551 268.87158203 48.09082031 C268.95159257 49.7519495 268.99476586 51.4151212 269.0078125 53.078125 C269.0277829 53.96352966 269.0477533 54.84893433 269.06832886 55.76116943 C269.09867352 57.63372138 269.11278094 59.50659698 269.11181641 61.37939453 C269.12491323 64.2311061 269.23364758 67.06873902 269.34765625 69.91796875 C269.5932987 83.17666417 269.5932987 83.17666417 265.43139648 87.93945312 C262.36552404 89.97284621 259.34075003 91.4753624 256 93 C254.23391108 94.28402689 252.49762298 95.61141954 250.8125 97 C249.60207031 97.99580078 249.60207031 97.99580078 248.3671875 99.01171875 C247.58601563 99.66785156 246.80484375 100.32398438 246 101 C245.23945313 101.62519531 244.47890625 102.25039062 243.6953125 102.89453125 C237.67535646 108.00836934 232.82004573 113.76076666 228 120 C227.03126953 121.19302734 227.03126953 121.19302734 226.04296875 122.41015625 C203.88048125 150.89188662 195.72431325 187.62070387 199.31347656 223.09863281 C202.91638785 250.84381411 214.28006954 275.4513685 232 297 C232.70898438 297.88042969 233.41796875 298.76085937 234.1484375 299.66796875 C241.90697671 308.86737952 254.34960538 320.47735404 265.60913086 325.0625 C268.32309813 327.26183057 268.39866922 327.66217799 268.78979492 330.96142578 C268.88375706 332.6212793 268.94517992 334.28317614 268.98046875 335.9453125 C269.00659744 336.82976044 269.03272614 337.71420837 269.05964661 338.62545776 C269.10249879 340.49971206 269.13098717 342.37434138 269.14624023 344.24902344 C269.18713857 347.09980686 269.32904189 349.93415758 269.47460938 352.78125 C269.81408418 365.68499473 269.81408418 365.68499473 266.65917969 369.71105957 C263.88845124 372.12808235 260.91476244 373.77962861 257.59448242 375.32568359 C243.04945468 382.10078379 234.14857404 395.8473224 226 409 C225.34 409.99 224.68 410.98 224 412 C221.0391515 412.32500289 218.2828162 412.45217187 215.31614685 412.45497131 C214.40607236 412.46741251 213.49599788 412.47985371 212.55834538 412.49267191 C209.48995839 412.5305799 206.42184531 412.54670505 203.35327148 412.56274414 C201.16069933 412.58480385 198.96813824 412.60798806 196.77558899 412.63221741 C189.55752226 412.70579561 182.33941951 412.74668981 175.12109375 412.78515625 C172.63803609 412.7999204 170.15497906 412.81479231 167.67192268 412.82977104 C157.34269681 412.88991679 147.01348818 412.9418647 136.68412685 412.97176456 C134.0028779 412.97953378 131.32162919 412.98737743 128.64038086 412.99536133 C127.64077199 412.99832509 127.64077199 412.99832509 126.620969 413.00134873 C115.83390491 413.03493139 105.04815469 413.12667022 94.26169275 413.24254567 C83.1841062 413.36057258 72.10706553 413.42446877 61.02883774 413.43924993 C54.80974068 413.44891061 48.59282411 413.48192983 42.37432671 413.57191658 C36.52029619 413.65536783 30.66979685 413.67222343 24.81530571 413.63838768 C22.66941568 413.63745062 20.52335912 413.66039813 18.37802505 413.7092514 C2.57726857 414.04925561 2.57726857 414.04925561 -1.70741534 410.64238811 C-4.1408292 407.87001729 -5.81183346 404.91683988 -7.34950161 401.57868099 C-14.05710843 387.03496184 -27.87902954 378.12893028 -41 370 C-41.99 369.34 -42.98 368.68 -44 368 C-44.4160532 364.97266305 -44.63660657 362.15832224 -44.71484375 359.1171875 C-44.73905899 358.22895294 -44.76327423 357.34071838 -44.78822327 356.42556763 C-44.82976203 354.54105205 -44.86192169 352.65631025 -44.88549805 350.77148438 C-44.93699527 347.90311304 -45.06846875 345.04528425 -45.20117188 342.1796875 C-45.54236115 328.77965883 -45.54236115 328.77965883 -41.44677734 324.05395508 C-38.37591869 322.0196941 -35.34659489 320.52290199 -32 319 C-30.21261853 317.69557107 -28.4554769 316.34732833 -26.75 314.9375 C-25.94433594 314.27621094 -25.13867188 313.61492187 -24.30859375 312.93359375 C-23.54675781 312.29550781 -22.78492187 311.65742188 -22 311 C-21.28972656 310.41347656 -20.57945313 309.82695312 -19.84765625 309.22265625 C-15.07227091 305.18053545 -10.91398714 300.87886668 -7 296 C-6.17628906 294.97519531 -5.35257813 293.95039063 -4.50390625 292.89453125 C19.05088361 262.66616711 28.62730579 225.63141785 24.50390625 187.63671875 C20.04234378 154.21860948 2.67305368 120.11967342 -24 99 C-32.36635222 92.17438966 -32.36635222 92.17438966 -41.65673828 86.90576172 C-44.33120605 84.73063196 -44.39868696 84.30294929 -44.78979492 81.03857422 C-44.88375706 79.3787207 -44.94517992 77.71682386 -44.98046875 76.0546875 C-45.00659744 75.17023956 -45.03272614 74.28579163 -45.05964661 73.37454224 C-45.10249879 71.50028794 -45.13098717 69.62565862 -45.14624023 67.75097656 C-45.18713857 64.90019314 -45.32904189 62.06584242 -45.47460938 59.21875 C-45.81408418 46.31500527 -45.81408418 46.31500527 -42.65917969 42.28894043 C-39.88845124 39.87191765 -36.91476244 38.22037139 -33.59448242 36.67431641 C-19.04945468 29.89921621 -10.14857404 16.1526776 -2 3 C-1.34 2.01 -0.68 1.02 0 0 Z " fill="#FEBCBB" transform="translate(144,50)"/>
<path d="M0 0 C1.0250169 -0.00445784 2.0500338 -0.00891569 3.10611182 -0.01350862 C4.24081434 -0.01332426 5.37551686 -0.01313989 6.5446043 -0.01294994 C7.74334972 -0.01662663 8.94209513 -0.02030332 10.17716616 -0.02409142 C13.51507088 -0.03323029 16.85292637 -0.03783057 20.19083893 -0.04048073 C23.78671449 -0.04437938 27.38257575 -0.05395798 30.97844219 -0.0626936 C39.66735866 -0.08246987 48.35627632 -0.09252543 57.04520968 -0.10142139 C61.1344525 -0.10580215 65.22369403 -0.11116949 69.31293583 -0.11641026 C82.90198307 -0.13342326 96.4910295 -0.14791839 110.08008575 -0.155159 C113.60770258 -0.15706897 117.13531941 -0.15898929 120.66293621 -0.16094494 C121.5397344 -0.16142868 122.41653259 -0.16191242 123.31990042 -0.16241082 C137.52986086 -0.1707147 151.73973722 -0.19605731 165.94966093 -0.22852562 C180.5303001 -0.26157008 195.1108965 -0.27960536 209.69157332 -0.28280324 C217.88151619 -0.2849707 226.07133643 -0.29375384 234.26124287 -0.31926441 C241.23480345 -0.34093573 248.20821163 -0.34903949 255.18180207 -0.33929763 C258.74094788 -0.33474256 262.29977899 -0.33670854 265.85888195 -0.35605907 C269.71511071 -0.37684433 273.5709023 -0.36673875 277.42717266 -0.35352612 C278.55518301 -0.36449536 279.68319337 -0.37546461 280.84538585 -0.38676625 C288.41380729 -0.32388739 288.41380729 -0.32388739 292.3481884 2.03970528 C295.35833627 5.48839065 295.46563181 8.13540269 295.98886395 12.63422108 C297.6380944 24.41959786 301.99212165 35.09004534 311.30136395 42.88422108 C319.87266567 49.0515517 328.59828032 51.61408444 339.0474577 52.48187733 C342.72817996 53.24926886 344.48678396 54.55202904 347.17636395 57.13422108 C348.33190472 59.44530263 348.30445982 60.76238677 348.31007671 63.33401966 C348.3143417 64.21447453 348.31860668 65.09492939 348.32300091 66.0020647 C348.32254772 66.97041752 348.32209454 67.93877033 348.32162762 68.93646717 C348.32498623 69.95445896 348.32834484 70.97245075 348.33180523 72.02129078 C348.34133555 75.40009232 348.34325942 78.77884441 348.3443327 82.15765858 C348.34754395 84.49934377 348.35090792 86.84102875 348.35441875 89.18271351 C348.36041532 94.09721816 348.36225813 99.01170521 348.36166668 103.92621326 C348.36156505 110.23032859 348.37521535 116.53433129 348.39243889 122.83841991 C348.403546 127.67677805 348.40558628 132.51510885 348.40505695 137.35347843 C348.40623909 139.67794273 348.41067389 142.00240768 348.41838932 144.32685947 C348.42816265 147.57571564 348.42532154 150.82432598 348.41928387 154.07318592 C348.42490337 155.03749027 348.43052288 156.00179462 348.43631268 156.99532032 C348.43002094 158.32446209 348.43002094 158.32446209 348.4236021 159.68045521 C348.42414687 160.44847651 348.42469164 161.2164978 348.42525291 162.00779247 C348.13485551 164.48885604 347.53074766 166.03728165 346.17636395 168.13422108 C342.53636652 170.23421959 338.89417106 171.84797897 334.9927702 173.40375233 C326.09285535 177.00539011 318.80552369 181.36222885 311.17636395 187.13422108 C310.52280926 187.60215076 309.86925457 188.07008045 309.1958952 188.55218983 C292.90977734 201.1246086 282.38394802 223.8218173 279.4927702 243.74750233 C277.08314804 269.53938388 283.7125086 293.84739778 299.80136395 314.32172108 C311.50276742 327.71768756 326.15654255 335.67437159 342.4771452 342.24750233 C345.20165969 343.66926047 346.80966375 345.40082069 348.17636395 348.13422108 C348.27638477 349.52919034 348.31573231 350.92876183 348.32353497 352.32729053 C348.33426792 353.64580509 348.33426792 353.64580509 348.3452177 354.99095631 C348.34790661 355.95773808 348.35059551 356.92451984 348.3533659 357.92059803 C348.3599371 358.93698353 348.36650829 359.95336903 348.37327862 361.00055408 C348.39303989 364.37453752 348.40468008 367.7484764 348.4146452 371.12250233 C348.41872072 372.27284647 348.42279625 373.42319061 348.42699528 374.60839367 C348.44786735 380.69602117 348.46216458 386.78362605 348.47152996 392.87128162 C348.48260119 399.16644315 348.51700643 405.46125185 348.55670166 411.75628853 C348.58281701 416.59039954 348.59121726 421.42442583 348.59481144 426.25860119 C348.59968996 428.57946819 348.61133969 430.9003311 348.62984943 433.22112942 C348.65413381 436.46759283 348.65329519 439.71313455 348.64633465 442.95966053 C348.65914471 443.92036961 348.67195477 444.88107868 348.68515301 445.87090015 C348.65163587 450.15462836 348.56575495 452.50024742 346.2817564 456.21886158 C343.94794499 458.34202291 342.76844824 458.85725012 339.67636395 459.25922108 C338.80109051 459.39972889 337.92581707 459.5402367 337.0240202 459.68500233 C336.08429363 459.83324451 335.14456707 459.9814867 334.17636395 460.13422108 C321.84621612 462.61949144 311.41687102 467.22495827 303.48886395 477.32172108 C298.28222814 485.16592896 296.69802988 493.73177089 295.86386395 502.97015858 C295.06322112 506.65493521 293.76667854 508.43597671 291.17636395 511.13422108 C288.7148032 512.36500145 287.10638341 512.26290604 284.35272789 512.26844215 C283.32771099 512.2729 282.30269409 512.27735784 281.24661607 512.28195077 C280.11191355 512.28176641 278.97721103 512.28158205 277.80812359 512.2813921 C276.01000547 512.28690713 276.01000547 512.28690713 274.17556173 512.29253358 C270.83765701 512.30167244 267.49980152 512.30627273 264.16188896 512.30892289 C260.5660134 512.31282154 256.97015214 512.32240013 253.3742857 512.33113575 C244.68536923 512.35091202 235.99645157 512.36096758 227.30751821 512.36986354 C223.21827539 512.37424431 219.12903386 512.37961164 215.03979206 512.38485241 C201.45074482 512.40186542 187.86169839 512.41636055 174.27264214 512.42360115 C170.74502531 512.42551112 167.21740848 512.42743144 163.68979168 512.42938709 C162.81299349 512.42987083 161.9361953 512.43035457 161.03282747 512.43085297 C146.82286703 512.43915685 132.61299067 512.46449946 118.40306696 512.49696777 C103.82242779 512.53001223 89.24183139 512.54804752 74.66115457 512.55124539 C66.4712117 512.55341286 58.28139146 512.56219599 50.09148502 512.58770657 C43.11792444 512.60937789 36.14451626 512.61748164 29.17092582 512.60773978 C25.61178001 512.60318471 22.0529489 512.6051507 18.49384594 512.62450123 C14.63761718 512.64528649 10.78182559 512.63518091 6.92555523 512.62196827 C5.2335397 512.63842214 5.2335397 512.63842214 3.50734204 512.65520841 C-4.0610794 512.59232955 -4.0610794 512.59232955 -7.99546051 510.22873688 C-11.00560838 506.7800515 -11.11290392 504.13303946 -11.63613605 499.63422108 C-13.28536651 487.8488443 -17.63939376 477.17839682 -26.94863605 469.38422108 C-35.51993778 463.21689045 -44.24555243 460.65435771 -54.6947298 459.78656483 C-58.37545207 459.01917329 -60.13405607 457.71641312 -62.82363605 455.13422108 C-63.97917683 452.82313952 -63.95173193 451.50605539 -63.95734882 448.93442249 C-63.96161381 448.05396763 -63.96587879 447.17351276 -63.97027302 446.26637745 C-63.96981983 445.29802464 -63.96936665 444.32967182 -63.96889973 443.33197498 C-63.97225834 442.31398319 -63.97561695 441.2959914 -63.97907734 440.24715137 C-63.98860766 436.86834983 -63.99053153 433.48959774 -63.9916048 430.11078358 C-63.99481606 427.76909839 -63.99818003 425.4274134 -64.00169086 423.08572865 C-64.00768743 418.17122399 -64.00953024 413.25673694 -64.00893879 408.34222889 C-64.00883716 402.03811356 -64.02248746 395.73411086 -64.039711 389.43002224 C-64.05081811 384.59166411 -64.05285839 379.7533333 -64.05232906 374.91496372 C-64.0535112 372.59049943 -64.057946 370.26603447 -64.06566143 367.94158268 C-64.07543476 364.69272652 -64.07259365 361.44411617 -64.06655598 358.19525623 C-64.07217548 357.23095188 -64.07779499 356.26664753 -64.08358479 355.27312183 C-64.0793903 354.38702732 -64.07519581 353.50093281 -64.07087421 352.58798695 C-64.07141898 351.81996565 -64.07196375 351.05194435 -64.07252502 350.26064968 C-63.78212762 347.77958612 -63.17801977 346.2311605 -61.82363605 344.13422108 C-58.18363863 342.03422256 -54.54144317 340.42046318 -50.6400423 338.86468983 C-41.74012746 335.26305205 -34.4527958 330.90621331 -26.82363605 325.13422108 C-26.17008137 324.66629139 -25.51652668 324.1983617 -24.8431673 323.71625233 C-8.24747368 310.90484989 2.1747919 287.9028602 4.8599577 267.60687733 C7.18006624 242.14297 0.42681633 218.14947247 -15.44863605 197.94672108 C-27.15003953 184.5507546 -41.80381466 176.59407056 -58.1244173 170.02093983 C-60.8489318 168.59918169 -62.45693586 166.86762147 -63.82363605 164.13422108 C-63.92365688 162.73925181 -63.96300442 161.33968032 -63.97080708 159.94115162 C-63.97796238 159.06214191 -63.98511768 158.18313221 -63.99248981 157.27748585 C-63.99517872 156.31070408 -63.99786762 155.34392231 -64.00063801 154.34784412 C-64.00720921 153.33145863 -64.0137804 152.31507313 -64.02055073 151.26788807 C-64.040312 147.89390463 -64.05195219 144.51996575 -64.0619173 141.14593983 C-64.06599283 139.99559568 -64.07006836 138.84525154 -64.07426739 137.66004848 C-64.09513946 131.57242098 -64.10943669 125.4848161 -64.11880207 119.39716053 C-64.1298733 113.10199901 -64.16427854 106.8071903 -64.20397377 100.51215363 C-64.23008912 95.67804261 -64.23848937 90.84401633 -64.24208355 86.00984097 C-64.24696207 83.68897396 -64.2586118 81.36811105 -64.27712154 79.04731274 C-64.30140592 75.80084932 -64.3005673 72.5553076 -64.29360676 69.30878162 C-64.30641682 68.34807255 -64.31922688 67.38736347 -64.33242512 66.397542 C-64.29890798 62.11381379 -64.21302706 59.76819474 -61.92902851 56.04958057 C-59.5952171 53.92641924 -58.41572035 53.41119203 -55.32363605 53.00922108 C-54.44836262 52.86871326 -53.57308918 52.72820545 -52.6712923 52.58343983 C-51.73156574 52.43519764 -50.79183918 52.28695545 -49.82363605 52.13422108 C-36.99377702 49.54822868 -26.30183778 44.73994219 -18.57363605 33.82172108 C-13.69417062 26.00938546 -12.42646415 18.47382207 -11.5462923 9.36859608 C-10.71659311 5.65513159 -9.44013178 3.85497944 -6.82363605 1.13422108 C-4.36207531 -0.09655929 -2.75365552 0.00553611 0 0 Z M9.17636395 21.13422108 C7.52636395 26.08422108 5.87636395 31.03422108 4.17636395 36.13422108 C-3.09640562 51.89188847 -14.47516715 62.59973442 -30.63613605 68.94672108 C-34.67727654 70.41759581 -38.74244254 71.77382324 -42.82363605 73.13422108 C-42.82363605 99.53422108 -42.82363605 125.93422108 -42.82363605 153.13422108 C-37.54363605 155.77422108 -32.26363605 158.41422108 -26.82363605 161.13422108 C-0.02895721 179.07303149 17.66150459 202.29680146 24.6333952 234.07172108 C29.81853335 263.31739239 24.44551937 293.56574636 7.9771452 318.45843983 C5.79474722 321.43305208 3.53562743 324.29825709 1.17636395 327.13422108 C0.44417645 328.01851795 -0.28801105 328.90281483 -1.04238605 329.81390858 C-12.66137194 343.27393095 -27.05220026 351.24850318 -42.82363605 359.13422108 C-42.82363605 385.53422108 -42.82363605 411.93422108 -42.82363605 439.13422108 C-37.87363605 440.78422108 -32.92363605 442.43422108 -27.82363605 444.13422108 C-11.00415791 451.89705714 -0.75669138 464.1870127 6.1333952 481.21234608 C7.29634509 484.47034803 8.22601032 487.80798339 9.17636395 491.13422108 C96.95636395 491.13422108 184.73636395 491.13422108 275.17636395 491.13422108 C276.82636395 486.18422108 278.47636395 481.23422108 280.17636395 476.13422108 C287.44913351 460.37655368 298.82789504 449.66870773 314.98886395 443.32172108 C319.03000443 441.85084634 323.09517043 440.49461891 327.17636395 439.13422108 C327.17636395 412.73422108 327.17636395 386.33422108 327.17636395 359.13422108 C320.24636395 355.50422108 313.31636395 351.87422108 306.17636395 348.13422108 C302.53698716 345.49467308 299.42633204 343.11986645 296.17636395 340.13422108 C295.36554363 339.46261951 294.55472332 338.79101795 293.7193327 338.09906483 C273.08991021 320.63852444 260.56847656 293.86821277 258.17636395 267.13422108 C256.61040799 237.04484691 263.60604915 208.59896306 283.17636395 185.13422108 C283.94722332 184.19965076 284.7180827 183.26508045 285.51230145 182.30218983 C297.04984674 168.95373532 311.13669861 160.26296123 327.17636395 153.13422108 C327.17636395 126.73422108 327.17636395 100.33422108 327.17636395 73.13422108 C319.75136395 70.65922108 319.75136395 70.65922108 312.17636395 68.13422108 C295.3568858 60.37138501 285.10941927 48.08142946 278.2193327 31.05609608 C277.0563828 27.79809413 276.12671757 24.46045876 275.17636395 21.13422108 C187.39636395 21.13422108 99.61636395 21.13422108 9.17636395 21.13422108 Z " fill="#010188" transform="translate(113.82363605499268,-0.13422107696533203)"/>
<path d="M0 0 C3.95403662 0.26360244 5.65370756 0.86143155 8.75 3.25 C11.33714172 7.13071258 11.05577355 10.39637426 11.05078125 14.8984375 C11.05506638 15.74798004 11.0593515 16.59752258 11.06376648 17.47280884 C11.06950864 19.26994944 11.07001088 21.06711328 11.06567383 22.86425781 C11.06251974 25.60782798 11.08595331 28.35031362 11.11132812 31.09375 C11.11360179 32.84114448 11.1143043 34.58854184 11.11328125 36.3359375 C11.122491 37.1537973 11.13170074 37.9716571 11.14118958 38.81430054 C11.10364449 43.46011812 10.72402911 46.45455494 7.75 50.25 C4.32840405 52.81619697 0.90155867 52.75984054 -3.25 52.25 C-5.88016161 50.0772578 -7.72336894 48.30326212 -9.25 45.25 C-9.53509874 39.73965485 -9.56377238 34.22820519 -9.60009766 28.71118164 C-9.61665215 26.8673032 -9.64393569 25.02348881 -9.68212891 23.17993164 C-9.73695665 20.51935595 -9.75877979 17.86028363 -9.7734375 15.19921875 C-9.79610687 14.37822189 -9.81877625 13.55722504 -9.84213257 12.71134949 C-9.8259802 8.32489804 -9.67630849 6.76719083 -6.77978516 3.25317383 C-5.94495605 2.59212646 -5.11012695 1.9310791 -4.25 1.25 C-3.25 0.25 -3.25 0.25 0 0 Z " fill="#040388" transform="translate(255.25,229.75)"/>
<path d="M0 0 C2.8100346 1.79363911 4.50940468 3.01880935 6 6 C6.12344964 8.78565987 6.18841652 11.54531413 6.203125 14.33203125 C6.20882507 15.16079269 6.21452515 15.98955414 6.22039795 16.84342957 C6.22985248 18.59946413 6.23638373 20.35551647 6.24023438 22.11157227 C6.24992406 24.79149596 6.2809359 27.47064753 6.3125 30.15039062 C6.31903173 31.85676628 6.32428154 33.56314742 6.328125 35.26953125 C6.3404718 36.06865433 6.3528186 36.8677774 6.36553955 37.69111633 C6.3430867 43.33186732 5.2857254 46.7142746 1.1875 50.8125 C-1.8527265 52.46290867 -3.57949832 52.54728027 -7 52 C-10.42545988 49.92564959 -12.70592195 47.88223414 -14 44 C-14.13302791 41.18201016 -14.21225038 38.38956023 -14.23828125 35.5703125 C-14.246353 34.742966 -14.25442474 33.91561951 -14.26274109 33.0632019 C-14.27656427 31.31315191 -14.28729432 29.56307516 -14.29516602 27.81298828 C-14.3123921 25.14173219 -14.35629394 22.47170997 -14.40039062 19.80078125 C-14.41051701 18.09896742 -14.41903328 16.39714308 -14.42578125 14.6953125 C-14.44328934 13.89932648 -14.46079742 13.10334045 -14.47883606 12.28323364 C-14.463404 8.32322484 -14.28406031 6.44529161 -12.09838867 3.01904297 C-8.4713257 -0.47087103 -4.87528647 -0.70047219 0 0 Z " fill="#040388" transform="translate(260,305)"/>
<path d="M0 0 C2.92937654 1.81310142 5.43647949 3.87295899 7 7 C7.12344964 9.78565987 7.18841652 12.54531413 7.203125 15.33203125 C7.20882507 16.16079269 7.21452515 16.98955414 7.22039795 17.84342957 C7.22985248 19.59946413 7.23638373 21.35551647 7.24023438 23.11157227 C7.24992406 25.79149596 7.2809359 28.47064753 7.3125 31.15039062 C7.31903173 32.85676628 7.32428154 34.56314742 7.328125 36.26953125 C7.3404718 37.06865433 7.3528186 37.8677774 7.36553955 38.69111633 C7.34724985 43.28597298 6.98542601 46.27608768 4 50 C0.31106884 52.45928744 -2.71641421 52.69305579 -7 52 C-10.44312714 49.8755173 -11.71617547 48.85147359 -13 45 C-13.27767482 39.62470749 -13.31345651 34.24971253 -13.35009766 28.86791992 C-13.36665055 27.08621147 -13.39393208 25.30456924 -13.43212891 23.52319336 C-13.48705714 20.9461037 -13.50879393 18.37056588 -13.5234375 15.79296875 C-13.54610687 15.00214401 -13.56877625 14.21131927 -13.59213257 13.39653015 C-13.57653749 9.28904518 -13.22055257 6.76113818 -10.59228516 3.51293945 C-6.9652975 -0.00303191 -5.03447452 -0.58090091 0 0 Z " fill="#040388" transform="translate(259,80)"/>
<path d="M0 0 C2.92937654 1.81310142 5.43647949 3.87295899 7 7 C7.13562708 9.77390111 7.21271963 12.5214446 7.23828125 15.296875 C7.246353 16.12326477 7.25442474 16.94965454 7.26274109 17.80108643 C7.27658371 19.55291648 7.28730507 21.30477352 7.29516602 23.05664062 C7.31234417 25.72578696 7.35622289 28.39368331 7.40039062 31.0625 C7.41052082 32.7656159 7.4190359 34.46874233 7.42578125 36.171875 C7.44328934 36.96583679 7.46079742 37.75979858 7.47883606 38.57781982 C7.45841681 43.83959012 6.48936292 46.82494378 3 51 C-0.21694364 52.60847182 -3.52137222 52.61309149 -7 52 C-9.69105198 49.82425584 -11.45532928 48.08934144 -13 45 C-13.28501159 39.65044075 -13.31379948 34.29979364 -13.35009766 28.94335938 C-13.36663423 27.15481534 -13.39389412 25.36633677 -13.43212891 23.578125 C-13.48707034 20.99444427 -13.50879843 18.41231228 -13.5234375 15.828125 C-13.54610687 15.03416321 -13.56877625 14.24020142 -13.59213257 13.42218018 C-13.57657175 9.30609592 -13.2264647 6.76618706 -10.59228516 3.51074219 C-6.96469396 -0.00273943 -5.03333341 -0.58076924 0 0 Z " fill="#030388" transform="translate(259,155)"/>
<path d="M0 0 C2.8100346 1.79363911 4.50940468 3.01880935 6 6 C6.12344964 8.78565987 6.18841652 11.54531413 6.203125 14.33203125 C6.20882507 15.16079269 6.21452515 15.98955414 6.22039795 16.84342957 C6.22985248 18.59946413 6.23638373 20.35551647 6.24023438 22.11157227 C6.24992406 24.79149596 6.2809359 27.47064753 6.3125 30.15039062 C6.31903173 31.85676628 6.32428154 33.56314742 6.328125 35.26953125 C6.3404718 36.06865433 6.3528186 36.8677774 6.36553955 37.69111633 C6.34252467 43.47306532 5.18689214 46.81310786 1 51 C-3.60500307 51.68994819 -7.69817052 51.92080622 -11.5625 49.1875 C-14.4151385 44.84652837 -14.19200445 40.58227569 -14.23828125 35.5703125 C-14.246353 34.742966 -14.25442474 33.91561951 -14.26274109 33.0632019 C-14.27656427 31.31315191 -14.28729432 29.56307516 -14.29516602 27.81298828 C-14.3123921 25.14173219 -14.35629394 22.47170997 -14.40039062 19.80078125 C-14.41051701 18.09896742 -14.41903328 16.39714308 -14.42578125 14.6953125 C-14.44328934 13.89932648 -14.46079742 13.10334045 -14.47883606 12.28323364 C-14.463404 8.32322484 -14.28406031 6.44529161 -12.09838867 3.01904297 C-8.4713257 -0.47087103 -4.87528647 -0.70047219 0 0 Z " fill="#030388" transform="translate(260,380)"/>
</svg>
