<?xml version="1.0" encoding="UTF-8"?>
<svg version="1.1" xmlns="http://www.w3.org/2000/svg" width="512" height="512">
<path d="M0 0 C0.42199173 0.81867302 0.42199173 0.81867302 0.85250854 1.65388489 C2.14428394 4.15327299 3.44316752 6.64890128 4.7421875 9.14453125 C5.18457764 10.00308716 5.62696777 10.86164307 6.08276367 11.74621582 C9.44515412 18.187962 13.03526032 23.65960517 18 29 C18.59941406 29.67804688 19.19882813 30.35609375 19.81640625 31.0546875 C34.67327831 46.99713476 55.99220284 55.95901835 77.58837891 56.97631836 C100.79816599 57.56934608 121.71133937 49.52451159 139 34 C139.70769531 33.38640625 140.41539062 32.7728125 141.14453125 32.140625 C149.07738365 24.81799201 154.38363692 15.33162306 159.14208984 5.75292969 C159.67845062 4.67485046 160.2148114 3.59677124 160.76742554 2.48602295 C161.17417511 1.66563538 161.58092468 0.8452478 162 0 C184.43893927 -4.10718722 213.83135229 -8.71803855 234.04815674 4.51702881 C251.52310906 16.69493234 265.97267743 33.38144823 280.10365999 49.15470612 C286.21481977 55.959061 292.53909212 62.55063764 298.87603295 69.14396513 C308.19375145 78.85685121 317.45286535 88.63359594 326.47332382 98.62390137 C327.44104824 99.69236301 328.41381244 100.75628434 329.39186287 101.8153019 C330.72166839 103.25829562 332.02995028 104.72103757 333.33692932 106.18473816 C334.07327889 106.99868136 334.80962847 107.81262457 335.56829166 108.65123272 C337 111 337 111 336.81295681 113.63062 C335.81260187 116.54617586 334.47789253 119.03179507 332.9296875 121.69921875 C331.96772461 123.36887695 331.96772461 123.36887695 330.98632812 125.07226562 C330.28265635 126.27740464 329.57887743 127.48248109 328.875 128.6875 C328.14712184 129.94557925 327.41991844 131.20404912 326.69335938 132.46289062 C325.19745912 135.05217635 323.69767135 137.63914522 322.19433594 140.22412109 C319.55906212 144.75592142 316.94063837 149.29738883 314.32250977 153.83911133 C313.10528233 155.95022233 311.88701655 158.06073499 310.66772461 160.1706543 C307.33523097 165.93868528 304.01597329 171.71397918 300.71484375 177.5 C300.35657501 178.127854 299.99830627 178.75570801 299.62918091 179.40258789 C297.90205822 182.43014789 296.17651248 185.45859358 294.453125 188.48828125 C290.71729648 195.04331232 286.91671353 201.55129721 283 208 C277.56255144 204.08585999 272.57272946 199.86880145 267.62890625 195.34765625 C265.02203997 193.01968205 262.34814186 190.81526806 259.625 188.625 C254.86220045 184.77943004 250.34472797 180.72820922 245.88330078 176.54150391 C243.16098753 173.96910276 243.16098753 173.96910276 240 172 C240 248.56 240 325.12 240 404 C135.06 404 30.12 404 -78 404 C-78 327.44 -78 250.88 -78 172 C-86.7030247 179.07741853 -86.7030247 179.07741853 -95 186.5 C-99.65993464 190.84214238 -104.47933847 194.92094753 -109.44140625 198.91796875 C-113.04526763 201.85057656 -116.53159795 204.90924631 -120 208 C-122.82625993 204.61195353 -125.15818682 201.2099941 -127.328125 197.37109375 C-128.26809326 195.7164209 -128.26809326 195.7164209 -129.22705078 194.02832031 C-129.90138246 192.83138881 -130.57569844 191.63444847 -131.25 190.4375 C-131.95899869 189.18690566 -132.66848014 187.93658489 -133.37841797 186.68652344 C-134.85350604 184.08817247 -136.32651397 181.48866007 -137.79785156 178.88818359 C-141.22501877 172.83344615 -144.67427566 166.79133251 -148.125 160.75 C-148.61771896 159.8866806 -148.61771896 159.8866806 -149.12039185 159.00592041 C-154.48787472 149.6029705 -159.91722356 140.23736981 -165.39697266 130.89941406 C-166.44533883 129.11081959 -167.48953481 127.31977183 -168.52880859 125.52587891 C-169.51582007 123.83128535 -170.51903772 122.14603543 -171.53759766 120.47021484 C-172.00601074 119.67953613 -172.47442383 118.88885742 -172.95703125 118.07421875 C-173.37573486 117.38287842 -173.79443848 116.69153809 -174.22583008 115.97924805 C-175.22105171 113.4348577 -174.93188309 112.55666131 -174 110 C-172.33781338 107.78989792 -172.33781338 107.78989792 -170.13438416 105.34295654 C-169.29994278 104.41190094 -168.4655014 103.48084534 -167.60577393 102.52157593 C-166.67241697 101.49674877 -165.73862518 100.4723175 -164.80444336 99.44824219 C-163.82424141 98.36407175 -162.84420928 97.27974777 -161.86433411 96.19528198 C-152.80082298 86.20010801 -143.53097871 76.39694575 -134.20719051 66.64481735 C-127.96271299 60.10631856 -121.79120592 53.52283367 -115.77026367 46.77734375 C-80.11916735 6.92334242 -54.37814478 -9.85395653 0 0 Z " fill="#FBE88E" transform="translate(175,54)"/>
<path d="M0 0 C22.43893927 -4.10718722 51.83135229 -8.71803855 72.04815674 4.51702881 C89.52310906 16.69493234 103.97267743 33.38144823 118.10365999 49.15470612 C124.21481977 55.959061 130.53909212 62.55063764 136.87603295 69.14396513 C146.19375145 78.85685121 155.45286535 88.63359594 164.47332382 98.62390137 C165.44104824 99.69236301 166.41381244 100.75628434 167.39186287 101.8153019 C168.72166839 103.25829562 170.02995028 104.72103757 171.33692932 106.18473816 C172.07327889 106.99868136 172.80962847 107.81262457 173.56829166 108.65123272 C175 111 175 111 174.81295681 113.63062 C173.81260187 116.54617586 172.47789253 119.03179507 170.9296875 121.69921875 C170.28837891 122.81232422 169.64707031 123.92542969 168.98632812 125.07226562 C168.28265635 126.27740464 167.57887743 127.48248109 166.875 128.6875 C166.14712184 129.94557925 165.41991844 131.20404912 164.69335938 132.46289062 C163.19745912 135.05217635 161.69767135 137.63914522 160.19433594 140.22412109 C157.55906212 144.75592142 154.94063837 149.29738883 152.32250977 153.83911133 C151.10528233 155.95022233 149.88701655 158.06073499 148.66772461 160.1706543 C145.33523097 165.93868528 142.01597329 171.71397918 138.71484375 177.5 C138.35657501 178.127854 137.99830627 178.75570801 137.62918091 179.40258789 C135.90205822 182.43014789 134.17651248 185.45859358 132.453125 188.48828125 C128.71729648 195.04331232 124.91671353 201.55129721 121 208 C115.56255144 204.08585999 110.57272946 199.86880145 105.62890625 195.34765625 C103.02203997 193.01968205 100.34814186 190.81526806 97.625 188.625 C92.86220045 184.77943004 88.34472797 180.72820922 83.88330078 176.54150391 C81.16098753 173.96910276 81.16098753 173.96910276 78 172 C78 248.56 78 325.12 78 404 C25.53 404 -26.94 404 -81 404 C-81 373.31 -81 342.62 -81 311 C-75.06 311 -69.12 311 -63 311 C-63 300.77 -63 290.54 -63 280 C-58.71 278.35 -54.42 276.7 -50 275 C-32.17253108 265.00878115 -23.7592361 251.62216663 -16 233 C-6.1 233 3.8 233 14 233 C14 221.45 14 209.9 14 198 C4.1 198 -5.8 198 -16 198 C-16.969375 195.6075 -17.93875 193.215 -18.9375 190.75 C-26.88632376 172.15157188 -39.87959147 161.11623025 -58 153 C-59.65 152.34 -61.3 151.68 -63 151 C-63 140.77 -63 130.54 -63 120 C-68.94 120 -74.88 120 -81 120 C-81 99.54 -81 79.08 -81 58 C-78.20988748 57.06996249 -75.72067994 56.73508907 -72.80981445 56.45629883 C-53.67462678 54.53983165 -37.30403764 46.84444196 -23 34 C-21.93845703 33.07960938 -21.93845703 33.07960938 -20.85546875 32.140625 C-12.92261635 24.81799201 -7.61636308 15.33162306 -2.85791016 5.75292969 C-2.32154938 4.67485046 -1.7851886 3.59677124 -1.23257446 2.48602295 C-0.6224501 1.25544159 -0.6224501 1.25544159 0 0 Z " fill="#F9E06E" transform="translate(337,54)"/>
<path d="M0 0 C11.55 0 23.1 0 35 0 C35 10.23 35 20.46 35 31 C36.65 31.33 38.3 31.66 40 32 C58.69067782 39.65642224 72.02521907 51.91887749 80.0625 70.6875 C82 75.61279461 82 75.61279461 82 78 C91.9 78 101.8 78 112 78 C112 89.55 112 101.1 112 113 C102.1 113 92.2 113 82 113 C81.01 116.3 80.02 119.6 79 123 C75.06532293 131.48096197 69.56604659 138.41099521 63 145 C62.38640625 145.63679687 61.7728125 146.27359375 61.140625 146.9296875 C53.99909776 153.79654062 44.70139858 158.38310024 35 160 C35 170.23 35 180.46 35 191 C23.45 191 11.9 191 0 191 C0 180.77 0 170.54 0 160 C-2.31 159.67 -4.62 159.34 -7 159 C-25.02317794 151.56817139 -38.37928547 138.25430823 -46.0625 120.3125 C-48 115.38720539 -48 115.38720539 -48 113 C-57.9 113 -67.8 113 -78 113 C-78 101.45 -78 89.9 -78 78 C-68.1 78 -58.2 78 -48 78 C-47.01 75.03 -46.02 72.06 -45 69 C-38.31449703 52.26184292 -25.05128382 41.09025611 -9.26171875 33.3125 C-6 32 -6 32 0 31 C0 20.77 0 10.54 0 0 Z " fill="#CF5A9A" transform="translate(239,174)"/>
<path d="M0 0 C2.48272817 1.44429695 4.85491782 2.96966057 7.21484375 4.60546875 C8.57609375 5.53359375 8.57609375 5.53359375 9.96484375 6.48046875 C19.28820704 15.28586741 24.29938728 26.88716281 25.21484375 39.60546875 C25.35206215 52.94995846 20.96557388 63.59126422 12.21484375 73.60546875 C2.36384531 83.32805566 -9.93981373 86.91796875 -23.38671875 86.91796875 C-36.32104339 86.70304795 -46.09066152 81.47968146 -55.11328125 72.21484375 C-59.72880604 66.77878121 -62.60690336 61.3695172 -64.78515625 54.60546875 C-65.19765625 53.42984375 -65.61015625 52.25421875 -66.03515625 51.04296875 C-68.81737901 38.29111446 -65.51559537 25.55406326 -58.78515625 14.60546875 C-45.62950074 -4.08941013 -20.43573881 -10.23220022 0 0 Z " fill="#FBE78E" transform="translate(276.78515625,228.39453125)"/>
<path d="M0 0 C5.61 0 11.22 0 17 0 C17 16.5 17 33 17 50 C12.71 50.66 8.42 51.32 4 52 C-9.89475945 57.15407903 -18.51287275 64.86553741 -25.0703125 78.171875 C-27.06316902 83.00890539 -27.6959623 87.80453229 -28 93 C-28.06445312 93.69738281 -28.12890625 94.39476562 -28.1953125 95.11328125 C-28.74428083 105.12280373 -24.95499349 115.07175423 -19 123 C-18.40832031 123.87011719 -18.40832031 123.87011719 -17.8046875 124.7578125 C-12.00819386 132.49804053 -2.28869057 137.88707808 7 140 C9.47284491 140.27332801 11.9536472 140.48306555 14.4375 140.625 C15.67371094 140.69976562 16.90992188 140.77453125 18.18359375 140.8515625 C19.57771484 140.92503906 19.57771484 140.92503906 21 141 C19.68 141.33 18.36 141.66 17 142 C17 158.17 17 174.34 17 191 C11.39 191 5.78 191 0 191 C0 180.77 0 170.54 0 160 C-2.31 159.67 -4.62 159.34 -7 159 C-25.02317794 151.56817139 -38.37928547 138.25430823 -46.0625 120.3125 C-48 115.38720539 -48 115.38720539 -48 113 C-57.9 113 -67.8 113 -78 113 C-78 101.45 -78 89.9 -78 78 C-68.1 78 -58.2 78 -48 78 C-47.01 75.03 -46.02 72.06 -45 69 C-38.31449703 52.26184292 -25.05128382 41.09025611 -9.26171875 33.3125 C-6 32 -6 32 0 31 C0 20.77 0 10.54 0 0 Z " fill="#D573A7" transform="translate(239,174)"/>
<path d="M0 0 C6.37515152 5.09771095 10.09865779 11.01856859 11.16796875 19.15234375 C11.53478542 28.72818951 10.10172586 35.63071513 3.63671875 42.80859375 C-2.74775818 48.90587967 -8.27721302 51.55314038 -17.05859375 52.08984375 C-24.80046648 51.87424729 -31.35666962 48.86029181 -37.25390625 43.88671875 C-38.83791668 42.18331055 -40.07977705 40.50077454 -41.30859375 38.52734375 C-41.71851563 37.87121094 -42.1284375 37.21507812 -42.55078125 36.5390625 C-45.94849589 30.13026971 -46.37895557 23.63819711 -45.30859375 16.52734375 C-42.60559221 8.03073891 -38.16173484 1.84530878 -30.30859375 -2.47265625 C-19.64690664 -7.00468838 -9.83954517 -6.27666418 0 0 Z " fill="#CF5A9A" transform="translate(273.30859375,246.47265625)"/>
<path d="M0 0 C14.62289841 0.75963109 25.03322716 5.20266276 35 16 C35.66 16.70125 36.32 17.4025 37 18.125 C44.3007751 28.6198642 46.99327755 40.41264431 45.52734375 53.0625 C43.30259178 65.45519247 36.74379267 76.08158929 26.5078125 83.5 C19.91867628 87.44116559 12.07914231 91.17506003 4.3125 91.0625 C2.1778125 91.0315625 2.1778125 91.0315625 0 91 C0 85.39 0 79.78 0 74 C1.815 73.62875 3.63 73.2575 5.5 72.875 C15.0107949 70.49730128 20.70246773 65.41737444 25.75 57.125 C28.41032773 50.37072348 28.14327557 41.88205572 26.12109375 35.015625 C22.45563514 27.03145774 17.4623974 22.73692899 9.3125 19.6875 C6.21718711 18.64989158 3.17174913 17.79293728 0 17 C0 11.39 0 5.78 0 0 Z " fill="#F9DF6E" transform="translate(256,224)"/>
<path d="M0 0 C-1.32 0.33 -2.64 0.66 -4 1 C-4 19.48 -4 37.96 -4 57 C-13.18638352 55.97929072 -19.58239133 54.09778805 -25.875 47.1875 C-31.31949026 39.02076461 -33.49383929 31.92418812 -32 22 C-29.29699846 13.50339516 -24.85314109 7.31796503 -17 3 C-11.34029843 0.59419413 -6.1213168 -0.39921631 0 0 Z " fill="#D573A7" transform="translate(260,241)"/>
</svg>
