<?xml version="1.0" encoding="UTF-8"?>
<svg version="1.1" xmlns="http://www.w3.org/2000/svg" width="512" height="512">
<path d="M0 0 C3.0823428 0.62333092 4.15468813 1.99529328 6.10546875 4.42578125 C6.58648682 7.29852295 6.58648682 7.29852295 6.55957031 10.66308594 C6.55911713 12.55459381 6.55911713 12.55459381 6.55865479 14.48431396 C6.5382298 15.85543451 6.51736584 17.22654858 6.49609375 18.59765625 C6.48862992 20.00440669 6.48293765 21.41116756 6.47894287 22.81793213 C6.46369735 26.51386407 6.42442606 30.20916352 6.38012695 33.90484619 C6.33915018 37.6786646 6.32092679 41.45258557 6.30078125 45.2265625 C6.25792954 52.62662331 6.18758991 60.02603295 6.10546875 67.42578125 C15.01546875 67.42578125 23.92546875 67.42578125 33.10546875 67.42578125 C33.08452148 65.53827148 33.06357422 63.65076172 33.04199219 61.70605469 C32.97747471 55.46758738 32.93152238 49.22919908 32.89822006 42.99048996 C32.8773508 39.2081513 32.84904627 35.42617378 32.80371094 31.64404297 C32.76022801 27.99357813 32.73632666 24.34346049 32.72595978 20.69275665 C32.71857265 19.30046371 32.704147 17.90818963 32.68254852 16.51604462 C32.65348834 14.56524714 32.65183463 12.61409979 32.65136719 10.66308594 C32.64248474 9.55278015 32.63360229 8.44247437 32.62445068 7.29852295 C33.2159043 3.76623674 34.32069115 2.60334501 37.10546875 0.42578125 C40.01331756 -0.28304178 42.04800775 0.08606336 45.10546875 0.42578125 C47.77978364 2.23741392 48.06467234 3.30339202 49.10546875 6.42578125 C49.19435706 8.40420886 49.22307748 10.38554759 49.21899414 12.3659668 C49.21891861 13.58700607 49.21884308 14.80804535 49.21876526 16.06608582 C49.21360397 17.3849025 49.20844269 18.70371918 49.203125 20.0625 C49.20125955 21.42584684 49.19983625 22.78919436 49.19883728 24.15254211 C49.19502207 27.73806616 49.1852003 31.3235496 49.1741333 34.90905762 C49.16389776 38.56892345 49.15933507 42.22879585 49.15429688 45.88867188 C49.14357713 53.06772683 49.12651268 60.24674835 49.10546875 67.42578125 C50.10400879 67.40922485 51.10254883 67.39266846 52.13134766 67.37561035 C55.46035477 67.32378766 58.78890377 67.28840119 62.11816406 67.26098633 C63.58828348 67.24606696 65.05835975 67.22572398 66.52832031 67.19946289 C84.4310599 66.8880578 99.60519283 70.38591548 112.859375 83.15234375 C113.60058594 83.90257813 114.34179688 84.6528125 115.10546875 85.42578125 C115.75386719 86.05226563 116.40226562 86.67875 117.0703125 87.32421875 C124.44925578 94.97765226 130.10546875 106.68545077 130.10546875 117.42578125 C131.05800537 117.39436035 131.05800537 117.39436035 132.02978516 117.36230469 C134.92984951 117.27873544 137.82965991 117.22699351 140.73046875 117.17578125 C141.72949219 117.14226562 142.72851562 117.10875 143.7578125 117.07421875 C149.70643626 116.99542903 153.53536374 117.18726114 158.10546875 121.42578125 C161.6662496 125.96213358 161.54439725 130.00420592 161.52539062 135.52709961 C161.53386017 136.43502762 161.54232971 137.34295563 161.55105591 138.27839661 C161.57442051 141.27428259 161.57544821 144.26965486 161.57421875 147.265625 C161.58132042 149.35161036 161.58901942 151.43759377 161.59729004 153.52357483 C161.61073346 157.89394563 161.6123041 162.26413579 161.60644531 166.63452148 C161.60054808 172.23129912 161.63114287 177.82720964 161.67156219 183.42381954 C161.69742774 187.73129434 161.70031765 192.03856001 161.69667053 196.34610176 C161.69836271 198.40936017 161.70801458 200.47262815 161.72581482 202.53581047 C161.74798266 205.42281815 161.73831372 208.30806603 161.72070312 211.19506836 C161.73396637 212.0446109 161.74722961 212.89415344 161.76089478 213.7694397 C161.70285951 217.86989429 161.39929297 220.59797353 158.8170166 223.87770081 C150.26898476 231.91040905 145.43939455 228.42578125 131.10546875 228.42578125 C131.10546875 284.19578125 131.10546875 339.96578125 131.10546875 397.42578125 C139.02546875 397.42578125 146.94546875 397.42578125 155.10546875 397.42578125 C166.20171044 404.82327571 166.20171044 404.82327571 168.10546875 411.42578125 C168.59361522 414.36905097 168.65428611 417.21415022 168.62304688 420.19335938 C168.63005615 421.03023788 168.63706543 421.86711639 168.64428711 422.72935486 C168.66176976 425.47225977 168.65027937 428.21411741 168.63671875 430.95703125 C168.63941647 432.87699581 168.64330122 434.79695904 168.64831543 436.71691895 C168.6541973 440.73149687 168.64568988 444.74571765 168.62695312 448.76025391 C168.60416442 453.89147627 168.61729455 459.02186159 168.64124298 464.15305328 C168.65573645 468.11491131 168.65107871 472.07657276 168.64073181 476.03843689 C168.63807433 477.92976482 168.64129964 479.82111092 168.65065002 481.7124176 C168.66087435 484.36148978 168.64523336 487.00922952 168.62304688 489.65820312 C168.6311438 490.43038681 168.63924072 491.2025705 168.64758301 491.99815369 C168.5621068 497.54132381 167.16247712 501.77839892 164.10546875 506.42578125 C161.60546875 508.80078125 161.60546875 508.80078125 159.10546875 510.42578125 C158.56014142 510.78393309 158.01481409 511.14208493 157.45296168 511.51108986 C154.02756284 512.84578305 150.66865106 512.70391254 147.04558182 512.68584347 C146.2228136 512.68964914 145.40004539 512.69345481 144.5523448 512.6973758 C141.77744835 512.70773542 139.0027548 512.70377738 136.22784424 512.69993591 C134.22543854 512.70438595 132.2230346 512.70969921 130.22063327 512.71580464 C124.70393721 512.73002324 119.18729739 512.7316472 113.67058563 512.73120773 C107.72633186 512.73285254 101.78210149 512.74591274 95.83786011 512.75740051 C83.51077046 512.77908485 71.18369196 512.78765945 58.85658667 512.79243552 C57.85135055 512.79282728 57.85135055 512.79282728 56.82580662 512.79322696 C55.81857173 512.79361737 55.81857173 512.79361737 54.79098866 512.79401567 C47.35299464 512.79709676 39.91500419 512.80360109 32.47701263 512.81022835 C10.01529234 512.82987757 -12.44642409 512.84628115 -34.90815353 512.84910488 C-35.62675781 512.84919894 -36.34536208 512.849293 -37.08574224 512.84938991 C-39.99798844 512.8497684 -42.91023464 512.8501324 -45.82248084 512.85049289 C-48.01446639 512.85076461 -50.20645195 512.85104129 -52.3984375 512.85131836 C-53.12275343 512.85140638 -53.84706936 512.8514944 -54.59333426 512.85158509 C-77.35197458 512.85449056 -100.11052998 512.87658584 -122.86914062 512.9128418 C-148.43093111 512.95356225 -173.99266372 512.9772634 -199.55448842 512.97756439 C-202.27992964 512.97766122 -205.00537086 512.97782794 -207.73081207 512.97804451 C-208.40189782 512.97808862 -209.07298357 512.97813274 -209.76440525 512.97817819 C-220.56730392 512.97929838 -231.37011755 512.99671207 -242.17298884 513.01986383 C-253.02972492 513.04269945 -263.88634053 513.04651178 -274.74309155 513.03231453 C-280.62559363 513.02512881 -286.50780092 513.02607486 -292.39027023 513.04872513 C-297.77420246 513.0692575 -303.15761218 513.06676823 -308.54153839 513.04585028 C-310.49040814 513.04234441 -312.43931515 513.04731158 -314.388136 513.06155472 C-317.03648534 513.07966467 -319.6829866 513.06696159 -322.33127975 513.04660702 C-323.08883214 513.05917039 -323.84638453 513.07173376 -324.62689304 513.08467785 C-330.40783801 512.98949792 -334.423521 511.07550343 -338.89453125 507.42578125 C-343.36562368 501.69361146 -344.04745837 497.30044904 -344.0715332 490.22583008 C-344.0781044 489.3896817 -344.0846756 488.55353333 -344.09144592 487.69204712 C-344.11117036 484.92230132 -344.12284082 482.15260977 -344.1328125 479.3828125 C-344.13892579 477.96216775 -344.13892579 477.96216775 -344.14516258 476.5128231 C-344.16602161 471.49805291 -344.18032297 466.48331005 -344.18969727 461.46850586 C-344.20074969 456.29799921 -344.23513666 451.12792433 -344.27486897 445.95757008 C-344.30106323 441.97431153 -344.3093917 437.99115532 -344.31297874 434.00781822 C-344.31783894 432.10250629 -344.32943672 430.19719875 -344.34801674 428.29197121 C-344.37246376 425.6185387 -344.37143294 422.94621602 -344.36450195 420.27270508 C-344.37731201 419.49266617 -344.39012207 418.71262726 -344.40332031 417.90895081 C-344.34247224 411.4358453 -342.40879474 406.1810045 -338.01196289 401.36279297 C-331.34038825 396.79680051 -325.26740886 396.53321539 -317.33203125 396.55078125 C-316.13255859 396.53015625 -314.93308594 396.50953125 -313.69726562 396.48828125 C-310.76231867 396.44150919 -307.82977188 396.42131021 -304.89453125 396.42578125 C-304.57564941 395.73943604 -304.25676758 395.05309082 -303.92822266 394.34594727 C-303.49687012 393.44545654 -303.06551758 392.54496582 -302.62109375 391.6171875 C-302.19908691 390.72459229 -301.77708008 389.83199707 -301.34228516 388.91235352 C-298.68204795 384.34329518 -294.88916252 382.09065834 -289.89453125 380.42578125 C-288.3749742 380.32860056 -286.85155887 380.28660338 -285.32891846 380.27861023 C-283.92432877 380.26787727 -283.92432877 380.26787727 -282.49136353 380.25692749 C-281.46586395 380.25423859 -280.44036438 380.25154968 -279.38378906 380.2487793 C-277.76139816 380.2389225 -277.76139816 380.2389225 -276.10623169 380.22886658 C-272.5200392 380.20912508 -268.9338886 380.19746917 -265.34765625 380.1875 C-263.51141819 380.18138671 -263.51141819 380.18138671 -261.63808441 380.17514992 C-255.82725765 380.15643739 -250.01644737 380.1418724 -244.20559621 380.13353795 C-238.17340531 380.12474222 -232.1414661 380.10545406 -226.109375 380.0690918 C-219.63495796 380.03068404 -213.16076802 380.01185321 -206.68624115 380.00733376 C-204.21910101 380.00246154 -201.75196456 379.99082959 -199.28488922 379.97229576 C-195.83060853 379.94795821 -192.37719168 379.94886 -188.92285156 379.95581055 C-187.90544891 379.94300049 -186.88804626 379.93019043 -185.83981323 379.91699219 C-178.85667282 379.96815929 -174.4593617 381.16277855 -169.1875 385.98828125 C-163.89453125 392.87101093 -163.89453125 392.87101093 -163.89453125 397.42578125 C-125.61453125 397.42578125 -87.33453125 397.42578125 -47.89453125 397.42578125 C-47.95587019 368.17275939 -47.95587019 368.17275939 -48.0546875 338.91992188 C-48.10330049 326.9958512 -48.14771523 315.07186686 -48.16552734 303.14770508 C-48.17851694 294.46454047 -48.20541241 285.78155057 -48.24914432 277.09848434 C-48.27181995 272.49903742 -48.28743829 267.89980647 -48.2864151 263.30029869 C-48.28567207 258.97377921 -48.30347803 254.64773821 -48.33569908 250.32134247 C-48.34423911 248.73103071 -48.34592035 247.14066553 -48.34033394 245.55034065 C-48.33373354 243.38318958 -48.35151561 241.21757872 -48.37554932 239.05058289 C-48.37923649 237.83658153 -48.38292366 236.62258017 -48.38672256 235.37179089 C-48.63104692 232.37319031 -48.63104692 232.37319031 -50.62097549 230.53512001 C-53.22381688 229.26511252 -54.90145266 229.05099195 -57.79040527 229.05155945 C-58.77457932 229.04454514 -59.75875336 229.03753082 -60.77275085 229.03030396 C-61.84612198 229.03794769 -62.9194931 229.04559143 -64.02539062 229.0534668 C-65.72838066 229.0479908 -65.72838066 229.0479908 -67.46577454 229.04240417 C-71.22342833 229.03428976 -74.98065211 229.04791672 -78.73828125 229.0625 C-81.34615071 229.0630185 -83.95402057 229.0625012 -86.56188965 229.06098938 C-92.0294306 229.0601068 -97.49684747 229.07117915 -102.96435547 229.08959961 C-109.28325667 229.11076675 -115.60197612 229.11427692 -121.92090559 229.10803765 C-128.00245832 229.10234047 -134.08393685 229.10809846 -140.16548157 229.1192112 C-142.75230146 229.12306536 -145.33912682 229.12421052 -147.9259491 229.12262535 C-151.5386299 229.12225525 -155.15103275 229.13485993 -158.76367188 229.15112305 C-159.837043 229.14864563 -160.91041412 229.14616821 -162.01631165 229.14361572 C-163.00048569 229.15070053 -163.98465973 229.15778534 -164.99865723 229.16508484 C-165.85257301 229.16713771 -166.7064888 229.16919058 -167.58628082 229.17130566 C-170.15127191 229.45408591 -171.74377378 230.00539515 -173.89453125 231.42578125 C-175.13677364 234.4303449 -175.13677364 234.4303449 -175.890625 238.140625 C-176.05284042 238.84050034 -176.21505585 239.54037567 -176.38218689 240.26145935 C-178.81686272 251.08237898 -180.59490424 262.04956388 -182.4699707 272.9777832 C-182.97011057 275.87973815 -183.48063132 278.77972664 -183.9921875 281.6796875 C-184.13914566 282.55581192 -184.28610382 283.43193634 -184.43751526 284.33460999 C-185.84283488 292.25583054 -188.05050212 298.58175212 -193.89453125 304.42578125 C-199.77196177 307.65722753 -204.7128051 307.79913425 -211.33203125 307.61328125 C-212.71551758 307.59297852 -212.71551758 307.59297852 -214.12695312 307.57226562 C-216.38343508 307.53719078 -218.63866351 307.48804512 -220.89453125 307.42578125 C-220.848125 308.51117188 -220.80171875 309.5965625 -220.75390625 310.71484375 C-220.71636638 312.16012856 -220.67996861 313.60544336 -220.64453125 315.05078125 C-220.61101562 315.76363281 -220.5775 316.47648437 -220.54296875 317.2109375 C-220.44705598 322.43818327 -221.4880579 325.25471625 -224.89453125 329.42578125 C-229.47721258 333.66476148 -232.75852913 334.56075687 -238.87890625 334.5234375 C-239.81347656 334.52021484 -240.74804688 334.51699219 -241.7109375 334.51367188 C-242.67902344 334.50529297 -243.64710938 334.49691406 -244.64453125 334.48828125 C-245.62808594 334.48376953 -246.61164063 334.47925781 -247.625 334.47460938 C-250.04823916 334.46284608 -252.47135398 334.44640809 -254.89453125 334.42578125 C-254.8788208 335.0712793 -254.86311035 335.71677734 -254.84692383 336.38183594 C-254.78447323 339.31306154 -254.74550895 342.24414704 -254.70703125 345.17578125 C-254.68189453 346.1915625 -254.65675781 347.20734375 -254.63085938 348.25390625 C-254.62119141 349.23359375 -254.61152344 350.21328125 -254.6015625 351.22265625 C-254.58585205 352.12338867 -254.5701416 353.02412109 -254.55395508 353.95214844 C-254.96671383 356.95004926 -255.78634897 358.27664277 -257.89453125 360.42578125 C-261.32343351 361.29859274 -263.78712702 361.75500954 -267.20703125 360.73828125 C-269.28272286 359.12385445 -269.90526534 357.85819274 -270.89453125 355.42578125 C-271.12158203 353.04394531 -271.12158203 353.04394531 -271.08984375 350.44140625 C-271.08339844 349.50683594 -271.07695312 348.57226562 -271.0703125 347.609375 C-271.04517578 346.15724609 -271.04517578 346.15724609 -271.01953125 344.67578125 C-271.01050781 343.69222656 -271.00148438 342.70867187 -270.9921875 341.6953125 C-270.9686591 339.27188718 -270.93578493 336.84895903 -270.89453125 334.42578125 C-271.48878906 334.44672852 -272.08304687 334.46767578 -272.6953125 334.48925781 C-275.4282083 334.57319979 -278.16083182 334.62468406 -280.89453125 334.67578125 C-281.82910156 334.70929688 -282.76367188 334.7428125 -283.7265625 334.77734375 C-289.99457352 334.86500824 -294.6861611 334.05710869 -299.89453125 330.42578125 C-304.64595816 325.43069142 -305.03775234 321.3884574 -304.95703125 314.73828125 C-304.95251953 314.03638672 -304.94800781 313.33449219 -304.94335938 312.61132812 C-304.93160052 310.88277587 -304.91366579 309.1542676 -304.89453125 307.42578125 C-306.10109375 307.4721875 -307.30765625 307.51859375 -308.55078125 307.56640625 C-310.16533961 307.60395412 -311.77992503 307.64035102 -313.39453125 307.67578125 C-314.18601562 307.70929688 -314.9775 307.7428125 -315.79296875 307.77734375 C-321.70645743 307.87428619 -326.10408826 306.99717136 -330.89453125 303.42578125 C-336.98926883 296.86111628 -337.76655125 290.78282783 -337.62109375 282.09375 C-337.62209076 280.93958084 -337.62308777 279.78541168 -337.62411499 278.5962677 C-337.61945702 276.17161117 -337.6001391 273.74694285 -337.56689453 271.32250977 C-337.51944735 267.60671096 -337.52581988 263.89376185 -337.5390625 260.17773438 C-337.52791591 257.81638912 -337.51370054 255.45505592 -337.49609375 253.09375 C-337.49791656 251.98331833 -337.49973938 250.87288666 -337.50161743 249.72880554 C-337.48255341 248.69705704 -337.46348938 247.66530853 -337.44384766 246.60229492 C-337.43002548 245.2440284 -337.43002548 245.2440284 -337.41592407 243.85832214 C-336.72847986 240.65107402 -335.45376111 239.41841129 -332.89453125 237.42578125 C-331.90453125 237.42578125 -330.91453125 237.42578125 -329.89453125 237.42578125 C-329.89453125 231.15578125 -329.89453125 224.88578125 -329.89453125 218.42578125 C-331.54453125 217.76578125 -333.19453125 217.10578125 -334.89453125 216.42578125 C-337.58788107 213.73243143 -337.1499707 211.63616359 -337.18780518 207.97521973 C-337.1868988 207.06776001 -337.18599243 206.16030029 -337.18505859 205.2253418 C-337.19177582 204.27057449 -337.19849304 203.31580719 -337.20541382 202.33210754 C-337.22448902 199.1588527 -337.22832423 195.98580871 -337.23046875 192.8125 C-337.23689519 190.60447604 -337.24362343 188.39645294 -337.25064087 186.18843079 C-337.26264101 181.54706859 -337.2663194 176.90578092 -337.26513672 172.2644043 C-337.26493454 166.3444054 -337.29211912 160.42489207 -337.32668114 154.50500774 C-337.34904129 149.93648635 -337.3529713 145.36807954 -337.35191727 140.79950905 C-337.35426404 138.61923376 -337.36303499 136.43895487 -337.378582 134.25873375 C-337.50440292 114.77287283 -335.17468892 98.75544038 -321.01953125 84.05078125 C-310.50890597 74.18720648 -297.38495091 67.27568095 -282.64526367 67.31225586 C-281.11424263 67.31236916 -281.11424263 67.31236916 -279.55229187 67.31248474 C-278.46253555 67.31764603 -277.37277924 67.32280731 -276.25 67.328125 C-275.12507645 67.32953995 -274.00015289 67.3309549 -272.84114075 67.33241272 C-269.25474366 67.33800194 -265.66840941 67.35055253 -262.08203125 67.36328125 C-259.64778736 67.36829764 -257.21354249 67.37286031 -254.77929688 67.37695312 C-248.81768696 67.38796785 -242.85611359 67.40469531 -236.89453125 67.42578125 C-236.92933594 66.11222656 -236.96414062 64.79867187 -237 63.4453125 C-237.02814591 61.70964824 -237.05544521 59.9739701 -237.08203125 58.23828125 C-237.10716797 57.37396484 -237.13230469 56.50964844 -237.15820312 55.61914062 C-237.21431475 50.73742903 -237.14943308 47.35845925 -233.89453125 43.42578125 C-230.80279373 41.87991249 -228.30023573 42.13218604 -224.89453125 42.42578125 C-220.89453125 46.42578125 -220.89453125 46.42578125 -220.89453125 67.42578125 C-151.26453125 67.42578125 -81.63453125 67.42578125 -9.89453125 67.42578125 C-9.89453125 47.29578125 -9.89453125 27.16578125 -9.89453125 6.42578125 C-6.24286329 0.33966798 -6.24286329 0.33966798 0 0 Z " fill="#010101" transform="translate(343.89453125,-0.42578125)"/>
<path d="M0 0 C110.88 0 221.76 0 336 0 C336 79.86 336 159.72 336 242 C321.81 242.33 307.62 242.66 293 243 C289.66049055 245.711757 289.66049055 245.711757 289.625 249.5 C289.7248656 252.83334126 289.7248656 252.83334126 291.05761719 254.69470215 C294.01449553 256.68174967 297.01106874 256.4144109 300.453125 256.38476562 C301.20952271 256.3901384 301.96592041 256.39551117 302.74523926 256.40104675 C304.38705897 256.4108284 306.0289304 256.41376772 307.67077637 256.41069031 C310.26807408 256.40621888 312.86468805 256.42019223 315.46191406 256.43908691 C320.97459818 256.47589673 326.48721105 256.48958632 332 256.5 C338.38748974 256.512066 344.77464712 256.53353427 351.1619873 256.58000183 C353.72303182 256.59360674 356.28365988 256.5893951 358.84472656 256.58459473 C360.41211483 256.59393292 361.97949845 256.60410114 363.546875 256.61523438 C364.26073364 256.60908615 364.97459229 256.60293793 365.71008301 256.59660339 C370.02800989 256.65058742 370.77677664 256.77677664 374 260 C374 276.83 374 293.66 374 311 C283.91 311 193.82 311 101 311 C101 304.4 101 297.8 101 291 C104.497146 290.98598145 104.497146 290.98598145 108.06494141 290.97167969 C115.77643387 290.93788057 123.48765955 290.88231534 131.19893837 290.81609726 C135.87336232 290.77662353 140.54759791 290.74443457 145.22216797 290.72900391 C149.73520815 290.71383659 154.24773052 290.67938988 158.76054001 290.63169098 C160.48042673 290.61687793 162.20038738 290.60895903 163.92033768 290.60811615 C166.33368082 290.60574444 168.74559529 290.57865056 171.15869141 290.54589844 C171.86647736 290.5509288 172.57426331 290.55595917 173.30349731 290.56114197 C178.3133584 290.4562574 181.18963161 289.21843763 185 286 C187.75725741 282.4223955 188.39214121 279.7339189 188.51171875 275.26171875 C188.54716797 274.19501953 188.58261719 273.12832031 188.61914062 272.02929688 C188.65297852 270.37510742 188.65297852 270.37510742 188.6875 268.6875 C188.72166016 267.56537109 188.75582031 266.44324219 188.79101562 265.28710938 C188.87329601 262.52483938 188.94251281 259.76287887 189 257 C189.93072327 256.99635437 190.86144653 256.99270874 191.82037354 256.98895264 C200.59015826 256.95201667 209.35959139 256.89425963 218.12910843 256.81609726 C222.63768219 256.77658224 227.14605946 256.74441364 231.65478516 256.72900391 C236.00573036 256.71386363 240.35613553 256.67946547 244.70684052 256.63169098 C246.36697446 256.61684992 248.02718549 256.60895742 249.68738556 256.60811615 C252.01255413 256.60575281 254.33622255 256.57872744 256.66113281 256.54589844 C257.3480571 256.5509288 258.03498138 256.55595917 258.74272156 256.56114197 C262.03551331 256.48917393 263.77979742 256.16163034 266.46258545 254.19244385 C268.3546213 251.95148936 268.3546213 251.95148936 267.9375 248.375 C267.3249155 244.74483076 267.3249155 244.74483076 264 243 C261.5554606 242.78780343 259.22081965 242.68880479 256.7746582 242.68115234 C256.04270233 242.67110672 255.31074646 242.6610611 254.55661011 242.65071106 C252.13800845 242.61982815 249.71951775 242.60282996 247.30078125 242.5859375 C245.62354067 242.56722994 243.94630954 242.54765683 242.26908875 242.5272522 C237.85506762 242.47588141 233.44101595 242.43628223 229.02685547 242.39910889 C224.5223838 242.3591002 220.01803967 242.30799358 215.51367188 242.2578125 C206.67587078 242.16099468 197.83799775 242.07660867 189 242 C188.99853344 241.14670105 188.99706688 240.2934021 188.99555588 239.41424561 C188.95848495 218.6401349 188.89946636 197.86618731 188.81609726 177.09220886 C188.77630818 167.04600765 188.743915 156.99988476 188.72900391 146.95361328 C188.71598673 138.19605621 188.68902034 129.43867148 188.64538693 120.68121147 C188.62277365 116.04527667 188.60708924 111.40955442 188.60811615 106.77355957 C188.60886284 102.40681008 188.59090859 98.04053042 188.55883217 93.67390251 C188.55033844 92.07440268 188.54857968 90.47485012 188.55419731 88.8753376 C188.58228493 79.64605235 188.56078525 72.28520527 182.25390625 64.9765625 C181.41666016 64.30753906 181.41666016 64.30753906 180.5625 63.625 C180.00691406 63.16351563 179.45132813 62.70203125 178.87890625 62.2265625 C174.9241377 59.64486328 171.3921548 58.74991008 166.7003479 58.73930359 C165.65182144 58.73221878 164.60329498 58.72513397 163.522995 58.71783447 C162.38312637 58.72031189 161.24325775 58.72278931 160.06884766 58.7253418 C158.86016525 58.72023087 157.65148285 58.71511993 156.40617371 58.70985413 C153.09817126 58.69834694 149.79041964 58.69588282 146.48241472 58.69841743 C143.716644 58.69948895 140.95089626 58.69459905 138.18513048 58.689812 C131.65725692 58.67872475 125.12944091 58.67827475 118.6015625 58.68432617 C111.87765904 58.69036371 105.15396496 58.67805889 98.43009722 58.6567561 C92.64818035 58.63911433 86.86632996 58.63314286 81.08438718 58.63639385 C77.63512501 58.63820303 74.18601214 58.63560736 70.73677444 58.62167931 C66.88774722 58.60671799 63.03898456 58.61609363 59.18994141 58.62768555 C57.48621117 58.61621994 57.48621117 58.61621994 55.74806213 58.60452271 C47.635385 58.65850362 41.56975887 59.79765638 35.3293457 65.47412109 C28.73381133 73.04475284 28.1343125 84.7541659 26.5 94.25 C26.19637864 95.95889217 25.89144111 97.66755101 25.58520508 99.37597656 C24.98588796 102.72629781 24.39161263 106.07742982 23.80322266 109.4296875 C22.78893661 115.20766375 21.75351715 120.98133632 20.6875 126.75 C20.54054687 127.58692383 20.39359375 128.42384766 20.2421875 129.28613281 C19.22794325 134.77205675 19.22794325 134.77205675 17 137 C14.82333374 137.24050903 14.82333374 137.24050903 12.09130859 137.22705078 C11.07040131 137.22689972 10.04949402 137.22674866 8.99765015 137.22659302 C7.33978989 137.21110916 7.33978989 137.21110916 5.6484375 137.1953125 C4.5192691 137.1924826 3.39010071 137.18965271 2.22671509 137.18673706 C-1.39062971 137.17551462 -5.00772966 137.15040622 -8.625 137.125 C-11.0729131 137.11497287 -13.52083007 137.10584656 -15.96875 137.09765625 C-21.97933759 137.07726755 -27.98939374 137.03812224 -34 137 C-34 123.47 -34 109.94 -34 96 C-23.5 95.75 -23.5 95.75 -20.24023438 95.70214844 C-14.3580285 95.49594565 -8.59903406 95.02621039 -4 91 C9.5785779 63.8428442 -0.35718261 30.36052222 0 0 Z " fill="#89C7FC" transform="translate(123,155)"/>
<path d="M0 0 C37.86955778 -0.08824317 75.7390183 -0.16207619 113.60864953 -0.20426132 C118.08325677 -0.20926392 122.55786379 -0.21444123 127.0324707 -0.21972656 C128.36864637 -0.22130043 128.36864637 -0.22130043 129.73181549 -0.22290608 C144.14018789 -0.24029377 158.54849621 -0.27182242 172.95683064 -0.30861118 C187.74988175 -0.34606619 202.54289939 -0.36824548 217.33599597 -0.37635398 C226.45828387 -0.38183231 235.58039063 -0.39911193 244.70262275 -0.43166587 C250.96485168 -0.4528701 257.22698747 -0.45918672 263.48924967 -0.45400551 C267.09798413 -0.45145287 270.70640286 -0.45526306 274.31508064 -0.4768219 C278.23866653 -0.50008925 282.16184794 -0.49190189 286.085495 -0.48101807 C287.7737849 -0.49849512 287.7737849 -0.49849512 289.49618167 -0.51632524 C303.27311335 -0.41353321 314.54509009 3.95105699 324.6875 13.1875 C337.13148936 26.21027957 336 40.09487168 336 58 C225.12 58 114.24 58 0 58 C0 38.86 0 19.72 0 0 Z " fill="#89C7FC" transform="translate(123,82)"/>
<path d="M0 0 C6.6 0 13.2 0 20 0 C20.99 2.475 20.99 2.475 22 5 C24.4538463 7.4538463 25.81607227 7.24404555 29.16549683 7.27897644 C30.2416777 7.27514702 30.2416777 7.27514702 31.33959961 7.27124023 C32.09585129 7.27646698 32.85210297 7.28169373 33.63127136 7.28707886 C35.27584185 7.29733218 36.92044491 7.30310158 38.56504631 7.30496025 C41.16636798 7.30861345 43.76730479 7.32531054 46.36854553 7.34571838 C53.76507421 7.40123446 61.16166 7.43184005 68.55834961 7.45629883 C73.08005388 7.47215428 77.60148551 7.50235249 82.12304878 7.54106331 C83.84822258 7.55273208 85.57344511 7.55864382 87.29865837 7.55874443 C89.70973119 7.55893601 92.12004987 7.57716717 94.53100586 7.59936523 C95.60415039 7.59249947 95.60415039 7.59249947 96.69897461 7.585495 C101.01786738 7.64886464 101.77717581 7.77717581 105 11 C105 27.83 105 44.66 105 62 C14.91 62 -75.18 62 -168 62 C-168 55.4 -168 48.8 -168 42 C-165.66856934 41.9906543 -163.33713867 41.98130859 -160.93505859 41.97167969 C-153.22356613 41.93788057 -145.51234045 41.88231534 -137.80106163 41.81609726 C-133.12663768 41.77662353 -128.45240209 41.74443457 -123.77783203 41.72900391 C-119.26479185 41.71383659 -114.75226948 41.67938988 -110.23945999 41.63169098 C-108.51957327 41.61687793 -106.79961262 41.60895903 -105.07966232 41.60811615 C-102.66631918 41.60574444 -100.25440471 41.57865056 -97.84130859 41.54589844 C-97.13352264 41.5509288 -96.42573669 41.55595917 -95.69650269 41.56114197 C-90.6866416 41.4562574 -87.81036839 40.21843763 -84 37 C-81.24274259 33.4223955 -80.60785879 30.7339189 -80.48828125 26.26171875 C-80.43510742 24.66166992 -80.43510742 24.66166992 -80.38085938 23.02929688 C-80.35830078 21.92650391 -80.33574219 20.82371094 -80.3125 19.6875 C-80.27833984 18.56537109 -80.24417969 17.44324219 -80.20898438 16.28710938 C-80.12670399 13.52483938 -80.05748719 10.76287887 -80 8 C-79.06927673 7.99635437 -78.13855347 7.99270874 -77.17962646 7.98895264 C-68.40984174 7.95201667 -59.64040861 7.89425963 -50.87089157 7.81609726 C-46.36231781 7.77658224 -41.85394054 7.74441364 -37.34521484 7.72900391 C-32.99426964 7.71386363 -28.64386447 7.67946547 -24.29315948 7.63169098 C-22.63302554 7.61684992 -20.97281451 7.60895742 -19.31261444 7.60811615 C-16.98744587 7.60575281 -14.66377745 7.57872744 -12.33886719 7.54589844 C-11.6519429 7.5509288 -10.96501862 7.55595917 -10.25727844 7.56114197 C-6.95365057 7.48893709 -5.25180955 7.19405736 -2.6038208 5.15338135 C-0.82669552 3.00184639 -0.82669552 3.00184639 0 0 Z " fill="#B3C1CC" transform="translate(392,404)"/>
<path d="M0 0 C0.87486053 -0.00708481 1.74972107 -0.01416962 2.65109253 -0.02146912 C3.60807037 -0.0189917 4.56504822 -0.01651428 5.55102539 -0.01396179 C7.0660112 -0.02162819 7.0660112 -0.02162819 8.61160278 -0.02944946 C11.95735564 -0.04337437 15.30290321 -0.04238666 18.64868164 -0.04008484 C20.96891355 -0.04396983 23.28914474 -0.04830409 25.609375 -0.05307007 C30.47503972 -0.06053828 35.34063189 -0.06023638 40.20629883 -0.05497742 C46.45113943 -0.04917839 52.69568386 -0.06612156 58.94047546 -0.08932209 C63.73248032 -0.10403014 68.52441334 -0.10493519 73.31643677 -0.10181236 C75.61940091 -0.10232693 77.92236894 -0.1075899 80.22531128 -0.11762428 C83.44085129 -0.12991615 86.65580772 -0.12324075 89.87133789 -0.11161804 C90.82831573 -0.11926178 91.78529358 -0.12690552 92.77127075 -0.13478088 C93.64613129 -0.12776657 94.52099182 -0.12075226 95.42236328 -0.11352539 C96.18263321 -0.11369313 96.94290314 -0.11386087 97.72621155 -0.1140337 C100.30754825 0.37328074 101.18020046 1.14445814 102.71118164 3.26069641 C103.08032513 5.17595959 103.08032513 5.17595959 103.07194519 7.37988281 C103.07607768 8.21527179 103.08021017 9.05066076 103.08446789 9.91136456 C103.0682764 11.28637489 103.0682764 11.28637489 103.05175781 12.68916321 C103.05211942 13.67083119 103.05248102 14.65249918 103.05285358 15.66391468 C103.05061181 18.84612125 103.02775393 22.02780271 103.00415039 25.20991516 C102.99974036 27.17268113 102.99667932 29.13545062 102.99499512 31.09822083 C102.97925693 38.38159977 102.93737339 45.66490323 102.89868164 52.94819641 C102.83680664 69.22132141 102.77493164 85.49444641 102.71118164 102.26069641 C66.41118164 102.26069641 30.11118164 102.26069641 -7.28881836 102.26069641 C-7.35069336 85.80194641 -7.41256836 69.34319641 -7.47631836 52.38569641 C-7.50363037 47.18320129 -7.53094238 41.98070618 -7.55908203 36.62055969 C-7.57263184 30.28193665 -7.57263184 30.28193665 -7.57514954 27.31730652 C-7.57976514 25.24070816 -7.59033449 23.16411798 -7.60554504 21.08757019 C-7.6274026 17.94738228 -7.63053984 14.8076869 -7.62939453 11.66743469 C-7.64018886 10.73779467 -7.65098318 9.80815464 -7.66210461 8.8503437 C-7.65797212 8.0079357 -7.65383963 7.16552769 -7.64958191 6.29759216 C-7.65234729 5.56200136 -7.65511267 4.82641056 -7.65796185 4.06852913 C-6.84453747 0.08488792 -3.3871064 0.00914582 0 0 Z " fill="#FEE16F" transform="translate(62.288818359375,394.7393035888672)"/>
<path d="M0 0 C17.16 0 34.32 0 52 0 C52 45.21 52 90.42 52 137 C35.83 137 19.66 137 3 137 C-0 134 -0 134 -0.37181091 131.8818512 C-0.37084915 131.0656279 -0.36988739 130.2494046 -0.36889648 129.40844727 C-0.37922157 128.01669029 -0.37922157 128.01669029 -0.38975525 126.59681702 C-0.38051781 125.09676369 -0.38051781 125.09676369 -0.37109375 123.56640625 C-0.38847472 121.45247233 -0.40605912 119.33854007 -0.42382812 117.22460938 C-0.4339103 113.88888506 -0.43749528 110.55326823 -0.43579102 107.2175293 C-0.43935557 104.00016045 -0.46667893 100.78362687 -0.49609375 97.56640625 C-0.48791122 96.56839493 -0.4797287 95.57038361 -0.47129822 94.54212952 C-0.45488784 89.11785408 -0.45488784 89.11785408 -2.84399414 84.40209961 C-5.03519339 82.84821236 -5.03519339 82.84821236 -8 82 C-8 75.4 -8 68.8 -8 62 C-6.35 61.34 -4.7 60.68 -3 60 C-0.7456402 56.6184603 -0.73371273 55.39531129 -0.68115234 51.42700195 C-0.66128265 50.28604568 -0.64141296 49.14508942 -0.62094116 47.96955872 C-0.60938995 46.73823715 -0.59783875 45.50691559 -0.5859375 44.23828125 C-0.56657135 42.97735153 -0.5472052 41.71642181 -0.5272522 40.4172821 C-0.47756263 37.06852419 -0.43630565 33.71987681 -0.39910889 30.37097168 C-0.3590692 26.95229185 -0.30808346 23.53377654 -0.2578125 20.11523438 C-0.16001829 13.41021864 -0.08050639 6.70533499 0 0 Z " fill="#89C8FE" transform="translate(22,155)"/>
<path d="M0 0 C104.61 0 209.22 0 317 0 C317 4.29 317 8.58 317 13 C314 16 314 16 311.61402732 16.37259549 C310.18494986 16.37088675 310.18494986 16.37088675 308.72700214 16.36914349 C307.07736311 16.3781032 307.07736311 16.3781032 305.39439803 16.38724393 C304.18137879 16.3785054 302.96835955 16.36976688 301.71858215 16.36076355 C299.79138408 16.36460846 299.79138408 16.36460846 297.82525271 16.36853105 C294.2518357 16.37525639 290.67868715 16.36321547 287.10530436 16.34819686 C283.25460531 16.33527012 279.40392203 16.33962357 275.5532074 16.34190369 C268.87919831 16.34347856 262.20527705 16.33404709 255.53129005 16.31719017 C245.88177878 16.29283361 236.23231007 16.28499833 226.58277138 16.2812262 C210.92795957 16.27465645 195.27319458 16.25468112 179.6184082 16.22631836 C164.4091007 16.19879131 149.1998059 16.17755111 133.99047852 16.16479492 C133.05335007 16.16400675 132.11622163 16.16321858 131.15069536 16.16240653 C126.44950897 16.15849148 121.74832249 16.15470034 117.04713595 16.15097082 C78.03139085 16.11985863 39.01569926 16.06678598 0 16 C0 10.72 0 5.44 0 0 Z " fill="#B5C3CE" transform="translate(180,481)"/>
<path d="M0 0 C1.25248535 0.00362549 1.25248535 0.00362549 2.53027344 0.00732422 C10.03898867 0.2291924 15.61154453 2.26343503 21.8125 6.5625 C22.83730469 7.24699219 22.83730469 7.24699219 23.8828125 7.9453125 C30.1873042 12.72144257 35.26542357 20.82711786 36.8125 28.5625 C37.85071167 39.25283581 35.99588228 49.66966084 29.625 58.5 C22.81712114 66.42797859 13.09069562 71.6476994 2.65625 72.80078125 C-7.41129129 73.11958672 -16.44686215 70.15413977 -24.15234375 63.609375 C-32.25168061 55.46340089 -36.23011162 47.03974211 -36.625 35.625 C-36.35377966 25.11521175 -32.51501193 17.0771586 -25.1875 9.5625 C-17.43247703 3.2761274 -9.95805238 -0.03007869 0 0 Z " fill="#030405" transform="translate(385.1875,292.4375)"/>
<path d="M0 0 C8.18552039 6.36651586 14.18933095 13.63690118 15.8125 24.1875 C16.87854224 34.54333889 14.78719612 43.44453356 8.828125 52.0546875 C2.10510733 60.08893202 -6.89355378 65.34860788 -17.4140625 66.55859375 C-28.71527382 66.77942202 -36.93109073 64.2701768 -45.625 56.9375 C-53.31214662 49.50947068 -57.17190201 41.09286751 -57.5 30.375 C-57.26475245 19.29068902 -53.7104125 11.96433951 -46.1484375 4.0546875 C-32.69359699 -8.82962973 -15.71003376 -8.93315645 0 0 Z " fill="#020303" transform="translate(406.1875,193.8125)"/>
<path d="M0 0 C38.61 0 77.22 0 117 0 C117 6.27 117 12.54 117 19 C114.63827637 19.0093457 112.27655273 19.01869141 109.84326172 19.02832031 C102.03198643 19.06211788 94.22097455 19.11768226 86.4099102 19.18390274 C81.67495226 19.22337818 76.94018032 19.25556632 72.20507812 19.27099609 C67.63368638 19.28616227 63.06280596 19.320607 58.491642 19.36830902 C56.74942601 19.38312324 55.00713701 19.39104104 53.26485825 19.39188385 C50.82038895 19.3942552 48.37733081 19.42134639 45.93310547 19.45410156 C45.21596878 19.4490712 44.49883209 19.44404083 43.75996399 19.43885803 C38.74018733 19.54263622 35.88427101 20.87463183 32 24 C29.69786698 27.19115796 29.69972709 30.20927895 29.5859375 34.078125 C29.53252197 35.64675293 29.53252197 35.64675293 29.47802734 37.24707031 C29.44402832 38.56803711 29.4100293 39.88900391 29.375 41.25 C29.189375 47.56125 29.189375 47.56125 29 54 C19.43 54 9.86 54 0 54 C0 36.18 0 18.36 0 0 Z " fill="#B3C1CC" transform="translate(180,412)"/>
<path d="M0 0 C6.27 0 12.54 0 19 0 C19 50.82 19 101.64 19 154 C12.73 154 6.46 154 0 154 C0 103.18 0 52.36 0 0 Z " fill="#B2C0CB" transform="translate(89,82)"/>
<path d="M0 0 C17.16 0 34.32 0 52 0 C52 45.21 52 90.42 52 137 C35.83 137 19.66 137 3 137 C-0 134 -0 134 -0.37181091 131.8818512 C-0.37084915 131.0656279 -0.36988739 130.2494046 -0.36889648 129.40844727 C-0.37922157 128.01669029 -0.37922157 128.01669029 -0.38975525 126.59681702 C-0.38051781 125.09676369 -0.38051781 125.09676369 -0.37109375 123.56640625 C-0.38847472 121.45247233 -0.40605912 119.33854007 -0.42382812 117.22460938 C-0.4339103 113.88888506 -0.43749528 110.55326823 -0.43579102 107.2175293 C-0.43935557 104.00016045 -0.46667893 100.78362687 -0.49609375 97.56640625 C-0.48791122 96.56839493 -0.4797287 95.57038361 -0.47129822 94.54212952 C-0.45488784 89.11785408 -0.45488784 89.11785408 -2.84399414 84.40209961 C-5.03519339 82.84821236 -5.03519339 82.84821236 -8 82 C-8 75.4 -8 68.8 -8 62 C-6.35 61.34 -4.7 60.68 -3 60 C-0.7456402 56.6184603 -0.73371273 55.39531129 -0.68115234 51.42700195 C-0.66128265 50.28604568 -0.64141296 49.14508942 -0.62094116 47.96955872 C-0.60938995 46.73823715 -0.59783875 45.50691559 -0.5859375 44.23828125 C-0.56657135 42.97735153 -0.5472052 41.71642181 -0.5272522 40.4172821 C-0.47756263 37.06852419 -0.43630565 33.71987681 -0.39910889 30.37097168 C-0.3590692 26.95229185 -0.30808346 23.53377654 -0.2578125 20.11523438 C-0.16001829 13.41021864 -0.08050639 6.70533499 0 0 Z M18 1 C18 45.55 18 90.1 18 136 C28.89 136 39.78 136 51 136 C51 91.45 51 46.9 51 1 C40.11 1 29.22 1 18 1 Z " fill="#60B3F7" transform="translate(22,155)"/>
<path d="M0 0 C0.75732422 0.00644531 1.51464844 0.01289063 2.29492188 0.01953125 C3.08060547 0.03628906 3.86628906 0.05304688 4.67578125 0.0703125 C5.47306641 0.07933594 6.27035156 0.08835937 7.09179688 0.09765625 C9.05742025 0.12119665 11.022889 0.15706703 12.98828125 0.1953125 C12.65828125 4.4853125 12.32828125 8.7753125 11.98828125 13.1953125 C13.30828125 12.2053125 14.62828125 11.2153125 15.98828125 10.1953125 C20.07044603 9.50047594 21.50876004 9.85862739 24.92578125 12.2578125 C26.98828125 15.1953125 26.98828125 15.1953125 26.98828125 18.8203125 C25.50896599 23.81300152 25.50896599 23.81300152 22.98828125 25.1953125 C20.18662924 25.55126009 17.84990891 25.42242581 14.98828125 25.1953125 C14.32828125 24.5353125 13.66828125 23.8753125 12.98828125 23.1953125 C12.65828125 27.1553125 12.32828125 31.1153125 11.98828125 35.1953125 C13.30828125 34.2053125 14.62828125 33.2153125 15.98828125 32.1953125 C20.07044603 31.50047594 21.50876004 31.85862739 24.92578125 34.2578125 C26.98828125 37.1953125 26.98828125 37.1953125 27.05078125 40.7578125 C25.89794811 44.48756677 25.29089987 46.10944811 21.98828125 48.1953125 C17.75515814 48.04678186 15.52725803 47.55463035 11.98828125 45.1953125 C11.98828125 49.1553125 11.98828125 53.1153125 11.98828125 57.1953125 C13.63828125 56.2053125 15.28828125 55.2153125 16.98828125 54.1953125 C19.48828125 53.6953125 19.48828125 53.6953125 21.98828125 54.1953125 C25.25428144 56.66295709 26.77081916 58.15149445 27.61328125 62.1953125 C26.76446133 66.2696481 25.31102529 67.73937125 21.98828125 70.1953125 C18.92578125 70.6953125 18.92578125 70.6953125 15.98828125 70.1953125 C14.66828125 69.2053125 13.34828125 68.2153125 11.98828125 67.1953125 C12.48328125 73.1353125 12.48328125 73.1353125 12.98828125 79.1953125 C13.97828125 78.2053125 13.97828125 78.2053125 14.98828125 77.1953125 C17.99567161 76.85576843 20.08793387 76.63358514 22.98828125 77.1953125 C25.71908981 79.58476999 26.7572827 81.16865229 27.55078125 84.6953125 C26.70928984 88.43527432 24.99991998 89.90384825 21.98828125 92.1953125 C18.92578125 92.6953125 18.92578125 92.6953125 15.98828125 92.1953125 C14.66828125 91.2053125 13.34828125 90.2153125 11.98828125 89.1953125 C11.98828125 93.4853125 11.98828125 97.7753125 11.98828125 102.1953125 C5.71828125 102.1953125 -0.55171875 102.1953125 -7.01171875 102.1953125 C-7.07939282 89.19147959 -7.13447599 76.1877629 -7.16715527 63.18379402 C-7.18283663 57.14606326 -7.20411997 51.10845882 -7.23803711 45.07080078 C-7.27054243 39.24827705 -7.28855313 33.42587511 -7.29635048 27.60326767 C-7.30190989 25.3776139 -7.31276545 23.15196707 -7.32890892 20.9263649 C-7.35056577 17.81811162 -7.3536906 14.7103669 -7.35229492 11.60205078 C-7.36308075 10.67416748 -7.37386658 9.74628418 -7.38497925 8.7902832 C-7.38085526 7.94611847 -7.37673126 7.10195374 -7.3724823 6.23220825 C-7.37524768 5.49661745 -7.37801306 4.76102665 -7.38086224 4.00314522 C-6.58928395 0.12649245 -3.3248981 -0.04999847 0 0 Z " fill="#FED05A" transform="translate(62.01171875,394.8046875)"/>
<path d="M0 0 C0 19.14 0 38.28 0 58 C-17.16 58 -34.32 58 -52 58 C-52 31.04049844 -52 31.04049844 -48 24 C-47.57589844 23.22011719 -47.15179688 22.44023438 -46.71484375 21.63671875 C-40.28031774 10.97225364 -30.84408192 4.79196136 -19.3125 0.6875 C-12.95125013 -0.3266123 -6.44157773 0 0 0 Z " fill="#89C8FE" transform="translate(74,82)"/>
<path d="M0 0 C5.32458457 3.16020191 9.22891585 7.26564557 11.859375 12.90234375 C13.30246947 19.59305448 13.30505629 25.16899984 9.87890625 31.234375 C6.25522406 36.28202614 1.70689036 39.8819976 -4.453125 41.08984375 C-11.31375148 41.83028236 -16.79807498 41.24011651 -22.453125 37.08984375 C-27.52117198 32.33714192 -30.46493298 27.81353704 -30.765625 20.77734375 C-30.58473363 15.03642278 -29.59721431 10.4023647 -25.61328125 6.10546875 C-18.15050829 -0.62075492 -10.0473576 -3.72776166 0 0 Z " fill="#E7F3FC" transform="translate(394.453125,203.91015625)"/>
<path d="M0 0 C5.36260951 3.15627874 9.57728206 7.71179111 11.734375 13.609375 C12.94284294 20.25594866 11.52975501 25.55545994 8.30078125 31.40625 C5.3045848 35.62035174 1.65286822 37.96987726 -3.265625 39.609375 C-11.14862272 40.40983364 -18.00820055 40.66774779 -24.421875 35.5703125 C-28.97319782 30.72971068 -31.47298417 25.24784385 -31.953125 18.609375 C-31.55906437 11.84644263 -28.21263802 6.64507129 -23.578125 1.87109375 C-17.07330106 -3.10565733 -7.32771812 -3.12041585 0 0 Z " fill="#E7F3FC" transform="translate(395.265625,309.390625)"/>
<path d="M0 0 C7.26 0 14.52 0 22 0 C22 17.82 22 35.64 22 54 C13.75 54 5.5 54 -3 54 C-3.06879902 46.79139189 -3.12855586 39.58391876 -3.16479492 32.37524414 C-3.17989881 29.92207992 -3.20038321 27.46894276 -3.22631836 25.01586914 C-3.26263057 21.49358445 -3.27971036 17.97165619 -3.29296875 14.44921875 C-3.30845261 13.34913986 -3.32393646 12.24906097 -3.33988953 11.11564636 C-3.34011612 10.09481461 -3.34034271 9.07398285 -3.34057617 8.0222168 C-3.34723801 7.12286911 -3.35389984 6.22352142 -3.36076355 5.29692078 C-3 3 -3 3 0 0 Z " fill="#99A6B3" transform="translate(18,412)"/>
<path d="M0 0 C5.28 0 10.56 0 16 0 C16 26.73 16 53.46 16 81 C10.72 81 5.44 81 0 81 C0 54.27 0 27.54 0 0 Z " fill="#B2C0CB" transform="translate(474,132)"/>
<path d="M0 0 C0 19.14 0 38.28 0 58 C-0.33 58 -0.66 58 -1 58 C-1 39.19 -1 20.38 -1 1 C-13.20872106 1.66020906 -13.20872106 1.66020906 -20.8125 8.40625 C-24.13152423 12.34166444 -26.79307495 16.35014925 -29 21 C-29.33837891 21.67546875 -29.67675781 22.3509375 -30.02539062 23.046875 C-33.36559258 30.34871183 -33.65640289 37.17775409 -33.75 45.125 C-33.79447266 46.98898438 -33.79447266 46.98898438 -33.83984375 48.890625 C-33.90990804 51.92674427 -33.95729076 54.96337274 -34 58 C-39.94 58 -45.88 58 -52 58 C-52.77496772 32.40453821 -52.77496772 32.40453821 -48 24 C-47.57589844 23.22011719 -47.15179688 22.44023438 -46.71484375 21.63671875 C-40.28031774 10.97225364 -30.84408192 4.79196136 -19.3125 0.6875 C-12.95125013 -0.3266123 -6.44157773 0 0 0 Z " fill="#5EB1F5" transform="translate(74,82)"/>
<path d="M0 0 C1.17046875 0.01804688 2.3409375 0.03609375 3.546875 0.0546875 C4.88492187 0.08949219 4.88492187 0.08949219 6.25 0.125 C5.47140625 0.69734375 4.6928125 1.2696875 3.890625 1.859375 C-0.98027192 6.03854691 -3.31541103 12.51672872 -3.8515625 18.88671875 C-3.50927954 26.43010868 -1.3288806 33.17245522 3.25 39.125 C3.58 40.115 3.91 41.105 4.25 42.125 C-2.66740922 42.63530068 -8.03636244 42.31827048 -13.75 38.125 C-18.81804698 33.37229817 -21.76180798 28.84869329 -22.0625 21.8125 C-21.88160863 16.07157903 -20.89408931 11.43752095 -16.91015625 7.140625 C-11.28764184 2.07303287 -7.72321262 -0.15446425 0 0 Z " fill="#D4E8F9" transform="translate(385.75,202.875)"/>
<path d="M0 0 C-0.95712891 0.17982422 -0.95712891 0.17982422 -1.93359375 0.36328125 C-2.61550781 0.57339844 -3.29742187 0.78351563 -4 1 C-5.15020525 3.24743756 -5.15020525 3.24743756 -6 6 C-6.515625 6.9075 -7.03125 7.815 -7.5625 8.75 C-11.22565843 17.0319234 -10.0047787 24.620636 -7 33 C-5.51042483 35.87748794 -3.88528647 38.35040821 -2 41 C-9.40204328 41.67632883 -15.05326518 41.63351643 -21.0859375 36.9609375 C-25.73480127 32.198224 -28.20761638 26.63491267 -28.6875 20 C-28.29343937 13.23706763 -24.94701302 8.03569629 -20.3125 3.26171875 C-14.29300071 -1.34371713 -7.22752439 -0.45679578 0 0 Z " fill="#D5E8FA" transform="translate(392,308)"/>
<path d="M0 0 C17.49 0 34.98 0 53 0 C53 3.63 53 7.26 53 11 C35.51 11 18.02 11 0 11 C0 7.37 0 3.74 0 0 Z " fill="#E8F4FD" transform="translate(55,307)"/>
<path d="M0 0 C8.25 0 16.5 0 25 0 C25 5.61 25 11.22 25 17 C21.20791242 17.08061918 17.41752222 17.14031815 13.625 17.1875 C12.54476563 17.21263672 11.46453125 17.23777344 10.3515625 17.26367188 C8.8046875 17.27817383 8.8046875 17.27817383 7.2265625 17.29296875 C6.27346191 17.3086792 5.32036133 17.32438965 4.33837891 17.34057617 C3.56671387 17.22818604 2.79504883 17.1157959 2 17 C-1.40048255 11.89927617 -0.11020139 6.00597567 0 0 Z " fill="#94A0AC" transform="translate(15,480)"/>
<path d="M0 0 C1.98 0 3.96 0 6 0 C6 17.49 6 34.98 6 53 C4.02 53 2.04 53 0 53 C0 35.51 0 18.02 0 0 Z " fill="#B5C3CE" transform="translate(33,412)"/>
<path d="M0 0 C3.26600019 2.46764459 4.78253791 3.95618195 5.625 8 C4.77618008 12.0743356 3.32274404 13.54405875 0 16 C-3.65126535 16.67064058 -5.23686002 16.48198314 -8.375 14.5 C-10.34789171 11.46478198 -10.63971021 9.47802406 -10.453125 5.90625 C-10 4 -10 4 -7.8125 1.5 C-4.72015 -0.14925334 -3.4172248 -0.76887558 0 0 Z " fill="#0B0A04" transform="translate(84,449)"/>
<path d="M0 0 C2.9375 2.0625 2.9375 2.0625 5 5 C5.06975943 8.97628774 4.53947295 11.17004162 2.375 14.5 C0 16 0 16 -3.5625 15.9375 C-7 15 -7 15 -8.9375 13.9375 C-10.69220303 10.73774742 -10.626852 7.5005106 -10 4 C-7.317936 -0.12625231 -4.78913194 -0.87963648 0 0 Z " fill="#0B0904" transform="translate(84,427)"/>
<path d="M0 0 C5.61 0 11.22 0 17 0 C17 3.63 17 7.26 17 11 C11.39 11 5.78 11 0 11 C0 7.37 0 3.74 0 0 Z " fill="#D8ECFE" transform="translate(55,307)"/>
<path d="M0 0 C2.9375 2.0625 2.9375 2.0625 5 5 C5 8.51955419 4.63108355 10.84920059 2.9375 13.9375 C-0.26063137 15.69131398 -3.45325707 15.6502362 -7 15 C-9.91781637 12.72045596 -9.97820387 11.17436907 -10.4375 7.5 C-10 4 -10 4 -8.375 1.5625 C-5.24316508 -0.49791771 -3.68455227 -0.6767545 0 0 Z " fill="#0A0804" transform="translate(84,405)"/>
<path d="M0 0 C1.94140625 0.453125 1.94140625 0.453125 4.44140625 2.640625 C6.09065959 5.732975 6.71028183 7.0359002 5.94140625 10.453125 C3.4425621 13.76041872 1.9977021 15.25911148 -2.12109375 16.015625 C-5.05859375 15.453125 -5.05859375 15.453125 -7.43359375 13.890625 C-9.66715065 10.54028965 -9.55257584 8.4049817 -9.05859375 4.453125 C-7.26253901 0.07524158 -4.57999584 -0.23616921 0 0 Z " fill="#090804" transform="translate(83.05859375,471.546875)"/>
<path d="M0 0 C1.98 0 3.96 0 6 0 C6 5.28 6 10.56 6 16 C4.02 16 2.04 16 0 16 C0 10.72 0 5.44 0 0 Z " fill="#B5C3CE" transform="translate(33,481)"/>
</svg>
