<?xml version="1.0" encoding="UTF-8"?>
<svg version="1.1" xmlns="http://www.w3.org/2000/svg" width="512" height="512">
<path d="M0 0 C1.51425423 -0.06871608 3.02848735 -0.1378986 4.54270077 -0.20750809 C24.50340171 -1.08967858 44.47907002 -1.5532902 64.45605469 -1.85205078 C65.42482717 -1.86714251 66.39359965 -1.88223423 67.39172888 -1.89778328 C134.22140636 -2.905601 186.45350018 4.07896607 246.38314819 35.50985718 C262.90390007 44.16114307 279.9514571 51.06976322 297.32862854 57.80523682 C298.3539953 58.2031266 299.37936207 58.60101639 300.43580055 59.01096344 C302.35123747 59.75127283 304.26878594 60.48615152 306.18880272 61.21450043 C317.09849907 65.39906351 317.09849907 65.39906351 319.49833679 68.91767883 C322.66800596 78.34659206 318.98143245 89.64096576 317.03027344 99.07373047 C316.70046866 100.70259421 316.37136439 102.33159994 316.04292297 103.96073914 C315.35615251 107.35505919 314.66196271 110.74774815 313.9621582 114.1394043 C313.06801812 118.47526919 312.19121734 122.81442339 311.31972027 127.15488911 C310.64406172 130.51143133 309.96003559 133.86622534 309.27341652 137.220541 C308.94690782 138.81996246 308.62279567 140.41987518 308.3011837 142.02028847 C307.85034679 144.25646886 307.38845137 146.49008869 306.92358398 148.72338867 C306.66377243 149.9914888 306.40396088 151.25958893 306.13627625 152.56611633 C304.49811207 158.6537626 302.5462041 162.53263662 297.20605469 166.02294922 C293.90934753 166.50396729 293.90934753 166.50396729 290.12084961 166.47705078 C289.08099915 166.47792694 289.08099915 166.47792694 288.0201416 166.4788208 C285.74174933 166.47604668 283.46468551 166.44498954 281.18652344 166.41357422 C279.60183934 166.40610937 278.01714598 166.40041759 276.43244934 166.39642334 C272.27131447 166.38118605 268.11074236 166.3419213 263.9498291 166.29760742 C259.7000286 166.25661321 255.45013675 166.23840351 251.20019531 166.21826172 C242.8685575 166.17542462 234.53737619 166.10719709 226.20605469 166.02294922 C226.20882007 167.2773175 226.21158545 168.53168577 226.21443462 169.82406521 C226.27943992 199.61537088 226.32889212 229.40665824 226.35925068 259.19801747 C226.36300269 262.86663091 226.36688567 266.5352442 226.37084961 270.20385742 C226.37163654 270.93419725 226.37242347 271.66453707 226.37323425 272.41700841 C226.38628011 284.23499524 226.40992942 296.05293819 226.43751308 307.87089901 C226.46559011 320.00162285 226.4822358 332.13232375 226.48832017 344.26307875 C226.49243185 351.74546792 226.50540765 359.22773305 226.52980409 366.71008403 C226.54757041 372.45228386 226.5494145 378.19440461 226.54537773 383.93662643 C226.54620238 386.28880005 226.55216061 388.64097841 226.56367111 390.99312401 C226.57863401 394.20875795 226.57499411 397.42386453 226.56681824 400.63951111 C226.57555676 401.56657787 226.58429529 402.49364463 226.59329861 403.44880432 C226.54764822 410.10819927 225.75652883 416.82326348 221.48730469 422.17919922 C220.89949219 422.62263672 220.31167969 423.06607422 219.70605469 423.52294922 C219.11824219 423.98701172 218.53042969 424.45107422 217.92480469 424.92919922 C214.78115705 426.92970226 212.08984499 427.1495373 208.46798325 427.1571703 C207.48749284 427.16162814 206.50700243 427.16608598 205.49680018 427.17067891 C204.41695708 427.17049455 203.33711397 427.17031019 202.22454834 427.17012024 C201.07944581 427.17379693 199.93434329 427.17747362 198.75454068 427.18126172 C195.57098432 427.19038933 192.38745825 427.19499842 189.20389104 427.19765103 C185.77227683 427.20155421 182.34067755 427.2111325 178.90907288 427.21986389 C170.61952899 427.23962731 162.32998388 427.24969409 154.04042232 427.25859168 C150.1372303 427.26297454 146.23403964 427.26834134 142.33084869 427.27358055 C129.35683346 427.29059226 116.38281908 427.30508683 103.4087944 427.31232929 C100.04189808 427.3142392 96.67500177 427.31615953 93.30810547 427.31811523 C92.4712754 427.31859897 91.63444532 427.31908271 90.77225676 427.31958111 C77.21359497 427.32788293 63.65502136 427.35322264 50.09639809 427.38569591 C36.17790479 427.4187595 22.25945632 427.43677739 8.34092355 427.43997353 C0.52540128 427.44213922 -7.28999237 427.45089643 -15.10547638 427.47643471 C-21.76092262 427.49813212 -28.416209 427.50619689 -35.0716866 427.49646793 C-38.46704641 427.49192045 -41.86207633 427.49383489 -45.25739098 427.51322937 C-48.94004207 427.53085905 -52.62185346 427.52388497 -56.30450439 427.51069641 C-57.91088473 427.52715028 -57.91088473 427.52715028 -59.54971719 427.54393655 C-66.7381758 427.48168803 -71.00805118 426.28517129 -76.54396057 421.51499939 C-81.56388155 414.38646814 -80.5561502 405.36305788 -80.57128906 397.02685547 C-80.59273202 395.1402392 -80.61631738 393.2536463 -80.64183044 391.36708069 C-80.69317893 387.19468878 -80.72819963 383.02255554 -80.75164795 378.84991455 C-80.79227855 371.6740358 -80.87094838 364.49877587 -80.95068359 357.32324219 C-81.11094541 342.31121886 -81.22318943 327.29904735 -81.32637405 312.2865448 C-81.35653737 307.91656575 -81.38845389 303.54660042 -81.42062378 299.17663574 C-81.74630112 254.79200232 -81.94941942 210.40886652 -81.79394531 166.02294922 C-82.63475143 166.02961105 -83.47555756 166.03627289 -84.34184265 166.0431366 C-92.27225595 166.1032903 -100.20259243 166.14894526 -108.13318157 166.17838573 C-112.21022475 166.19403031 -116.28707914 166.2152463 -120.36401367 166.24926758 C-124.29975549 166.28190446 -128.23531591 166.29981132 -132.17118263 166.30758095 C-133.67147489 166.31311672 -135.17175741 166.32392683 -136.67197227 166.34013939 C-138.77624203 166.36197194 -140.87976575 166.36491382 -142.98413086 166.36352539 C-144.77949532 166.37351814 -144.77949532 166.37351814 -146.61112976 166.38371277 C-150.22968295 165.97355953 -151.9817951 165.32762807 -154.79394531 163.02294922 C-157.33127437 158.8534486 -158.7285435 154.45007928 -160.15405273 149.79931641 C-160.36906937 149.10249252 -160.584086 148.40566864 -160.80561829 147.68772888 C-161.50945956 145.40018967 -162.2050489 143.11025633 -162.89941406 140.81982422 C-163.38829889 139.21565568 -163.87725783 137.61150973 -164.36628723 136.00738525 C-165.38815114 132.64969731 -166.40522605 129.29059833 -167.41967773 125.93066406 C-168.71450869 121.64545061 -170.02704904 117.36588733 -171.34405041 113.08744431 C-172.35979777 109.77694407 -173.36294553 106.46272111 -174.36275673 103.14737701 C-174.84101515 101.56890392 -175.32378979 99.99179131 -175.8113308 98.41616058 C-181.98955958 78.40819516 -181.98955958 78.40819516 -178.36035156 71.15966797 C-174.77781388 68.17694634 -171.02857426 66.58573193 -166.73144531 64.83544922 C-165.74885742 64.42166016 -164.76626953 64.00787109 -163.75390625 63.58154297 C-160.79828174 62.34002285 -157.83732295 61.11205613 -154.87493896 59.88677979 C-150.98448961 58.27183537 -147.10280805 56.63597838 -143.21972656 55.00341797 C-133.0254323 50.72099493 -122.82192366 46.46077326 -112.61779785 42.20184326 C-104.54986167 38.83366388 -96.4841663 35.46012412 -88.41894531 32.08544922 C-87.54906982 31.72152069 -86.67919434 31.35759216 -85.78295898 30.9826355 C-71.19197398 24.87702156 -56.61482135 18.7388875 -42.04394531 12.58544922 C-40.5827829 11.96840622 -40.5827829 11.96840622 -39.09210205 11.33889771 C-36.33111375 10.17272497 -33.57029027 9.00616332 -30.80957031 7.83935547 C-29.99799469 7.49642456 -29.18641907 7.15349365 -28.35025024 6.8001709 C-27.58691376 6.47738159 -26.82357727 6.15459229 -26.03710938 5.82202148 C-25.3829303 5.54544205 -24.72875122 5.26886261 -24.05474854 4.98390198 C-21.65718706 4.00799003 -21.65718706 4.00799003 -18.95336914 2.47444153 C-13.00482816 -0.04800618 -6.36185073 0.25292577 0 0 Z " fill="#F7C527" transform="translate(185.7939453125,41.97705078125)"/>
<path d="M0 0 C1.51425423 -0.06871608 3.02848735 -0.1378986 4.54270077 -0.20750809 C24.50340171 -1.08967858 44.47907002 -1.5532902 64.45605469 -1.85205078 C65.42482717 -1.86714251 66.39359965 -1.88223423 67.39172888 -1.89778328 C134.22140636 -2.905601 186.45350018 4.07896607 246.38314819 35.50985718 C262.90390007 44.16114307 279.9514571 51.06976322 297.32862854 57.80523682 C298.3539953 58.2031266 299.37936207 58.60101639 300.43580055 59.01096344 C302.35123747 59.75127283 304.26878594 60.48615152 306.18880272 61.21450043 C317.09849907 65.39906351 317.09849907 65.39906351 319.49833679 68.91767883 C322.66800596 78.34659206 318.98143245 89.64096576 317.03027344 99.07373047 C316.70046866 100.70259421 316.37136439 102.33159994 316.04292297 103.96073914 C315.35615251 107.35505919 314.66196271 110.74774815 313.9621582 114.1394043 C313.06801812 118.47526919 312.19121734 122.81442339 311.31972027 127.15488911 C310.64406172 130.51143133 309.96003559 133.86622534 309.27341652 137.220541 C308.94690782 138.81996246 308.62279567 140.41987518 308.3011837 142.02028847 C307.85034679 144.25646886 307.38845137 146.49008869 306.92358398 148.72338867 C306.66377243 149.9914888 306.40396088 151.25958893 306.13627625 152.56611633 C304.49811207 158.6537626 302.5462041 162.53263662 297.20605469 166.02294922 C293.90934753 166.50396729 293.90934753 166.50396729 290.12084961 166.47705078 C289.08099915 166.47792694 289.08099915 166.47792694 288.0201416 166.4788208 C285.74174933 166.47604668 283.46468551 166.44498954 281.18652344 166.41357422 C279.60183934 166.40610937 278.01714598 166.40041759 276.43244934 166.39642334 C272.27131447 166.38118605 268.11074236 166.3419213 263.9498291 166.29760742 C259.7000286 166.25661321 255.45013675 166.23840351 251.20019531 166.21826172 C242.8685575 166.17542462 234.53737619 166.10719709 226.20605469 166.02294922 C226.20882007 167.2773175 226.21158545 168.53168577 226.21443462 169.82406521 C226.27943992 199.61537088 226.32889212 229.40665824 226.35925068 259.19801747 C226.36300269 262.86663091 226.36688567 266.5352442 226.37084961 270.20385742 C226.37163654 270.93419725 226.37242347 271.66453707 226.37323425 272.41700841 C226.38628011 284.23499524 226.40992942 296.05293819 226.43751308 307.87089901 C226.46559011 320.00162285 226.4822358 332.13232375 226.48832017 344.26307875 C226.49243185 351.74546792 226.50540765 359.22773305 226.52980409 366.71008403 C226.54757041 372.45228386 226.5494145 378.19440461 226.54537773 383.93662643 C226.54620238 386.28880005 226.55216061 388.64097841 226.56367111 390.99312401 C226.57863401 394.20875795 226.57499411 397.42386453 226.56681824 400.63951111 C226.57555676 401.56657787 226.58429529 402.49364463 226.59329861 403.44880432 C226.54764822 410.10819927 225.75652883 416.82326348 221.48730469 422.17919922 C220.89949219 422.62263672 220.31167969 423.06607422 219.70605469 423.52294922 C219.11824219 423.98701172 218.53042969 424.45107422 217.92480469 424.92919922 C214.78115705 426.92970226 212.08984499 427.1495373 208.46798325 427.1571703 C207.48749284 427.16162814 206.50700243 427.16608598 205.49680018 427.17067891 C204.41695708 427.17049455 203.33711397 427.17031019 202.22454834 427.17012024 C201.07944581 427.17379693 199.93434329 427.17747362 198.75454068 427.18126172 C195.57098432 427.19038933 192.38745825 427.19499842 189.20389104 427.19765103 C185.77227683 427.20155421 182.34067755 427.2111325 178.90907288 427.21986389 C170.61952899 427.23962731 162.32998388 427.24969409 154.04042232 427.25859168 C150.1372303 427.26297454 146.23403964 427.26834134 142.33084869 427.27358055 C129.35683346 427.29059226 116.38281908 427.30508683 103.4087944 427.31232929 C100.04189808 427.3142392 96.67500177 427.31615953 93.30810547 427.31811523 C92.4712754 427.31859897 91.63444532 427.31908271 90.77225676 427.31958111 C77.21359497 427.32788293 63.65502136 427.35322264 50.09639809 427.38569591 C36.17790479 427.4187595 22.25945632 427.43677739 8.34092355 427.43997353 C0.52540128 427.44213922 -7.28999237 427.45089643 -15.10547638 427.47643471 C-21.76092262 427.49813212 -28.416209 427.50619689 -35.0716866 427.49646793 C-38.46704641 427.49192045 -41.86207633 427.49383489 -45.25739098 427.51322937 C-48.94004207 427.53085905 -52.62185346 427.52388497 -56.30450439 427.51069641 C-57.91088473 427.52715028 -57.91088473 427.52715028 -59.54971719 427.54393655 C-66.7381758 427.48168803 -71.00805118 426.28517129 -76.54396057 421.51499939 C-81.56388155 414.38646814 -80.5561502 405.36305788 -80.57128906 397.02685547 C-80.59273202 395.1402392 -80.61631738 393.2536463 -80.64183044 391.36708069 C-80.69317893 387.19468878 -80.72819963 383.02255554 -80.75164795 378.84991455 C-80.79227855 371.6740358 -80.87094838 364.49877587 -80.95068359 357.32324219 C-81.11094541 342.31121886 -81.22318943 327.29904735 -81.32637405 312.2865448 C-81.35653737 307.91656575 -81.38845389 303.54660042 -81.42062378 299.17663574 C-81.74630112 254.79200232 -81.94941942 210.40886652 -81.79394531 166.02294922 C-82.63475143 166.02961105 -83.47555756 166.03627289 -84.34184265 166.0431366 C-92.27225595 166.1032903 -100.20259243 166.14894526 -108.13318157 166.17838573 C-112.21022475 166.19403031 -116.28707914 166.2152463 -120.36401367 166.24926758 C-124.29975549 166.28190446 -128.23531591 166.29981132 -132.17118263 166.30758095 C-133.67147489 166.31311672 -135.17175741 166.32392683 -136.67197227 166.34013939 C-138.77624203 166.36197194 -140.87976575 166.36491382 -142.98413086 166.36352539 C-144.77949532 166.37351814 -144.77949532 166.37351814 -146.61112976 166.38371277 C-150.22968295 165.97355953 -151.9817951 165.32762807 -154.79394531 163.02294922 C-157.33127437 158.8534486 -158.7285435 154.45007928 -160.15405273 149.79931641 C-160.36906937 149.10249252 -160.584086 148.40566864 -160.80561829 147.68772888 C-161.50945956 145.40018967 -162.2050489 143.11025633 -162.89941406 140.81982422 C-163.38829889 139.21565568 -163.87725783 137.61150973 -164.36628723 136.00738525 C-165.38815114 132.64969731 -166.40522605 129.29059833 -167.41967773 125.93066406 C-168.71450869 121.64545061 -170.02704904 117.36588733 -171.34405041 113.08744431 C-172.35979777 109.77694407 -173.36294553 106.46272111 -174.36275673 103.14737701 C-174.84101515 101.56890392 -175.32378979 99.99179131 -175.8113308 98.41616058 C-181.98955958 78.40819516 -181.98955958 78.40819516 -178.36035156 71.15966797 C-174.77781388 68.17694634 -171.02857426 66.58573193 -166.73144531 64.83544922 C-165.74885742 64.42166016 -164.76626953 64.00787109 -163.75390625 63.58154297 C-160.79828174 62.34002285 -157.83732295 61.11205613 -154.87493896 59.88677979 C-150.98448961 58.27183537 -147.10280805 56.63597838 -143.21972656 55.00341797 C-133.0254323 50.72099493 -122.82192366 46.46077326 -112.61779785 42.20184326 C-104.54986167 38.83366388 -96.4841663 35.46012412 -88.41894531 32.08544922 C-87.54906982 31.72152069 -86.67919434 31.35759216 -85.78295898 30.9826355 C-71.19197398 24.87702156 -56.61482135 18.7388875 -42.04394531 12.58544922 C-40.5827829 11.96840622 -40.5827829 11.96840622 -39.09210205 11.33889771 C-36.33111375 10.17272497 -33.57029027 9.00616332 -30.80957031 7.83935547 C-29.99799469 7.49642456 -29.18641907 7.15349365 -28.35025024 6.8001709 C-27.58691376 6.47738159 -26.82357727 6.15459229 -26.03710938 5.82202148 C-25.3829303 5.54544205 -24.72875122 5.26886261 -24.05474854 4.98390198 C-21.65718706 4.00799003 -21.65718706 4.00799003 -18.95336914 2.47444153 C-13.00482816 -0.04800618 -6.36185073 0.25292577 0 0 Z M158.20605469 14.02294922 C158.0475 14.94333984 157.88894531 15.86373047 157.72558594 16.81201172 C154.32689722 35.25130631 147.81943295 51.86846271 135.20605469 66.02294922 C134.54089844 66.78220703 133.87574219 67.54146484 133.19042969 68.32373047 C119.37145994 83.14073692 98.10039537 93.18376635 77.9050293 94.13085938 C51.54882184 94.79090488 29.32706154 88.67676781 9.20605469 71.02294922 C-7.0749547 55.52379621 -14.50066056 36.7470732 -17.79394531 15.02294922 C-23.65835627 16.90544753 -29.37866443 18.98959261 -35.05957031 21.36669922 C-35.83374298 21.6877916 -36.60791565 22.00888397 -37.4055481 22.33970642 C-39.9530529 23.39752053 -42.49854136 24.46009084 -45.04394531 25.52294922 C-46.86241239 26.27967333 -48.68093576 27.0362622 -50.49951172 27.79272461 C-65.61507026 34.08713745 -80.70019753 40.45364272 -95.77954102 46.83422852 C-111.02386329 53.2838035 -126.28853766 59.68389557 -141.56298828 66.06176758 C-150.99408692 70.00150212 -160.4092852 73.97366182 -169.79394531 78.02294922 C-169.19526149 81.18193966 -168.48867782 84.24614916 -167.55957031 87.32373047 C-167.31787109 88.12746094 -167.07617188 88.93119141 -166.82714844 89.75927734 C-166.56869141 90.60941406 -166.31023437 91.45955078 -166.04394531 92.33544922 C-165.77517578 93.22554688 -165.50640625 94.11564453 -165.22949219 95.03271484 C-163.41845194 101.01385721 -161.56687452 106.98155321 -159.68945312 112.94213867 C-158.0103406 118.28847032 -156.39702127 123.65338339 -154.79394531 129.02294922 C-152.87907046 135.42579273 -150.95461521 141.82529473 -148.98144531 148.21044922 C-148.67110352 149.22655273 -148.67110352 149.22655273 -148.35449219 150.26318359 C-147.5435468 153.39836155 -147.5435468 153.39836155 -145.79394531 156.02294922 C-143.56569991 156.13651928 -141.33385848 156.17983397 -139.1027832 156.1965332 C-138.40359268 156.20322021 -137.70440216 156.20990723 -136.98402405 156.21679688 C-135.46111376 156.23087744 -133.93818199 156.24276184 -132.41523933 156.25274467 C-130.00757683 156.26910429 -127.60007371 156.29233917 -125.19248962 156.31764221 C-118.34561044 156.38856135 -111.4986661 156.44859961 -104.65161133 156.49975586 C-100.46825296 156.53149391 -96.28507692 156.57275638 -92.10186577 156.61995125 C-90.50425932 156.63600332 -88.90661083 156.64831001 -87.30894661 156.65685844 C-85.07727607 156.66897132 -82.8460365 156.69310309 -80.61450195 156.7199707 C-79.34288712 156.73027817 -78.07127228 156.74058563 -76.76112366 156.75120544 C-73.79394531 157.02294922 -73.79394531 157.02294922 -71.79394531 159.02294922 C-71.57596123 161.90469247 -71.48417178 164.69300625 -71.47750854 167.57754517 C-71.46764923 168.47138412 -71.45778992 169.36522308 -71.44763184 170.28614807 C-71.4167339 173.30859572 -71.40011918 176.33095908 -71.38330078 179.35351562 C-71.36388056 181.54646242 -71.34359021 183.73940166 -71.32249641 185.93233299 C-71.26825631 191.82249151 -71.22597788 197.71268002 -71.18611145 203.60295105 C-71.1469541 209.12346809 -71.09709698 214.64386781 -71.0480957 220.16430664 C-70.91091798 236.32543282 -70.79099361 252.48670171 -70.66894531 268.64794922 C-70.23582031 322.78857422 -70.23582031 322.78857422 -69.79394531 378.02294922 C24.25605469 378.02294922 118.30605469 378.02294922 215.20605469 378.02294922 C215.4955089 305.66567029 215.4955089 305.66567029 215.77416992 233.30834961 C215.83312988 219.34802246 215.83312988 219.34802246 215.86195374 212.82298279 C215.88184023 208.24303295 215.89891179 203.66308167 215.9143219 199.08311462 C215.93402886 193.25298741 215.95844141 187.42289827 215.98636067 181.59280479 C215.99582316 179.44572251 216.00358858 177.29863198 216.00952423 175.15153706 C216.01773715 172.26606725 216.03197977 169.38069089 216.0478363 166.49525452 C216.04881349 165.64240088 216.04979067 164.78954725 216.05079746 163.91084957 C216.09192986 158.13707404 216.09192986 158.13707404 217.20605469 157.02294922 C219.57807016 156.89807968 221.92245811 156.8369487 224.29614258 156.81762695 C225.03755997 156.80772736 225.77897736 156.79782776 226.54286194 156.78762817 C229.00477861 156.75592456 231.46671462 156.73122096 233.92871094 156.70654297 C235.63122574 156.68598108 237.33373534 156.66498482 239.03623962 156.64356995 C243.52592778 156.58827023 248.0156626 156.53889594 252.50543213 156.49072266 C257.08341647 156.44056516 261.66133271 156.38484914 266.23925781 156.32958984 C275.22813198 156.22191171 284.21706518 156.12048833 293.20605469 156.02294922 C295.05709651 150.7603529 296.62545414 145.63586369 297.60058594 140.12841797 C297.83100586 138.85643555 298.06142578 137.58445312 298.29882812 136.27392578 C298.41609253 135.61138794 298.53335693 134.9488501 298.6541748 134.26623535 C299.28225887 130.72266289 299.93257803 127.18321151 300.58496094 123.64404297 C300.71740204 122.92475616 300.84984314 122.20546936 300.98629761 121.46438599 C302.5459017 113.07472246 304.3547362 104.7413277 306.20141602 96.41040039 C307.76397621 89.31123505 309.08158731 82.20471938 310.20605469 75.02294922 C304.23148363 71.92865004 298.18037413 69.31031261 291.92333984 66.84375 C290.92339996 66.44625046 289.92346008 66.04875092 288.89321899 65.63920593 C285.59512354 64.32899476 282.29510258 63.02370455 278.99511719 61.71826172 C276.66646873 60.79381725 274.33797006 59.8689954 272.00961304 58.94381714 C265.86553555 56.50329505 259.71993912 54.06662065 253.57385254 51.63116455 C243.8530841 47.77918637 234.13382079 43.92341624 224.416008 40.06398773 C222.05664818 39.1269843 219.69717695 38.19026139 217.33759308 37.25382233 C201.38486349 30.92061168 185.46843478 24.50934213 169.63858032 17.8742981 C168.99824986 17.60723179 168.35791939 17.34016548 167.69818497 17.06500626 C166.02139849 16.36524824 164.34635771 15.66131105 162.67147827 14.95700073 C160.33374745 13.90485375 160.33374745 13.90485375 158.20605469 14.02294922 Z " fill="#271A65" transform="translate(185.7939453125,41.97705078125)"/>
<path d="M0 0 C3.01212346 1.99036393 5.46134611 4.446265 8 7 C8.59941406 7.55171875 9.19882812 8.1034375 9.81640625 8.671875 C14.018534 12.62018295 17.23443352 16.96956819 20.421875 21.765625 C21.81894849 23.74365974 23.23015139 25.35809226 25 27 C25.93199219 26.60167969 26.86398437 26.20335937 27.82421875 25.79296875 C52.51546992 15.44845565 52.51546992 15.44845565 62.75 18.9375 C68.32424091 24.04722083 69.14545852 33.80024249 70 41 C70.14151659 44.6748662 70.12794506 48.32513345 70 52 C71.14082031 52.11601562 72.28164063 52.23203125 73.45703125 52.3515625 C78.01674927 52.92391204 82.29363313 54.05566196 86.6875 55.375 C87.42033203 55.58382812 88.15316406 55.79265625 88.90820312 56.0078125 C94.37770916 57.62548426 98.71911377 59.07867065 102 64 C102 81.57712005 90.71247643 100.19639599 78.73046875 112.37109375 C72.36908795 118.49585667 64.37499435 126 55 126 C55.23976563 127.45019531 55.23976563 127.45019531 55.484375 128.9296875 C56.10889779 133.33013711 56.22055097 137.6855584 56.25 142.125 C56.2809375 143.30255859 56.2809375 143.30255859 56.3125 144.50390625 C56.34379169 149.14289903 56.10472326 152.29391142 53 156 C48.110777 159.45491133 41.67638575 158.48398657 36 158 C22.12361265 155.38581297 8.91996229 150.49069594 0.328125 138.70703125 C-0.8523128 136.83358362 -1.96447475 134.95657032 -3 133 C-3.7734375 133.99 -3.7734375 133.99 -4.5625 135 C-5.366875 135.99 -6.17125 136.98 -7 138 C-7.49757813 138.62777344 -7.99515625 139.25554687 -8.5078125 139.90234375 C-17.68047831 151.01620163 -29.96896184 155.75956004 -44 158 C-55.21614127 158.97169541 -55.21614127 158.97169541 -58.921875 156.953125 C-63.50977891 152.36522109 -63.18351717 148.13866258 -63.18945312 141.97045898 C-63.13128593 136.4558122 -62.40230095 131.32123129 -61 126 C-61.87269531 125.89429688 -62.74539062 125.78859375 -63.64453125 125.6796875 C-76.39889651 123.09614902 -86.54846397 112.30476762 -93.6628418 101.94433594 C-98.41091297 94.6886298 -101.91198796 87.1060316 -105 79 C-105.3403125 78.11957031 -105.680625 77.23914063 -106.03125 76.33203125 C-107.53886154 72.16516048 -108.71090476 68.46854423 -108 64 C-105.03187814 59.32539039 -102.21750516 57.94840526 -97 56.3125 C-96.01664673 56.00179565 -96.01664673 56.00179565 -95.01342773 55.68481445 C-89.10365692 53.88463375 -83.12933847 52.76474055 -77 52 C-76.96261719 50.91203125 -76.92523438 49.8240625 -76.88671875 48.703125 C-75.91265884 25.18615249 -75.91265884 25.18615249 -70.25 19.75 C-62.81547024 15.74679167 -54.57300928 19.09729795 -46.96630859 21.375 C-41.19825811 23.2084007 -35.41591293 25.29204353 -30 28 C-29.74089844 27.28070313 -29.48179687 26.56140625 -29.21484375 25.8203125 C-24.74634849 15.44650678 -12.4074597 -1.60096254 0 0 Z " fill="#291A64" transform="translate(259,204)"/>
<path d="M0 0 C51.81 0 103.62 0 157 0 C157 10.14055591 157 10.14055591 155.6796875 14.12109375 C155.39496582 14.98879395 155.11024414 15.85649414 154.81689453 16.75048828 C154.50606934 17.63720215 154.19524414 18.52391602 153.875 19.4375 C153.55515137 20.36546387 153.23530273 21.29342773 152.90576172 22.24951172 C150.61982187 28.6853116 148.13967334 34.51958139 144 40 C143.32066406 40.9075 142.64132812 41.815 141.94140625 42.75 C129.46179687 58.6685312 111.72501926 70.54097014 91.38671875 73.53125 C69.53420159 76.12379416 49.07567378 71.95217076 31.1875 58.6875 C29.76716937 57.4867243 28.37269015 56.25495942 27 55 C26.10796875 54.19949219 25.2159375 53.39898437 24.296875 52.57421875 C11.0379654 40.05795299 3.13315632 23.95833503 0 6 C0 4.02 0 2.04 0 0 Z " fill="#F0EFF0" transform="translate(177,53)"/>
<path d="M0 0 C93.72 0 187.44 0 284 0 C284 7.92 284 15.84 284 24 C278.37497408 29.62502592 278.37497408 29.62502592 274.10115719 29.62641239 C273.13573496 29.63883443 272.17031273 29.65125647 271.17563528 29.66405493 C270.12291718 29.6522192 269.07019909 29.64038347 267.98558044 29.62818909 C266.2989403 29.63883067 266.2989403 29.63883067 264.57822663 29.64968723 C260.80237528 29.6673194 257.02754616 29.64913443 253.25170898 29.63110352 C250.54811793 29.63348281 247.84456553 29.64333066 245.14099121 29.65278625 C238.5555317 29.67117055 231.97036879 29.66264572 225.3849185 29.64469803 C220.03369635 29.63067657 214.68255475 29.62677824 209.33131599 29.6301403 C208.18922799 29.63085647 208.18922799 29.63085647 207.02406751 29.6315871 C205.47736309 29.63261342 203.93065868 29.63366878 202.38395429 29.63475286 C188.70586132 29.64332137 175.02791163 29.62663947 161.34985352 29.59692383 C148.0730996 29.56808036 134.79655205 29.56100534 121.51977539 29.57641602 C107.06550677 29.59317044 92.61133614 29.59722061 78.15706497 29.57970566 C76.61633274 29.57786124 75.0756005 29.57602652 73.53486824 29.57420158 C72.7767757 29.57328949 72.01868317 29.5723774 71.23761813 29.57143768 C65.8913862 29.56582798 60.54520205 29.56914343 55.1989727 29.57574654 C48.68581601 29.58347149 42.17286261 29.57675745 35.65974694 29.5515715 C32.33557791 29.53905707 29.01199028 29.53509392 25.68776894 29.54411316 C22.08732143 29.55275845 18.48780526 29.5369339 14.88743591 29.5146637 C13.8324871 29.52290446 12.77753828 29.53114523 11.69062132 29.53963572 C10.72780683 29.52858803 9.76499235 29.51754034 8.77300167 29.50615788 C7.52626845 29.50437065 7.52626845 29.50437065 6.2543487 29.50254732 C4 29 4 29 0 25 C0 16.75 0 8.5 0 0 Z " fill="#EFEFF0" transform="translate(117,430)"/>
<path d="M0 0 C0.27972656 0.96035156 0.55945313 1.92070313 0.84765625 2.91015625 C6.03563284 20.66441798 11.39392881 38.37304174 17 56 C17.21930176 56.69722168 17.43860352 57.39444336 17.66455078 58.11279297 C18.33073588 60.22372831 19.00759458 62.330949 19.6875 64.4375 C20.08324219 65.67371094 20.47898438 66.90992188 20.88671875 68.18359375 C21.68554364 71.12085584 21.68554364 71.12085584 24 72 C25.7755109 72.09409459 27.55451727 72.12513952 29.33251953 72.12597656 C31.00533493 72.13168671 31.00533493 72.13168671 32.71194458 72.13751221 C33.92333099 72.13853943 35.13471741 72.13956665 36.3828125 72.140625 C38.93750888 72.15895811 41.49219662 72.17852888 44.046875 72.19921875 C48.08241785 72.22951418 52.11765293 72.2523273 56.15332031 72.25048828 C60.04281879 72.25382895 63.93103677 72.28842731 67.8203125 72.328125 C69.61917404 72.31752045 69.61917404 72.31752045 71.45437622 72.30670166 C79.54203453 72.42376318 84.62831935 73.83613385 90.51443481 79.44244385 C95.35865331 84.76551013 96.24744335 90.17205321 96.2784729 97.16523743 C96.2842653 97.86422455 96.2900577 98.56321166 96.29602563 99.28338021 C96.31296586 101.61515572 96.31589749 103.94673248 96.31884766 106.27856445 C96.32815341 107.9567513 96.33832305 109.63493354 96.34928894 111.31311035 C96.37661871 115.87527002 96.391762 120.43739865 96.40471697 124.99961877 C96.42043451 129.81579542 96.44722658 134.63191095 96.4727478 139.44804382 C96.51428753 147.57300975 96.54874367 155.6979794 96.578125 163.82299805 C96.61901343 175.12996956 96.67175911 186.43686012 96.72740483 197.74376738 C96.90684593 234.49605745 97.02566088 271.24723656 97 308 C90.07 308 83.14 308 76 308 C75.97938507 305.27332062 75.95877014 302.54664124 75.93753052 299.73733521 C75.74277759 274.10233693 75.53712009 248.46744288 75.32132149 222.83261299 C75.21062861 209.65195432 75.10366007 196.47128483 75.00537109 183.29052734 C74.91972209 171.80607065 74.82717506 160.32169414 74.7262429 148.83736122 C74.67301291 142.75299008 74.62330627 136.668635 74.58185196 130.5841713 C74.5427658 124.86326122 74.4944927 119.14250396 74.43901825 113.42173004 C74.42025257 111.31659843 74.40491091 109.21143323 74.39316177 107.10625076 C74.37668082 104.24287547 74.34814043 101.37987317 74.31643677 98.51663208 C74.31448055 97.67423103 74.31252434 96.83182999 74.31050885 95.96390164 C74.42953336 91.51028956 74.42953336 91.51028956 72 88 C68.88290061 87.66670956 68.88290061 87.66670956 65.16357422 87.68115234 C64.46102509 87.67110672 63.75847595 87.6610611 63.03463745 87.65071106 C60.70799594 87.61977269 58.38147004 87.60281473 56.0546875 87.5859375 C54.44327797 87.56723438 52.83187832 87.54766161 51.2204895 87.5272522 C46.9757875 87.47583438 42.7310537 87.43626052 38.48620605 87.39910889 C34.156088 87.35912953 29.82610327 87.3080096 25.49609375 87.2578125 C16.99748677 87.16093904 8.49881403 87.07657105 0 87 C-1.70328721 83.06294184 -3.35062404 79.20579333 -4.578125 75.09375 C-4.84818359 74.19712646 -5.11824219 73.30050293 -5.39648438 72.37670898 C-5.67814453 71.42739502 -5.95980469 70.47808105 -6.25 69.5 C-6.8697354 67.43878517 -7.48952869 65.37758773 -8.109375 63.31640625 C-8.42326172 62.26727051 -8.73714844 61.21813477 -9.06054688 60.13720703 C-10.52889301 55.23381623 -12.01264254 50.33515264 -13.5 45.4375 C-13.78335205 44.50196289 -14.0667041 43.56642578 -14.35864258 42.60253906 C-15.86630179 37.64545441 -17.40799698 32.70147536 -18.99609375 27.76953125 C-19.3209375 26.76027588 -19.64578125 25.75102051 -19.98046875 24.71118164 C-20.60524572 22.77803883 -21.23397619 20.84616803 -21.8671875 18.91577148 C-22.14691406 18.05153564 -22.42664063 17.1872998 -22.71484375 16.296875 C-22.96355225 15.53729492 -23.21226074 14.77771484 -23.46850586 13.99511719 C-24 12 -24 12 -24 9 C-20.56631406 7.49115787 -17.12746451 5.99446599 -13.6875 4.5 C-12.71103516 4.07074219 -11.73457031 3.64148438 -10.72851562 3.19921875 C-9.79072266 2.79316406 -8.85292969 2.38710937 -7.88671875 1.96875 C-7.02264404 1.59169922 -6.15856934 1.21464844 -5.26831055 0.82617188 C-3 0 -3 0 0 0 Z " fill="#FAE191" transform="translate(40,111)"/>
<path d="M0 0 C12.38707333 9.35912207 23.28784062 24.41159029 26.4375 39.75 C26.66677253 41.49501873 26.85626194 43.24586328 27 45 C27.10441406 46.22783203 27.10441406 46.22783203 27.2109375 47.48046875 C27.93009638 64.87858177 18.78486788 79.22799898 8 92 C5.73822371 94.4425577 3.43345095 96.72525237 1 99 C-12.04080987 89.07764466 -23.15980329 72.27355952 -26 56 C-27.60996115 39.4015273 -21.29052487 24.93220929 -10.91015625 12.2109375 C-7.34042742 8.07910413 -3.69830935 4.01698453 0 0 Z " fill="#F45338" transform="translate(255,214)"/>
<path d="M0 0 C6.98216605 0.02958545 13.11111279 1.44500871 19.625 3.8125 C20.33591797 4.06080566 21.04683594 4.30911133 21.77929688 4.56494141 C26.66601141 6.43010869 26.66601141 6.43010869 28.05078125 8.79296875 C27.9806888 11.83929435 27.31088774 14.54636304 26.5625 17.5 C22.95248568 33.44698986 25.67186864 48.69233219 34.1875 62.734375 C36.38171916 66.20972481 38.67921963 69.60809022 41 73 C42.3378684 74.99701059 43.66873577 76.99857554 45 79 C28.99649564 75.57067764 14.85605395 67.8137657 5.3125 54.23046875 C-0.82448071 43.8012545 -2.18921497 33.96533972 -2.125 22.125 C-2.12234131 21.24602051 -2.11968262 20.36704102 -2.11694336 19.46142578 C-2.00375409 4.00750817 -2.00375409 4.00750817 0 0 Z " fill="#F25239" transform="translate(195,233)"/>
<path d="M0 0 C4.72221663 15.71553693 4.25160661 37.04839914 -3.4609375 51.79296875 C-4.86727064 53.98099467 -6.35917079 55.98502567 -8 58 C-8.86625 59.299375 -8.86625 59.299375 -9.75 60.625 C-18.97158237 70.3588925 -32.11923201 76.10943395 -45 79 C-44.6596875 78.58492188 -44.319375 78.16984375 -43.96875 77.7421875 C-32.68536919 63.39788955 -24.82972714 47.56335851 -24.75 29.125 C-24.74605225 28.3314209 -24.74210449 27.5378418 -24.73803711 26.72021484 C-24.79599147 20.90446536 -25.8484394 16.42567455 -28 11 C-27.97265625 8.9375 -27.97265625 8.9375 -27 7 C-24.3046875 5.5859375 -24.3046875 5.5859375 -20.875 4.375 C-19.69421875 3.95605469 -18.5134375 3.53710938 -17.296875 3.10546875 C-16.20890625 2.74066406 -15.1209375 2.37585938 -14 2 C-13.28328125 1.74863281 -12.5665625 1.49726563 -11.828125 1.23828125 C-7.84290049 -0.05051842 -4.16336106 -0.1699331 0 0 Z " fill="#F25238" transform="translate(316,233)"/>
<path d="M0 0 C7.67773796 -0.5118492 15.22165913 1.34890304 22 5 C19.72219112 20.94466215 9.40604513 37.1683993 -2.79296875 47.3515625 C-15.37278824 56.74746308 -30.90390572 57.09753653 -45.94921875 55.609375 C-46.95597656 55.40828125 -47.96273438 55.2071875 -49 55 C-49.33 54.34 -49.66 53.68 -50 53 C-48.97261719 52.64808594 -47.94523437 52.29617188 -46.88671875 51.93359375 C-30.21051915 46.0620052 -15.05831005 37.4533853 -7 21 C-3.76549921 14.11654985 -1.37187196 7.48293798 0 0 Z " fill="#F05139" transform="translate(328,267)"/>
<path d="M0 0 C0.20753906 0.84820312 0.41507813 1.69640625 0.62890625 2.5703125 C4.87247255 18.72782437 11.64777677 32.70881542 25.94140625 42.23046875 C33.37551774 46.53142981 41.57566517 51.09141626 50 53 C50 53.66 50 54.32 50 55 C38.26096973 56.65038521 25.07216161 57.96338279 14 53 C13.25878906 52.67128906 12.51757812 52.34257812 11.75390625 52.00390625 C-3.13999207 44.54405077 -11.48849778 31.13461905 -18.0625 16.4375 C-18.3618042 15.77097412 -18.6611084 15.10444824 -18.96948242 14.41772461 C-20.49688832 10.81933735 -21.35328202 7.91616878 -21 4 C-18.81613582 3.32151792 -16.62769916 2.6577449 -14.4375 2 C-13.21933594 1.62875 -12.00117188 1.2575 -10.74609375 0.875 C-7.02076651 0.00485057 -3.80934051 -0.15688404 0 0 Z " fill="#F25339" transform="translate(183,267)"/>
<path d="M0 0 C1.08087891 0.29003906 1.08087891 0.29003906 2.18359375 0.5859375 C14.30295687 3.52484668 26.5891501 4.18576638 39 5 C40.31760105 9.81391251 41.25059608 13.97615663 41.125 19 C41.10695313 19.94875 41.08890625 20.8975 41.0703125 21.875 C41.04710937 22.57625 41.02390625 23.2775 41 24 C29.59583473 24.65793261 17.60794253 21.44845687 8.70703125 14.109375 C4.88245555 10.4589603 1.91010746 7.01403208 0 2 C0 1.34 0 0.68 0 0 Z " fill="#5CB86E" transform="translate(264,328)"/>
<path d="M0 0 C1 3 1 3 -0.1171875 5.26953125 C-6.22627575 14.10734559 -13.38327458 19.72283304 -24 22 C-29.31161035 22.84683608 -34.65150467 23.44218147 -40 24 C-40.05479286 22.1461748 -40.09314594 20.2918612 -40.125 18.4375 C-40.14820313 17.40496094 -40.17140625 16.37242187 -40.1953125 15.30859375 C-39.97377289 11.55571281 -39.14353871 8.57018189 -38 5 C-37.16359985 4.97812622 -37.16359985 4.97812622 -36.31030273 4.95581055 C-17.68903886 4.96067171 -17.68903886 4.96067171 0 0 Z " fill="#5AB86C" transform="translate(246,328)"/>
<path d="M0 0 C2.42745845 3.06894897 4.30265949 6.26255228 6.1875 9.6875 C13.19941536 21.74564733 23.1355318 31.73928495 36.94189453 35.53369141 C42.75104331 36.91301441 48.35538013 37.37954725 54.3125 37.5625 C56.05872419 37.6226264 57.80483083 37.68629541 59.55078125 37.75390625 C60.31044189 37.77783447 61.07010254 37.8017627 61.8527832 37.82641602 C63.99920266 37.99993554 65.93043428 38.41754034 68 39 C68 39.66 68 40.32 68 41 C56.26096973 42.65038521 43.07216161 43.96338279 32 39 C31.25878906 38.67128906 30.51757812 38.34257812 29.75390625 38.00390625 C15.39992968 30.81447951 6.25114902 17.40482165 0 3 C0 2.01 0 1.02 0 0 Z " fill="#EC9B93" transform="translate(165,281)"/>
<path d="M0 0 C0 4.04498536 -1.62875356 5.86617669 -3.8125 9.25 C-9.93191952 18.74680406 -13.36436248 27.64420553 -13.25 38.9375 C-13.25773438 39.69740234 -13.26546875 40.45730469 -13.2734375 41.24023438 C-13.21163578 59.33268908 -3.04424577 75.20298887 9 88 C8.67 88.66 8.34 89.32 8 90 C-4.62381389 78.28268338 -16.56447624 61.80004783 -18.27734375 44.140625 C-18.81775218 27.45281274 -11.70155878 13.45492152 -1 1 C-0.67 0.67 -0.34 0.34 0 0 Z " fill="#EC9C93" transform="translate(247,223)"/>
<path d="M0 0 C2 2 2 2 3.5625 5.5 C10.09234532 18.63092531 22.73692112 26.93658214 36.1875 31.75 C37.75564453 32.23726563 37.75564453 32.23726563 39.35546875 32.734375 C42.56931859 34.27246562 43.47705516 35.83897359 45 39 C28.82367518 35.53364468 14.89824997 27.72827197 5.25 14.05078125 C2.5785335 9.66790652 0 5.2004952 0 0 Z " fill="#EE9D95" transform="translate(195,273)"/>
<path d="M0 0 C0 0.66 0 1.32 0 2 C-1.21816406 2.32613281 -2.43632812 2.65226563 -3.69140625 2.98828125 C-5.31517655 3.42942116 -6.93887044 3.87084239 -8.5625 4.3125 C-9.76229492 4.63250977 -9.76229492 4.63250977 -10.98632812 4.95898438 C-14.74601817 5.98714451 -18.34076831 7.07411455 -21.90234375 8.66796875 C-25 10 -25 10 -28 10 C-27.67 9.01 -27.34 8.02 -27 7 C-22.81752234 4.95725366 -18.39593907 3.52086992 -14 2 C-13.28328125 1.74734375 -12.5665625 1.4946875 -11.828125 1.234375 C-7.84098418 -0.04589958 -4.16346205 -0.16993723 0 0 Z " fill="#ED9C93" transform="translate(316,233)"/>
<path d="M0 0 C7.67773796 -0.5118492 15.22165913 1.34890304 22 5 C21.67 5.66 21.34 6.32 21 7 C20.40574219 6.80664062 19.81148438 6.61328125 19.19921875 6.4140625 C12.86027437 4.42266784 6.55635914 3.05948769 0 2 C0 1.34 0 0.68 0 0 Z " fill="#EB9890" transform="translate(328,267)"/>
<path d="M0 0 C0.66 0 1.32 0 2 0 C1.34 5.94 0.68 11.88 0 18 C-0.33 18 -0.66 18 -1 18 C-1.02684312 15.18743719 -1.04676188 12.37512759 -1.0625 9.5625 C-1.07087891 8.76005859 -1.07925781 7.95761719 -1.08789062 7.13085938 C-1.0965143 5.08704779 -1.0522815 3.04316098 -1 1 C-0.67 0.67 -0.34 0.34 0 0 Z " fill="#9ED1A9" transform="translate(208,333)"/>
</svg>
